<svg xmlns="http://www.w3.org/2000/svg" viewBox="0 0 31 30">
  <g fill="#020202" fill-rule="nonzero">
    <path d="M27.0000003 12.4399997v2.56c-.0030384 5.3136606-3.501247 9.9930932-8.5975769 11.4999188-5.0963298 1.5068256-10.57675059-.5179066-13.46927675-4.9762016-2.89252615-4.4582949-2.50810996-10.28811282.94478294-14.32799302 3.45289289-4.0398802 9.15172611-5.32745623 14.00607101-3.16448657l1.2179043.54266645 1.0853329-2.43580862-1.2179044-.54266645C15.0362453-1.04820089 8.0710047.52550315 3.85080227 5.4631345-.36940016 10.40076586-.83924217 17.5260988 2.69606757 22.975126c3.53530975 5.4490271 10.23360183 7.9236998 16.46244943 6.0820241 6.2288476-1.8416757 10.5044359-7.5609821 10.50815-14.0563881V12.4399997h-2.6666667z"/>
    <path d="M11.00000033 11.7943816l-1.88561808 1.8856181 5.88608935 5.8860893L30.2189515 4.33239066l-1.8865602-1.88467551L14.999529 15.7939103z"/>
  </g>
</svg>
