<svg xmlns="http://www.w3.org/2000/svg" viewBox="0 0 30 28">
  <g fill="#B6B8B7" fill-rule="nonzero">
    <path d="M14 14.7810486l-4-4-1.88561808 1.8856181L14 18.5522847 29.2189514 3.33333333l-1.8856181-1.88561808z"/>
    <path d="M24.6666667 12.6666667v10.6666666c0 .7363797-.5969537 1.3333334-1.3333334 1.3333334H4.66666667c-.73637967 0-1.33333334-.5969537-1.33333334-1.3333334V4.66666667c0-.73637967.59695367-1.33333334 1.33333334-1.33333334H20.6666667V.66666667H4.66666667c-2.209139 0-4 1.790861-4 4V23.3333333c0 2.209139 1.790861 4 4 4H23.3333333c2.209139 0 4-1.790861 4-4V12.6666667h-2.6666666z"/>
  </g>
</svg>
