<?xml version="1.0" encoding="utf-8"?>
<!-- Generated by IcoMoon.io -->
<!DOCTYPE svg PUBLIC "-//W3C//DTD SVG 1.1//EN" "http://www.w3.org/Graphics/SVG/1.1/DTD/svg11.dtd">
<svg version="1.1" xmlns="http://www.w3.org/2000/svg" xmlns:xlink="http://www.w3.org/1999/xlink" width="24" height="24" viewBox="0 0 24 24">
<path fill="currentColor" d="M12 1.981c-5.533 0-10.019 4.486-10.019 10.019s4.486 10.019 10.019 10.019 10.019-4.486 10.019-10.019-4.486-10.019-10.019-10.019zM11.422 16.301c-0.63 0.306-1.306 0.338-1.569 0.338-0.050 0-0.078 0-0.078 0s-0.024 0-0.057 0c-0.409 0-2.446-0.094-2.446-1.948 0-1.822 2.218-1.966 2.897-1.966h0.017c-0.392-0.524-0.311-1.052-0.311-1.052-0.035 0.002-0.084 0.004-0.146 0.004-0.256 0-0.75-0.041-1.173-0.314-0.52-0.334-0.783-0.903-0.783-1.69 0-2.224 2.428-2.313 2.453-2.316h2.426v0.053c0 0.271-0.487 0.324-0.819 0.37-0.113 0.017-0.339 0.038-0.403 0.071 0.615 0.329 0.714 0.845 0.714 1.612 0 0.875-0.343 1.337-0.705 1.661-0.225 0.202-0.402 0.359-0.402 0.571 0 0.208 0.242 0.419 0.524 0.667 0.46 0.406 1.092 0.958 1.092 1.89 0 0.964-0.414 1.653-1.232 2.047zM16.697 12h-1.566v1.566h-1.044v-1.566h-1.566v-1.044h1.566v-1.566h1.044v1.566h1.566v1.044zM10.146 13.2c-0.054 0-0.109 0.002-0.164 0.006-0.464 0.035-0.891 0.208-1.2 0.49-0.307 0.277-0.464 0.628-0.442 0.982 0.047 0.742 0.844 1.176 1.811 1.107 0.951-0.069 1.586-0.618 1.54-1.36-0.043-0.698-0.651-1.225-1.546-1.225zM11.057 9.166c-0.252-0.887-0.659-1.15-1.292-1.15-0.068 0-0.137 0.010-0.203 0.028-0.275 0.078-0.492 0.307-0.614 0.647-0.124 0.344-0.131 0.704-0.025 1.112 0.193 0.731 0.713 1.262 1.237 1.262 0.069 0 0.137-0.009 0.203-0.028 0.573-0.161 0.932-1.035 0.694-1.872z"></path>
</svg>
