<?xml version="1.0" encoding="utf-8"?>
<!-- Generated by IcoMoon.io -->
<!DOCTYPE svg PUBLIC "-//W3C//DTD SVG 1.1//EN" "http://www.w3.org/Graphics/SVG/1.1/DTD/svg11.dtd">
<svg version="1.1" xmlns="http://www.w3.org/2000/svg" xmlns:xlink="http://www.w3.org/1999/xlink" width="24" height="24" viewBox="0 0 24 24">
<path fill="#424242" d="M12 1.981c-5.533 0-10.019 4.486-10.019 10.019s4.486 10.019 10.019 10.019 10.019-4.486 10.019-10.019-4.486-10.019-10.019-10.019zM9.547 16.153h-2.029v-6.529h2.029v6.529zM8.52 8.822c-0.641 0-1.055-0.454-1.055-1.016 0-0.573 0.427-1.013 1.081-1.013s1.055 0.44 1.068 1.013c0 0.562-0.413 1.016-1.094 1.016zM16.957 16.153h-2.029v-3.618c0-0.842-0.294-1.414-1.028-1.414-0.56 0-0.893 0.387-1.040 0.76-0.054 0.132-0.068 0.32-0.068 0.507v3.764h-2.030v-4.446c0-0.815-0.026-1.497-0.053-2.083h1.763l0.093 0.907h0.041c0.267-0.426 0.922-1.054 2.016-1.054 1.335 0 2.336 0.894 2.336 2.817v3.861z"></path>
</svg>
