<svg xmlns="http://www.w3.org/2000/svg" fill="none" viewBox="0 0 252 52">
  <g fill="#fff" clip-path="url(#a)">
    <path d="M30 16.08a10.32 10.32 0 0 0-1.13-13.07c-3.52-3.55-9-3.94-12.94-1.16A10.02 10.02 0 0 0 2.97 3a10.24 10.24 0 0 0-1.14 13.08 10.32 10.32 0 0 0 1.15 13.1 10.06 10.06 0 0 0 12.94 1.15 10.05 10.05 0 0 0 12.95-1.16 10.2 10.2 0 0 0 2.96-7.23c0-2.13-.64-4.15-1.83-5.86ZM15.94 25 7.1 16.08l8.82-8.91 8.83 8.91L15.93 25ZM3.89 10.23a6.27 6.27 0 0 1 6.24-6.3c1 0 1.94.26 2.81.69l-8.36 8.44a6.27 6.27 0 0 1-.69-2.83ZM5.73 26.4a6.3 6.3 0 0 1-1.14-7.29l8.35 8.43a6.17 6.17 0 0 1-7.21-1.14Zm21.53-7.28a6.27 6.27 0 0 1-1.14 7.29 6.19 6.19 0 0 1-7.21 1.14l8.35-8.43ZM26.12 5.78a6.31 6.31 0 0 1 1.13 7.29L18.9 4.64a6.19 6.19 0 0 1 7.22 1.14Zm19.05 14.28-1.41 3.32a9.06 9.06 0 0 0-.83 2.62c0 .48.73.7 2.16.7h.27v1.07h-6.43v-1.06l.35-.02c.96-.04 1.53-.17 1.72-.36.18-.2.65-1.18 1.4-2.95l8.74-20.97h1.15l8.69 21.1a12.9 12.9 0 0 0 1.44 2.69c.27.28.82.45 1.63.5h.4v1.07h-9.2v-1.06h.3c1.56 0 2.34-.23 2.34-.68 0-.66-.23-1.55-.7-2.65l-1.38-3.33H45.17Zm.55-1.38h9.5L50.5 7.28l-4.78 11.4Zm28.4 8.97a6.2 6.2 0 0 1-2.39.53c-1.93 0-3.34-.5-4.23-1.47-.89-.99-1.33-2.55-1.33-4.69V10.76H63.5V9.38h2.67V6.06l3.3-.84v4.16h5.07v1.37h-5.07v11.7c0 1.58.21 2.7.62 3.36.42.67 1.12 1 2.12 1 .52 0 1.17-.19 1.92-.53v1.35l-.01.02Zm8.73-13.26v8.99c0 1.52.13 2.43.4 2.73.25.31 1.06.5 2.4.57l.72.02v1.06h-9.91V26.7l.32-.02c1.35-.08 2.16-.28 2.41-.58.25-.3.38-1.2.38-2.73v-9.61c0-1.52-.13-2.43-.38-2.72-.25-.29-1.05-.5-2.41-.6l-.32-.01V9.37h6.4v3.45c1.5-2.58 3.49-3.87 5.92-3.87.34 0 .72.07 1.13.19v5.03h-1.85l-.02-.31a9.55 9.55 0 0 0-.32-1.88c-.1-.2-.35-.3-.77-.3-1.66 0-3.02.9-4.09 2.69l-.01.02ZM97.6 9.38v14c0 1.53.12 2.45.37 2.73.24.3 1.05.49 2.42.57l.32.02v1.06h-9.5V26.7l.31-.02c1.36-.08 2.16-.28 2.4-.58.26-.3.39-1.2.39-2.73v-9.61c0-1.52-.13-2.43-.38-2.72-.25-.29-1.05-.5-2.4-.6l-.32-.01V9.37h6.4v.01Zm-3.3-3.32V2.73h3.3v3.33h-3.3Zm22.2 21.71v-3.46a8.93 8.93 0 0 1-2.9 2.9c-1.09.65-2.3.98-3.66.98-1.56 0-2.8-.53-3.68-1.57-.9-1.04-1.35-2.47-1.35-4.28v-8.57c0-1.52-.13-2.42-.38-2.71-.25-.3-1.05-.5-2.4-.6l-.32-.01V9.38h6.4V21.8c0 1.41.25 2.47.75 3.18.5.7 1.24 1.06 2.23 1.06.92 0 1.82-.24 2.7-.72a9.57 9.57 0 0 0 2.6-2.13v-9.42c-.08-1.68-.21-2.62-.39-2.82-.17-.22-.98-.39-2.42-.48l-.3-.02V9.4h6.4v13.99c.07 1.68.2 2.62.38 2.84.18.2.98.37 2.4.46l.33.02v1.06h-6.4v.01Zm9-.97v-4.66h1.86l.03.32c.15 1.7.26 2.64.33 2.86.07.23.36.5.88.85 1 .65 2.13.98 3.36.98 1 0 1.82-.3 2.47-.92.64-.62.97-1.41.97-2.4a3.1 3.1 0 0 0-.64-2.05 6.1 6.1 0 0 0-2.29-1.39l-1.7-.66a10.47 10.47 0 0 1-3.95-2.4 4.56 4.56 0 0 1-1.22-3.22c0-1.49.6-2.72 1.78-3.69a6.87 6.87 0 0 1 4.5-1.46c1.83 0 3.62.35 5.53 1.06v4.38h-1.85v-.3a14.5 14.5 0 0 0-.27-2.3 1.8 1.8 0 0 0-.54-.94 4.12 4.12 0 0 0-2.64-.86c-.97 0-1.79.31-2.43.94a3.16 3.16 0 0 0-.97 2.38c0 .79.27 1.41.79 1.89.51.48 1.55 1.04 3.12 1.68l1.53.65c1.7.7 2.87 1.42 3.54 2.16.66.76.99 1.73.99 2.92 0 1.63-.64 2.97-1.94 4a7.82 7.82 0 0 1-5.03 1.54 14.4 14.4 0 0 1-6.2-1.37v.01Zm28.7-11.32v7.9c0 1.52.12 2.43.36 2.73.25.3 1.05.49 2.41.58l.32.02v1.06h-9.72v-1.06l.32-.02c1.35-.08 2.16-.28 2.4-.58.26-.3.39-1.21.39-2.73V7.12c0-1.52-.13-2.43-.38-2.73-.25-.29-1.05-.48-2.41-.57l-.32-.03V2.73h9.72v1.06l-.31.03c-1.37.09-2.17.28-2.42.57-.25.29-.37 1.2-.37 2.73v6.91H166V7.12c0-1.52-.14-2.43-.39-2.73-.25-.29-1.07-.48-2.42-.57l-.3-.03V2.73h9.73v1.06l-.32.03c-1.36.09-2.17.28-2.42.57-.25.29-.38 1.2-.38 2.73v16.26c0 1.52.13 2.43.38 2.73.24.3 1.05.49 2.42.58l.32.02v1.06h-9.73v-1.06l.3-.02c1.38-.08 2.19-.28 2.43-.57.24-.3.37-1.2.37-2.73v-7.9H154.2Zm34.52 11.46c-2.1.83-4.01 1.25-5.74 1.25a8.4 8.4 0 0 1-6.5-2.73c-1.67-1.82-2.51-4.18-2.51-7.08 0-2.75.75-5.01 2.24-6.77a7.24 7.24 0 0 1 5.77-2.64c2.17 0 3.84.74 5 2.21 1.17 1.48 1.75 3.59 1.75 6.33v.32h-11.11c0 2.86.5 5 1.48 6.47a4.95 4.95 0 0 0 4.4 2.18c2.04 0 3.79-.42 5.22-1.24v1.7ZM177.7 16.79h7.54l.01-.75c0-2.13-.27-3.67-.82-4.62-.55-.95-1.44-1.42-2.68-1.42-1.25 0-2.23.62-2.96 1.85a9.68 9.68 0 0 0-1.1 4.94Zm24.66 8.43c-1.96 1.97-3.92 2.96-5.83 2.96-1.54 0-2.83-.5-3.85-1.49a4.92 4.92 0 0 1-1.55-3.72 5.2 5.2 0 0 1 2.02-4.24c1.53-1.24 4.12-1.86 7.78-1.86h.69v-2.29c0-2.9-1.1-4.35-3.28-4.35a4.2 4.2 0 0 0-2.7.95c-.46.38-.75 1.16-.88 2.34v.32h-2.26v-3.36a16.24 16.24 0 0 1 6.47-1.53c3.96 0 5.93 1.84 5.93 5.5v8.2c0 1.46.13 2.49.38 3.1.25.59.7.88 1.31.88.22 0 .52-.05.9-.14l.1 1.26c-.8.28-1.51.42-2.13.42-1.63 0-2.65-.99-3.09-2.96v.01Zm-.75-.36v-6.94h-.77c-1.94 0-3.46.4-4.56 1.22a3.94 3.94 0 0 0-1.64 3.36c0 1.06.34 1.94 1.02 2.64.68.7 1.53 1.05 2.56 1.05.96 0 2.1-.44 3.4-1.34h-.01Zm13.3-23.82v22.34c0 1.53.13 2.45.37 2.73.24.3 1.05.49 2.42.57l.31.02v1.06h-9.5V26.7l.32-.02c1.36-.08 2.16-.28 2.41-.58.26-.3.38-1.2.38-2.73V5.44c0-1.52-.12-2.43-.38-2.73-.25-.3-1.05-.5-2.41-.59l-.32-.01V1.04h6.4Zm14.63 26.61c-.84.35-1.64.53-2.4.53-1.93 0-3.33-.5-4.23-1.47-.89-.99-1.32-2.55-1.32-4.69V10.76h-2.68V9.38h2.68V6.06l3.28-.84v4.16h5.07v1.37h-5.07v11.7c0 1.58.21 2.7.63 3.36.41.67 1.11 1 2.11 1a4.9 4.9 0 0 0 1.92-.53v1.37Zm7.76-14.82a8.83 8.83 0 0 1 2.9-2.9 7.17 7.17 0 0 1 3.68-.96c1.56 0 2.79.52 3.69 1.55.88 1.05 1.32 2.47 1.32 4.3v8.56c.07 1.68.2 2.62.38 2.84.18.2.99.37 2.42.46l.3.02v1.06h-9.5V26.7l.3-.02c1.43-.1 2.24-.25 2.41-.46.18-.22.31-1.16.4-2.84v-8.04c0-1.58-.22-2.69-.62-3.3-.41-.62-1.14-.92-2.19-.92a5.6 5.6 0 0 0-2.49.7c-.92.47-1.92 1.18-3 2.12v9.44c0 1.53.13 2.45.36 2.73.25.3 1.05.49 2.42.57l.32.02v1.06h-9.5V26.7l.32-.02c1.35-.08 2.15-.28 2.41-.58.26-.3.38-1.2.38-2.73V5.44c0-1.52-.12-2.43-.38-2.73-.25-.3-1.05-.5-2.4-.59l-.33-.01V1.04h6.4v11.8ZM38.38 49.19v-8.9h3.44c1.8 0 2.92 1.11 2.92 2.7s-1.17 2.7-2.93 2.7h-2.05v3.5h-1.38Zm1.37-7.75v3.11h1.9c1.06 0 1.7-.64 1.7-1.56s-.64-1.55-1.7-1.55h-1.9Zm5.89 6.13c0-1.1.58-1.73 2.31-2.03l1.86-.34v-.27c0-.81-.53-1.4-1.4-1.4-.86 0-1.28.5-1.5 1.23l-1.16-.26c.25-1.1 1.16-2.05 2.74-2.05 1.7 0 2.62 1.02 2.62 2.47v4.28h-1.27v-.83c-.56.57-1.35.97-2.18.97-1.24 0-2.03-.75-2.03-1.76l.01-.01Zm2.34.74c.74 0 1.34-.35 1.83-.89V46.1l-1.27.25c-1.27.26-1.65.52-1.65 1.1 0 .53.42.87 1.09.87Zm4.95-5.75h1.28l.02 1.07a2.48 2.48 0 0 1 2.46-1.2l.05 1.23c-1.1-.14-1.95.19-2.51 1.12v4.42h-1.3v-6.64Zm9.37 6.4c-.4.2-.94.34-1.56.34-1.23 0-2.03-.61-2.03-1.95v-3.7h-1.25v-1.1h1.25V40.7H60v1.87h2.07v1.1H60v3.45c0 .74.43 1.03 1.02 1.03.34 0 .61-.05.97-.22l.3 1.05v-.01Zm6.59-6.52c1.86 0 3.27 1.43 3.27 3.46 0 2.03-1.4 3.44-3.27 3.44s-3.27-1.45-3.27-3.44c0-1.98 1.42-3.46 3.27-3.46Zm0 5.76c1.17 0 2-.94 2-2.3 0-1.36-.83-2.32-2-2.32s-1.98.94-1.98 2.32c0 1.39.83 2.3 1.98 2.3Zm8.46-4.55h-2v5.54h-1.3v-5.54h-1.24v-1.1h1.24v-.86c0-1.33.81-2.12 2.11-2.12.64 0 1.16.18 1.5.41l-.48.97a1.74 1.74 0 0 0-.9-.25c-.59 0-.94.33-.94.95v.9h2v1.1Zm12.23 1.1c0 2.68-1.95 4.58-4.36 4.58s-4.36-1.9-4.36-4.58c0-2.69 1.95-4.59 4.36-4.59s4.36 1.9 4.36 4.59Zm-1.4 0c0-1.95-1.27-3.34-2.96-3.34-1.7 0-2.97 1.4-2.97 3.34 0 1.93 1.29 3.33 2.97 3.33 1.68 0 2.97-1.4 2.97-3.33Zm3-2.19h1.27v.72a2.6 2.6 0 0 1 1.96-.83c1.75 0 3.07 1.45 3.07 3.44 0 2-1.35 3.43-3.12 3.44-.74 0-1.39-.25-1.88-.74V52h-1.3v-9.44Zm1.3 1.83v2.96a2.1 2.1 0 0 0 1.68.82c1.2 0 2.03-.95 2.03-2.28 0-1.34-.84-2.31-2.03-2.31-.67 0-1.24.28-1.68.81Zm10.51 4.57c-.4.2-.95.34-1.56.34-1.24 0-2.03-.61-2.03-1.95v-3.7h-1.25v-1.1h1.25V40.7h1.3v1.87h2.07v1.1h-2.08v3.45c0 .74.43 1.03 1.02 1.03.33 0 .61-.05.97-.22l.3 1.05v-.01Zm.95-2.05v-4.35h1.3v4.08c0 1 .59 1.54 1.42 1.54.54 0 1.14-.21 1.67-.74v-4.9h1.31v6.64h-1.27l-.02-.69c-.53.54-1.26.84-2.05.84-1.46 0-2.36-1.02-2.36-2.43v.01Zm7.55-4.35h1.28l.02.75c.5-.54 1.18-.87 2-.87.93 0 1.63.43 2 1.1a2.89 2.89 0 0 1 2.3-1.1c1.44 0 2.32 1 2.32 2.4v4.36h-1.3v-4.05c0-1.02-.56-1.55-1.37-1.55-.64 0-1.2.32-1.67.84.02.13.03.27.03.4v4.37h-1.3v-4.05c0-1.02-.58-1.55-1.39-1.55-.6 0-1.16.29-1.63.79v4.81h-1.3v-6.65Zm11.37-1.4a1.47 1.47 0 1 1 2.94 0 1.47 1.47 0 1 1-2.94-.01Zm2.61 0c0-.7-.49-1.2-1.14-1.2-.64 0-1.12.5-1.12 1.2s.49 1.18 1.13 1.18c.63 0 1.13-.49 1.13-1.18Zm-1.66-.71h.63c.26 0 .43.15.43.42 0 .16-.09.3-.23.38l.34.6h-.36l-.3-.53h-.2v.53h-.32v-1.4Zm.32.25v.37h.22c.15 0 .2-.08.2-.18 0-.1-.05-.19-.18-.19h-.24Z"/>
  </g>
  <defs>
    <clipPath id="a">
      <path fill="#fff" d="M0 0h251.99v52H0z"/>
    </clipPath>
  </defs>
</svg>