<svg xmlns="http://www.w3.org/2000/svg" fill="none" viewBox="0 0 25 25">
  <path fill="#3C3839" fill-rule="evenodd" d="M21.79 3.24a7.67 7.67 0 0 1 .85 9.76 7.6 7.6 0 0 1-10.57 10.62 7.58 7.58 0 0 1-9.7-.86A7.67 7.67 0 0 1 1.5 13a7.6 7.6 0 0 1 .85-9.76 7.54 7.54 0 0 1 9.72-.87 7.58 7.58 0 0 1 9.7.87Zm-.7 14.13a4.7 4.7 0 0 0-.51-2.12l-6.27 6.3a4.66 4.66 0 0 0 6.79-4.18Zm0-8.73a4.66 4.66 0 0 0-6.78-4.18l6.26 6.3c.34-.67.52-1.4.52-2.12ZM4.42 20.69a4.7 4.7 0 0 1-.85-5.44l2.6 2.6.01.02 3.66 3.67a4.65 4.65 0 0 1-5.42-.85Zm0-15.38a4.68 4.68 0 0 0-.85 5.43l6.27-6.3a4.63 4.63 0 0 0-5.41.86Zm7.66 14.34L5.46 13l6.61-6.65L18.69 13l-6.61 6.65Z" clip-rule="evenodd"/>
</svg>