<svg xmlns="http://www.w3.org/2000/svg" fill="none" viewBox="0 0 252 32">
  <path fill="#fff" fill-rule="evenodd" d="M28.87 3A10.23 10.23 0 0 1 30 16a10.2 10.2 0 0 1 1.83 5.83 10.13 10.13 0 0 1-15.93 8.34 10.11 10.11 0 0 1-12.94-1.15 10.23 10.23 0 0 1-1.14-13.01 10.15 10.15 0 0 1 14.1-14.17 10.1 10.1 0 0 1 12.94 1.15Zm-.92 18.83c0-1-.26-1.95-.7-2.82l-8.35 8.4a6.21 6.21 0 0 0 9.05-5.58Zm0-11.64a6.2 6.2 0 0 0-9.04-5.57L27.24 13c.44-.89.7-1.85.7-2.82ZM5.72 26.25a6.26 6.26 0 0 1-1.13-7.24l3.45 3.46v.01l.02.02h.01l4.87 4.9a6.2 6.2 0 0 1-7.22-1.15Zm0-20.5A6.24 6.24 0 0 0 4.58 13l8.36-8.4a6.18 6.18 0 0 0-7.22 1.14Zm10.2 19.12L7.1 16l8.81-8.86L24.74 16l-8.82 8.86Zm27.83-1.61 1.42-3.3H55.8l1.38 3.3c.47 1.1.7 1.98.7 2.64 0 .45-.78.67-2.34.67h-.3v1.06h9.2v-1.06l-.4-.02c-.8-.04-1.35-.2-1.63-.49-.28-.28-.76-1.18-1.44-2.68L52.29 2.4h-1.15l-8.75 20.86A18.14 18.14 0 0 1 41 26.2c-.18.2-.75.32-1.71.36l-.35.02v1.06h6.43v-1.06h-.27c-1.44 0-2.16-.23-2.16-.7 0-.44.28-1.3.82-2.61Zm11.46-4.68h-9.49L50.5 7.24l4.71 11.34Z" clip-rule="evenodd"/>
  <path fill="#fff" d="M74.12 27.51c-.83.35-1.63.53-2.39.53-1.93 0-3.34-.5-4.22-1.46-.9-.98-1.34-2.53-1.34-4.67v-11.2H63.5V9.33h2.67v-3.3l3.3-.83v4.13h5.07v1.38h-5.07v11.63c0 1.58.2 2.7.62 3.35.41.67 1.12 1 2.12 1 .52 0 1.16-.18 1.91-.53v1.35Zm8.73-13.19v8.94c0 1.51.13 2.42.4 2.72.26.3 1.06.5 2.4.57l.72.02v1.06h-9.92v-1.06l.32-.02c1.36-.08 2.16-.28 2.41-.58.25-.3.38-1.2.38-2.7v-9.58c0-1.5-.13-2.41-.38-2.7-.25-.29-1.05-.49-2.4-.59l-.33-.01V9.33h6.4v3.44c1.51-2.56 3.49-3.85 5.93-3.85a4 4 0 0 1 1.12.19v5h-1.85l-.01-.3a9.05 9.05 0 0 0-.33-1.87c-.1-.2-.35-.3-.77-.3-1.66 0-3.02.9-4.09 2.68Z"/>
  <path fill="#fff" fill-rule="evenodd" d="M97.6 23.26V9.33h-6.4v1.06l.33.01c1.35.1 2.15.3 2.4.6.26.28.38 1.19.38 2.7v9.56c0 1.52-.12 2.42-.38 2.71-.25.3-1.05.5-2.4.58l-.32.02v1.06h9.5v-1.06l-.32-.02c-1.37-.08-2.17-.27-2.42-.57-.24-.29-.36-1.2-.36-2.72ZM94.32 6.03V2.72h3.3v3.3h-3.3Z" clip-rule="evenodd"/>
  <path fill="#fff" d="M116.5 27.63v-3.45a8.98 8.98 0 0 1-2.9 2.89 7.04 7.04 0 0 1-3.66.97 4.6 4.6 0 0 1-3.68-1.57c-.9-1.03-1.35-2.45-1.35-4.26V13.7c0-1.51-.12-2.42-.37-2.7-.26-.3-1.06-.5-2.41-.6l-.32-.01V9.33h6.4v12.35c0 1.4.25 2.46.75 3.16.49.7 1.24 1.06 2.23 1.06.92 0 1.82-.24 2.7-.71a9.7 9.7 0 0 0 2.6-2.12V13.7c-.07-1.67-.2-2.62-.38-2.82-.18-.22-.98-.38-2.42-.48l-.3-.01V9.33h6.4v13.93c.07 1.67.2 2.61.38 2.83.18.2.98.36 2.4.46l.33.02v1.06h-6.4Zm9-.96v-4.65h1.86l.03.32c.15 1.68.26 2.63.34 2.85.07.22.36.5.87.84 1 .65 2.13.97 3.37.97 1 0 1.82-.3 2.47-.91.64-.62.96-1.4.96-2.38 0-.85-.22-1.53-.64-2.04a6.1 6.1 0 0 0-2.29-1.38l-1.7-.66c-1.82-.7-3.14-1.5-3.95-2.39a4.52 4.52 0 0 1-1.22-3.2c0-1.48.59-2.7 1.77-3.67a6.87 6.87 0 0 1 4.5-1.45c1.79 0 3.62.35 5.53 1.05v4.36h-1.85v-.3a14 14 0 0 0-.27-2.28c-.11-.42-.3-.73-.54-.94a4.16 4.16 0 0 0-2.64-.86c-.98 0-1.79.32-2.43.95a3.14 3.14 0 0 0-.96 2.36c0 .79.25 1.41.78 1.88.51.48 1.55 1.04 3.12 1.68l1.53.64c1.7.7 2.87 1.42 3.54 2.16.66.75.99 1.71.99 2.9 0 1.62-.64 2.95-1.93 3.98a7.85 7.85 0 0 1-5.04 1.54c-2.18 0-4.24-.46-6.2-1.37Zm28.69-11.27v7.86c0 1.51.12 2.42.37 2.71.24.3 1.05.5 2.41.58l.33.02v1.06h-9.73v-1.06l.31-.02c1.36-.08 2.16-.28 2.41-.58.26-.3.38-1.2.38-2.7V7.06c0-1.5-.12-2.4-.38-2.7-.25-.29-1.05-.48-2.4-.57l-.32-.03V2.72h9.73v1.05l-.33.03c-1.36.1-2.17.28-2.4.57-.26.3-.38 1.2-.38 2.7v6.89h11.79V7.08c0-1.52-.13-2.42-.38-2.71-.25-.29-1.07-.48-2.42-.57l-.31-.03V2.72h9.73v1.05l-.32.03c-1.36.1-2.17.28-2.42.57-.25.3-.37 1.2-.37 2.7v16.2c0 1.5.12 2.4.37 2.7.25.3 1.06.5 2.42.58l.32.02v1.06h-9.73v-1.06l.3-.02c1.38-.08 2.19-.27 2.44-.57.24-.29.37-1.2.37-2.72v-7.85h-11.8Z"/>
  <path fill="#fff" fill-rule="evenodd" d="M182.98 28.04c1.73 0 3.64-.41 5.74-1.24v-1.7a10.38 10.38 0 0 1-5.23 1.24 4.97 4.97 0 0 1-4.4-2.17c-.99-1.45-1.48-3.59-1.48-6.44h11.11v-.31c0-2.73-.58-4.83-1.75-6.3-1.17-1.47-2.83-2.2-5-2.2-2.34 0-4.27.88-5.77 2.63s-2.24 4-2.24 6.73c0 2.9.83 5.24 2.5 7.05a8.47 8.47 0 0 0 6.52 2.7Zm2.24-11.34h-7.54c0-2.05.37-3.69 1.1-4.91.73-1.23 1.72-1.84 2.96-1.84s2.13.48 2.68 1.42c.55.94.82 2.47.82 4.6l-.02.73Zm11.31 11.34c1.92 0 3.87-.98 5.83-2.94.44 1.96 1.47 2.94 3.09 2.94a6.5 6.5 0 0 0 2.13-.42l-.1-1.25c-.37.1-.67.14-.9.14-.61 0-1.06-.3-1.3-.89a8.73 8.73 0 0 1-.38-3.08v-8.15c0-3.65-1.98-5.47-5.94-5.47-1.99 0-4.14.51-6.47 1.52v3.35h2.25l.01-.32c.13-1.17.42-1.95.88-2.33a4.23 4.23 0 0 1 2.7-.94c2.18 0 3.27 1.44 3.27 4.33v2.27h-.68c-3.66 0-6.25.62-7.78 1.85a5.15 5.15 0 0 0-2.02 4.22 4.9 4.9 0 0 0 1.55 3.7 5.35 5.35 0 0 0 3.86 1.47Zm5.07-10.21v6.9c-1.3.9-2.44 1.33-3.4 1.33a3.42 3.42 0 0 1-2.55-1.04 3.6 3.6 0 0 1-1.02-2.63c0-1.42.55-2.53 1.64-3.34 1.1-.81 2.62-1.22 4.56-1.22h.77Z" clip-rule="evenodd"/>
  <path fill="#fff" d="M214.91 1.04v22.22c0 1.53.13 2.43.37 2.72.25.3 1.05.49 2.43.57l.31.02v1.06h-9.5v-1.06l.31-.02c1.36-.08 2.16-.28 2.41-.58.26-.3.38-1.2.38-2.7V5.4c0-1.5-.12-2.41-.38-2.7-.25-.3-1.05-.5-2.4-.59l-.32-.01V1.04h6.4Zm14.63 26.47c-.84.35-1.64.53-2.4.53-1.93 0-3.34-.5-4.22-1.46-.9-.98-1.33-2.53-1.33-4.67v-11.2h-2.68V9.33h2.68v-3.3l3.29-.83v4.13h5.07v1.38h-5.07v11.63c0 1.58.2 2.7.62 3.35.41.67 1.12 1 2.12 1 .53 0 1.16-.18 1.92-.53v1.35Zm7.77-14.74a8.86 8.86 0 0 1 2.9-2.89 7.17 7.17 0 0 1 3.67-.96c1.56 0 2.79.52 3.69 1.55.88 1.04 1.32 2.46 1.32 4.26v8.53c.08 1.67.2 2.61.39 2.83.17.2.98.36 2.41.46l.3.02v1.06h-9.5v-1.06l.3-.02c1.44-.1 2.24-.25 2.42-.46.18-.22.3-1.16.39-2.83v-8c0-1.57-.2-2.67-.62-3.28-.4-.61-1.13-.92-2.18-.92a5.7 5.7 0 0 0-2.49.7 15.2 15.2 0 0 0-3 2.12v9.38c0 1.53.12 2.43.37 2.72.24.3 1.05.49 2.42.57l.31.02v1.06h-9.5v-1.06l.32-.02c1.36-.08 2.16-.28 2.41-.58.25-.3.38-1.2.38-2.7V5.4c0-1.5-.13-2.41-.38-2.7-.25-.3-1.05-.5-2.4-.59l-.33-.01V1.04h6.4v11.73Z"/>
</svg>