<?xml version="1.0" encoding="utf-8"?>
<!-- Generated by IcoMoon.io -->
<!DOCTYPE svg PUBLIC "-//W3C//DTD SVG 1.1//EN" "http://www.w3.org/Graphics/SVG/1.1/DTD/svg11.dtd">
<svg version="1.1" xmlns="http://www.w3.org/2000/svg" xmlns:xlink="http://www.w3.org/1999/xlink" width="120" height="24" viewBox="0 0 120 24">
<path fill="#494745" d="M0 0l12.566 23.464 5.36-10.124-7.027-13.34h-10.898z"></path>
<path fill="#7eba3f" d="M24.983 0h-11.107l5.538 10.511 5.568-10.511z"></path>
<path fill="#494745" d="M38.323 8.486l4.526 12 4.496-12h2.501l-5.955 14.978h-2.025l-6.045-14.978h2.501z"></path>
<path fill="#494745" d="M68.248 21.38v2.084h-10.273v-14.978h10.065v2.084h-7.712v4.258h6.67v1.965h-6.67v4.586h7.921z"></path>
<path fill="#494745" d="M77.092 23.464v-14.978h2.352v12.893h8.040v2.084h-10.392z"></path>
<path fill="#494745" d="M95.851 23.464v-14.948h2.352v14.948h-2.352z"></path>
<path fill="#494745" d="M107.911 23.464v-14.978h6.521c0.685 0 1.31 0.149 1.876 0.417s1.072 0.655 1.459 1.102c0.417 0.447 0.715 0.983 0.953 1.548 0.238 0.596 0.357 1.191 0.357 1.787 0 0.506-0.060 0.983-0.208 1.459s-0.328 0.893-0.596 1.28c-0.268 0.387-0.566 0.744-0.923 1.012-0.357 0.298-0.774 0.506-1.191 0.655l3.573 5.687h-2.68l-3.275-5.211h-3.454v5.211h-2.412v0.030zM110.293 16.169h4.139c0.328 0 0.655-0.089 0.923-0.208 0.268-0.149 0.506-0.357 0.715-0.625s0.357-0.566 0.476-0.893c0.119-0.328 0.179-0.685 0.179-1.072s-0.060-0.744-0.208-1.072c-0.119-0.328-0.298-0.625-0.536-0.893-0.208-0.238-0.476-0.447-0.744-0.596-0.298-0.149-0.596-0.208-0.893-0.208h-4.020v5.568h-0.030z"></path>
</svg>
