<?xml version="1.0" encoding="utf-8"?>
<!-- Generated by IcoMoon.io -->
<!DOCTYPE svg PUBLIC "-//W3C//DTD SVG 1.1//EN" "http://www.w3.org/Graphics/SVG/1.1/DTD/svg11.dtd">
<svg version="1.1" xmlns="http://www.w3.org/2000/svg" xmlns:xlink="http://www.w3.org/1999/xlink" width="24" height="24" viewBox="0 0 24 24">
<path fill="currentColor" d="M12 2.001c-5.522 0-9.999 4.477-9.999 9.999s4.477 9.999 9.999 9.999 9.999-4.477 9.999-9.999-4.477-9.999-9.999-9.999zM8.25 17c-0.69 0-1.25-0.56-1.25-1.25s0.56-1.25 1.25-1.25 1.25 0.56 1.25 1.25-0.56 1.25-1.25 1.25zM11.688 17c0-2.584-2.103-4.687-4.687-4.687v-1.875c3.618 0 6.562 2.944 6.562 6.562h-1.875zM15.437 17c0-2.254-0.878-4.372-2.471-5.966s-3.712-2.471-5.966-2.471v-1.875c2.754 0 5.344 1.073 7.292 3.020s3.020 4.537 3.020 7.291h-1.875z"></path>
</svg>
