<svg xmlns="http://www.w3.org/2000/svg" fill="none" viewBox="0 0 24 24">
  <path fill="currentColor" d="M12 6.87a5.12 5.12 0 1 0 0 10.24 5.12 5.12 0 0 0 0-10.24Zm0 8.46a3.34 3.34 0 1 1 .01-6.68 3.34 3.34 0 0 1 0 6.68Zm6.53-8.67a1.2 1.2 0 1 1-2.39 0 1.2 1.2 0 0 1 2.4 0Zm3.4 1.22c-.08-1.6-.44-3.02-1.62-4.2-1.16-1.16-2.58-1.53-4.19-1.6-1.65-.1-6.6-.1-8.24 0-1.6.07-3.02.43-4.2 1.6-1.17 1.17-1.53 2.6-1.61 4.2-.1 1.64-.1 6.6 0 8.24.08 1.6.44 3.02 1.62 4.2 1.17 1.16 2.58 1.53 4.19 1.6 1.65.1 6.6.1 8.24 0 1.6-.07 3.03-.43 4.2-1.6 1.16-1.18 1.53-2.6 1.61-4.2.1-1.65.1-6.6 0-8.24ZM19.8 17.89a3.37 3.37 0 0 1-1.9 1.9c-1.32.53-4.44.4-5.9.4-1.45 0-4.58.12-5.9-.4a3.37 3.37 0 0 1-1.9-1.9c-.51-1.31-.4-4.44-.4-5.89 0-1.45-.11-4.58.4-5.9a3.37 3.37 0 0 1 1.9-1.9c1.32-.52 4.45-.4 5.9-.4 1.46 0 4.58-.11 5.9.4a3.37 3.37 0 0 1 1.9 1.9c.52 1.32.4 4.45.4 5.9 0 1.45.12 4.58-.4 5.9Z"/>
</svg>