<svg xmlns="http://www.w3.org/2000/svg" viewBox="0 0 24 24"><path d="M24.257 6.483C25.419 8.47 26 10.641 26 13s-.581 4.534-1.743 6.525a12.942 12.942 0 0 1-4.732 4.732C17.534 25.419 15.36 26 13 26c-1.253 0-2.483-.18-3.69-.542.666-1.05 1.106-1.974 1.32-2.776.102-.383.406-1.574.914-3.571.226.44.638.82 1.236 1.142a4.012 4.012 0 0 0 1.93.483c1.365 0 2.584-.387 3.656-1.16 1.072-.773 1.901-1.836 2.488-3.19.587-1.355.88-2.878.88-4.57a6.966 6.966 0 0 0-1.007-3.623c-.671-1.129-1.645-2.048-2.92-2.76-1.275-.71-2.714-1.066-4.316-1.066-1.185 0-2.29.164-3.318.491-1.027.327-1.898.762-2.615 1.303a8.914 8.914 0 0 0-1.845 1.87 7.74 7.74 0 0 0-1.134 2.193 7.387 7.387 0 0 0-.364 2.268c0 1.174.226 2.206.677 3.098.451.891 1.111 1.518 1.98 1.879.339.135.553.022.644-.339.022-.079.067-.254.135-.525.068-.27.113-.44.135-.507.068-.26.006-.503-.186-.728-.575-.689-.863-1.54-.863-2.556 0-1.704.59-3.168 1.769-4.393 1.18-1.224 2.722-1.836 4.63-1.836 1.703 0 3.032.462 3.986 1.388.953.925 1.43 2.127 1.43 3.605 0 1.919-.386 3.55-1.16 4.892-.772 1.343-1.763 2.014-2.97 2.014-.688 0-1.241-.245-1.659-.736-.418-.49-.547-1.08-.39-1.769.091-.395.24-.922.45-1.583.208-.66.377-1.24.507-1.743.13-.502.195-.928.195-1.278 0-.564-.153-1.033-.457-1.405-.305-.372-.74-.559-1.304-.559-.7 0-1.292.322-1.777.965-.485.644-.728 1.445-.728 2.404 0 .824.141 1.512.423 2.065l-1.675 7.076c-.192.79-.266 1.788-.22 2.996-2.325-1.027-4.204-2.613-5.637-4.757C.717 18.016 0 15.63 0 13c0-2.359.581-4.534 1.743-6.525a12.942 12.942 0 0 1 4.732-4.732C8.466.581 10.64 0 13 0s4.534.581 6.525 1.743a12.922 12.922 0 0 1 4.732 4.74z" fill="currentColor" fill-rule="evenodd"/></svg>
