<?xml version="1.0" encoding="utf-8"?>
<!-- Generated by IcoMoon.io -->
<!DOCTYPE svg PUBLIC "-//W3C//DTD SVG 1.1//EN" "http://www.w3.org/Graphics/SVG/1.1/DTD/svg11.dtd">
<svg version="1.1" xmlns="http://www.w3.org/2000/svg" xmlns:xlink="http://www.w3.org/1999/xlink" width="24" height="24" viewBox="0 0 24 24">
<path fill="#424242" d="M12 1.981c-5.533 0-10.019 4.486-10.019 10.019s4.486 10.019 10.019 10.019 10.019-4.486 10.019-10.019-4.486-10.019-10.019-10.019zM16.076 10.188c0.004 0.085 0.005 0.171 0.005 0.255 0 2.609-1.984 5.616-5.614 5.616-1.115 0-2.152-0.325-3.025-0.887 0.153 0.019 0.311 0.026 0.471 0.026 0.925 0 1.775-0.314 2.451-0.845-0.863-0.017-1.592-0.586-1.843-1.369 0.12 0.022 0.244 0.035 0.371 0.035 0.179 0 0.355-0.024 0.52-0.069-0.903-0.182-1.583-0.979-1.583-1.935v-0.024c0.266 0.147 0.571 0.237 0.894 0.247-0.531-0.355-0.878-0.958-0.878-1.644 0-0.361 0.097-0.701 0.267-0.992 0.974 1.194 2.427 1.979 4.067 2.063-0.035-0.145-0.051-0.296-0.051-0.45 0-1.089 0.883-1.973 1.973-1.973 0.567 0 1.080 0.24 1.44 0.624 0.45-0.090 0.871-0.252 1.252-0.479-0.147 0.46-0.459 0.847-0.867 1.092 0.4-0.049 0.779-0.155 1.133-0.312-0.264 0.396-0.599 0.744-0.985 1.022z"></path>
</svg>
