<?xml version="1.0" encoding="utf-8"?>
<!-- Generated by IcoMoon.io -->
<!DOCTYPE svg PUBLIC "-//W3C//DTD SVG 1.1//EN" "http://www.w3.org/Graphics/SVG/1.1/DTD/svg11.dtd">
<svg version="1.1" xmlns="http://www.w3.org/2000/svg" xmlns:xlink="http://www.w3.org/1999/xlink" width="24" height="24" viewBox="0 0 24 24">
<path fill="#424242" d="M13.673 11.826l-2.344-1.094c-0.205-0.095-0.373 0.012-0.373 0.238v2.060c0 0.226 0.168 0.333 0.373 0.238l2.343-1.094c0.206-0.096 0.206-0.253 0.001-0.349zM12 1.981c-5.534 0-10.019 4.486-10.019 10.019s4.486 10.019 10.019 10.019 10.019-4.486 10.019-10.019-4.486-10.019-10.019-10.019zM12 16.070c-5.129 0-5.218-0.462-5.218-4.070s0.090-4.070 5.218-4.070 5.218 0.462 5.218 4.070-0.090 4.070-5.218 4.070z"></path>
</svg>
