<svg xmlns="http://www.w3.org/2000/svg" fill="none" viewBox="0 0 194 40">
  <g clip-path="url(#a)">
    <path fill="#0083BE" d="M23.08 12.37a7.94 7.94 0 0 0-.87-10.06 7.75 7.75 0 0 0-9.96-.89 7.67 7.67 0 0 0-9.97.89 7.88 7.88 0 0 0-.87 10.06 7.94 7.94 0 0 0 .88 10.07 7.74 7.74 0 0 0 9.95.89 7.73 7.73 0 0 0 9.96-.89 7.84 7.84 0 0 0 2.29-5.57 7.9 7.9 0 0 0-1.41-4.5Zm-10.83 6.86-6.8-6.86 6.8-6.86 6.79 6.86-6.79 6.86ZM2.99 7.87a4.83 4.83 0 0 1 4.8-4.85c.77 0 1.5.2 2.16.53l-6.42 6.5a4.82 4.82 0 0 1-.54-2.18ZM4.4 20.3a4.85 4.85 0 0 1-.87-5.6l6.42 6.48c-1.8.91-4.04.64-5.55-.88Zm16.57-5.6a4.85 4.85 0 0 1-.87 5.6 4.76 4.76 0 0 1-5.55.89l6.42-6.5ZM20.1 4.45a4.86 4.86 0 0 1 .86 5.6l-6.42-6.48a4.76 4.76 0 0 1 5.55.88Z"/>
    <path fill="#1E1E1E" d="m34.75 15.43-1.1 2.55a6.97 6.97 0 0 0-.62 2.02c0 .37.55.55 1.66.55h.2v.81h-4.94v-.81l.27-.02c.74-.03 1.18-.13 1.32-.28.14-.15.5-.9 1.07-2.27l6.73-16.12h.88l6.69 16.22a9.63 9.63 0 0 0 1.1 2.07c.22.22.64.35 1.26.38l.3.02v.81H42.5v-.81h.24c1.2 0 1.8-.18 1.8-.53 0-.5-.18-1.19-.54-2.04l-1.06-2.56h-8.18v.01Zm.42-1.06h7.3L38.86 5.6l-3.68 8.77Zm21.85 6.9c-.65.27-1.26.4-1.84.4-1.49 0-2.57-.37-3.26-1.12-.68-.76-1.02-1.96-1.02-3.61V8.28h-2.05V7.22h2.05V4.66l2.54-.64v3.2h3.9v1.05h-3.9v9c0 1.21.16 2.07.48 2.58.32.52.86.77 1.63.77.4 0 .9-.14 1.47-.4v1.05Zm6.71-10.2v6.91c0 1.17.1 1.87.3 2.1.2.24.82.39 1.85.45h.56v.83H58.8v-.82l.25-.01c1.04-.07 1.66-.22 1.86-.45.19-.23.29-.93.29-2.1v-7.4c0-1.17-.1-1.87-.3-2.09-.19-.22-.8-.38-1.85-.45l-.25-.02v-.81h4.93v2.65C64.9 7.88 66.42 6.9 68.3 6.9c.25 0 .55.05.86.14v3.87h-1.42l-.01-.24a7.34 7.34 0 0 0-.26-1.44c-.07-.15-.26-.23-.58-.23-1.29 0-2.33.68-3.15 2.06l-.01.02Zm11.35-3.85v10.76c0 1.18.1 1.89.28 2.1.19.23.8.38 1.86.45h.25v.83h-7.31v-.82l.24-.01c1.05-.07 1.66-.22 1.85-.45.2-.23.3-.93.3-2.1v-7.4c0-1.17-.1-1.87-.3-2.09-.19-.22-.8-.38-1.85-.45l-.24-.02v-.81h4.92Zm-2.54-2.56V2.1h2.54v2.56h-2.54Zm17.07 16.7V18.7a6.87 6.87 0 0 1-2.22 2.23 5.4 5.4 0 0 1-2.82.75c-1.2 0-2.15-.4-2.83-1.2-.7-.8-1.04-1.9-1.04-3.3V10.6c0-1.17-.1-1.87-.29-2.1-.2-.22-.8-.37-1.85-.45l-.25-.01v-.82h4.93v9.55c0 1.08.19 1.9.57 2.44.38.54.96.82 1.72.82.7 0 1.4-.18 2.08-.55a7.3 7.3 0 0 0 2-1.64V10.6c-.07-1.3-.16-2.02-.3-2.18-.14-.17-.76-.3-1.86-.37h-.24v-.82h4.93v10.75c.05 1.3.16 2.02.3 2.19.13.16.74.28 1.84.36h.25v.83H89.6Zm6.93-.74v-3.59h1.43l.02.25c.12 1.3.2 2.03.26 2.2.05.17.28.39.67.65.78.5 1.64.76 2.59.76.77 0 1.4-.24 1.9-.72.5-.47.74-1.08.74-1.83 0-.66-.16-1.2-.49-1.58a4.64 4.64 0 0 0-1.76-1.07l-1.3-.51a8.05 8.05 0 0 1-3.04-1.85 3.51 3.51 0 0 1-.94-2.48 3.5 3.5 0 0 1 1.36-2.83 5.29 5.29 0 0 1 3.47-1.13c1.4 0 2.78.27 4.25.82v3.37h-1.42v-.24c-.06-.84-.13-1.43-.21-1.76a1.4 1.4 0 0 0-.41-.72 3.17 3.17 0 0 0-2.03-.67c-.76 0-1.38.24-1.87.72-.5.49-.75 1.1-.75 1.83 0 .61.2 1.1.6 1.46.4.37 1.2.8 2.4 1.3l1.19.49a7.6 7.6 0 0 1 2.72 1.67c.5.58.76 1.32.76 2.24 0 1.26-.5 2.28-1.5 3.07-.99.8-2.28 1.2-3.87 1.2a11 11 0 0 1-4.76-1.07v.02Zm22.07-8.72v6.08c0 1.17.1 1.87.28 2.1.2.24.81.38 1.86.45l.25.02v.81h-7.49v-.81l.25-.02c1.04-.06 1.66-.21 1.85-.45.2-.23.3-.93.3-2.1V5.48c0-1.17-.1-1.87-.3-2.1-.19-.22-.8-.37-1.85-.44l-.25-.03V2.1H121v.81l-.25.03c-1.05.07-1.67.22-1.86.44-.19.22-.28.92-.28 2.1v5.31h9.07V5.47c0-1.16-.1-1.86-.3-2.1-.19-.21-.81-.36-1.86-.43l-.23-.03V2.1h7.48v.81l-.24.03c-1.05.07-1.67.22-1.86.44-.2.22-.29.92-.29 2.1v12.5c0 1.17.1 1.87.29 2.1.18.24.8.38 1.86.45l.24.02v.81h-7.48v-.81l.23-.02c1.06-.06 1.69-.21 1.87-.44.2-.22.29-.92.29-2.1v-6.07h-9.07v-.01Zm26.56 8.82a12.1 12.1 0 0 1-4.41.96c-2.05 0-3.73-.7-5.01-2.1a7.75 7.75 0 0 1-1.93-5.44c0-2.12.58-3.86 1.73-5.21a5.57 5.57 0 0 1 4.44-2.03 4.6 4.6 0 0 1 3.84 1.7c.9 1.14 1.35 2.76 1.35 4.87v.24h-8.55c0 2.2.38 3.86 1.14 4.98a3.8 3.8 0 0 0 3.38 1.68 8 8 0 0 0 4.02-.95v1.3Zm-8.49-7.8h5.8l.02-.58c0-1.64-.22-2.82-.64-3.55-.42-.74-1.1-1.1-2.06-1.1s-1.72.48-2.28 1.42a7.5 7.5 0 0 0-.84 3.8Zm18.98 6.48c-1.5 1.52-3.01 2.28-4.48 2.28a4.1 4.1 0 0 1-2.97-1.15 3.78 3.78 0 0 1-1.19-2.86 4 4 0 0 1 1.56-3.26c1.17-.95 3.16-1.44 5.98-1.44h.53v-1.75c0-2.24-.84-3.35-2.52-3.35-.79 0-1.48.24-2.08.73-.35.3-.58.9-.67 1.8v.25h-1.74V8.06a12.5 12.5 0 0 1 4.97-1.17c3.05 0 4.57 1.4 4.57 4.23v6.3c0 1.13.1 1.92.29 2.38.2.46.53.69 1 .69.18 0 .4-.04.7-.11l.07.96a5 5 0 0 1-1.64.33c-1.24 0-2.03-.76-2.37-2.27Zm-.58-.28v-5.34h-.59a5.8 5.8 0 0 0-3.5.94 3.03 3.03 0 0 0-1.27 2.59c0 .81.27 1.5.79 2.03.52.53 1.18.8 1.97.8.73 0 1.6-.33 2.6-1.03v.01ZM165.31.8v17.18c0 1.18.1 1.89.29 2.1.19.23.8.38 1.86.45h.24v.83h-7.3v-.82l.24-.01c1.05-.07 1.66-.22 1.86-.45.19-.23.29-.93.29-2.1V4.18c0-1.17-.1-1.87-.3-2.1-.19-.22-.8-.37-1.85-.45l-.25-.01V.8h4.93Zm11.26 20.47c-.65.27-1.26.4-1.84.4-1.5 0-2.57-.37-3.26-1.12-.68-.76-1.02-1.96-1.02-3.61V8.28h-2.06V7.22h2.06V4.66l2.53-.64v3.2h3.9v1.05h-3.9v9c0 1.21.16 2.07.48 2.58.32.52.86.77 1.63.77.4 0 .9-.14 1.47-.4v1.05Zm5.97-11.4a6.8 6.8 0 0 1 2.24-2.23 5.52 5.52 0 0 1 2.82-.74c1.2 0 2.14.4 2.84 1.2.68.8 1.01 1.9 1.01 3.3v6.58c.06 1.3.16 2.02.3 2.19.13.16.76.28 1.86.36h.23v.83h-7.31v-.82l.23-.01c1.1-.08 1.72-.2 1.86-.36.13-.17.24-.9.3-2.19V11.8c0-1.22-.16-2.07-.48-2.54-.31-.47-.87-.7-1.68-.7-.57 0-1.2.17-1.91.53-.7.36-1.48.91-2.31 1.64v7.25c0 1.18.1 1.89.28 2.1.19.23.8.38 1.86.45h.25v.83h-7.31v-.82l.24-.01c1.04-.07 1.66-.22 1.86-.45.2-.23.29-.93.29-2.1V4.18c0-1.17-.1-1.87-.3-2.1-.19-.22-.8-.37-1.85-.45l-.24-.01V.8h4.92v9.07Z"/>
    <path fill="#5A5A5A" d="M29.52 37.84V31h2.65c1.39 0 2.25.85 2.25 2.07 0 1.22-.9 2.07-2.25 2.07h-1.58v2.7h-1.07Zm1.06-5.96v2.4h1.46c.82 0 1.3-.5 1.3-1.21 0-.7-.48-1.19-1.3-1.19h-1.46Zm4.52 4.71c0-.84.45-1.33 1.79-1.56l1.43-.26v-.2c0-.63-.41-1.08-1.08-1.08-.66 0-.99.38-1.16.94l-.89-.2c.2-.85.9-1.57 2.11-1.57 1.31 0 2.01.78 2.01 1.9v3.28h-.97v-.63a2.4 2.4 0 0 1-1.68.75c-.95 0-1.56-.58-1.56-1.36v-.01Zm1.8.57a1.9 1.9 0 0 0 1.42-.68v-1.03l-.98.2c-.98.2-1.27.4-1.27.84 0 .41.32.67.84.67Zm3.82-4.42h.98l.01.83a1.9 1.9 0 0 1 1.9-.93l.04.94c-.84-.1-1.5.15-1.94.87v3.4h-1v-5.1Zm7.2 4.92c-.3.16-.72.26-1.2.26-.95 0-1.56-.47-1.56-1.5v-2.84h-.96v-.84h.96V31.3h1v1.44h1.6v.84h-1.6v2.66c0 .57.33.79.78.79.26 0 .47-.04.74-.17l.24.8ZM53 32.64c1.42 0 2.5 1.1 2.5 2.67 0 1.56-1.07 2.65-2.5 2.65-1.44 0-2.52-1.12-2.52-2.65 0-1.53 1.09-2.67 2.51-2.67Zm0 4.44c.9 0 1.53-.73 1.53-1.77 0-1.05-.64-1.8-1.54-1.8-.9.01-1.52.73-1.52 1.8 0 1.06.64 1.77 1.52 1.77Zm6.5-3.5h-1.54v4.26h-1v-4.26h-.95v-.84h.95v-.67c0-1.03.62-1.63 1.63-1.63.49 0 .89.13 1.15.32l-.37.74a1.4 1.4 0 0 0-.7-.2c-.45 0-.72.26-.72.74v.69h1.54v.84Zm9.41.84c0 2.07-1.5 3.53-3.36 3.53-1.85 0-3.35-1.46-3.35-3.53 0-2.06 1.5-3.53 3.35-3.53 1.86 0 3.36 1.47 3.36 3.53Zm-1.07 0c0-1.5-.99-2.57-2.29-2.57s-2.28 1.08-2.28 2.57c0 1.49.99 2.57 2.28 2.57 1.3 0 2.29-1.08 2.29-2.57Zm2.3-1.68h.98v.55a2 2 0 0 1 1.5-.63c1.35 0 2.36 1.1 2.36 2.64s-1.03 2.64-2.4 2.65c-.57 0-1.06-.2-1.45-.57V40h-1v-7.26Zm1 1.4v2.28c.35.43.79.63 1.29.63.92 0 1.56-.73 1.56-1.75 0-1.03-.64-1.78-1.56-1.78-.51 0-.95.22-1.3.63Zm8.08 3.52c-.31.16-.72.26-1.2.26-.95 0-1.56-.47-1.56-1.5v-2.84h-.96v-.84h.96V31.3h1v1.44h1.6v.84h-1.6v2.66c0 .57.32.79.78.79.26 0 .47-.04.74-.17l.24.8Zm.74-1.57v-3.35h1v3.14c0 .77.45 1.18 1.09 1.18.41 0 .88-.16 1.28-.57v-3.76h1.01v5.1h-.98l-.01-.53c-.41.41-.97.65-1.58.65-1.12 0-1.81-.79-1.81-1.87Zm5.8-3.35h.99l.01.58c.39-.42.91-.68 1.55-.68.7 0 1.25.34 1.52.85a2.22 2.22 0 0 1 1.78-.85c1.1 0 1.78.77 1.78 1.85v3.35h-1v-3.11c0-.79-.43-1.2-1.05-1.2-.5 0-.92.25-1.29.66.02.1.02.2.02.3v3.36h-1v-3.12c0-.78-.44-1.18-1.06-1.18-.47 0-.9.22-1.26.6v3.7h-1v-5.1Zm8.75-1.08a1.13 1.13 0 1 1 2.26 0c0 .64-.5 1.15-1.13 1.15-.62 0-1.13-.5-1.13-1.15Zm2 0c0-.53-.37-.92-.87-.92s-.86.38-.86.92c0 .53.37.91.86.91.5 0 .88-.38.88-.91Zm-1.28-.54h.49c.2 0 .34.11.34.32 0 .12-.08.22-.19.29l.27.46h-.28l-.23-.4h-.15v.4h-.25v-1.07Zm.26.2v.27h.16c.11 0 .16-.06.16-.13 0-.09-.05-.15-.14-.15h-.18Z"/>
  </g>
  <defs>
    <clipPath id="a">
      <path fill="#fff" d="M0 0h193.84v40H0z"/>
    </clipPath>
  </defs>
</svg>