<?xml version="1.0" encoding="UTF-8"?><!DOCTYPE svg PUBLIC "-//W3C//DTD SVG 1.1//EN" "http://www.w3.org/Graphics/SVG/1.1/DTD/svg11.dtd"><svg xmlns="http://www.w3.org/2000/svg" xmlns:xlink="http://www.w3.org/1999/xlink"><defs/><symbol id="add_circle" viewBox="0 0 24 24">
<path fill="#424242" d="M17.016 12.984v-1.969h-4.031v-4.031h-1.969v4.031h-4.031v1.969h4.031v4.031h1.969v-4.031h4.031zM12 2.016q4.125 0 7.055 2.93t2.93 7.055-2.93 7.055-7.055 2.93-7.055-2.93-2.93-7.055 2.93-7.055 7.055-2.93z"/>
</symbol><symbol id="arrow-right" viewBox="0 0 14 14"><g stroke="currentColor" stroke-width="1.2" fill="none" fill-rule="evenodd"><path d="M0 7.014h12.793M6.878 1l5.976 5.976-5.976 5.976"/></g></symbol><symbol id="arrow_drop_down" viewBox="0 0 24 24">
<path d="M6.984 9.984h10.031l-5.016 5.016z"/>
</symbol><symbol id="arrow_drop_up" viewBox="0 0 24 24">
<path d="M6.984 14.016l5.016-5.016 5.016 5.016h-10.031z"/>
</symbol><symbol id="check-circle" viewBox="0 0 31 30">
  <g fill="#020202" fill-rule="nonzero">
    <path d="M27.0000003 12.4399997v2.56c-.0030384 5.3136606-3.501247 9.9930932-8.5975769 11.4999188-5.0963298 1.5068256-10.57675059-.5179066-13.46927675-4.9762016-2.89252615-4.4582949-2.50810996-10.28811282.94478294-14.32799302 3.45289289-4.0398802 9.15172611-5.32745623 14.00607101-3.16448657l1.2179043.54266645 1.0853329-2.43580862-1.2179044-.54266645C15.0362453-1.04820089 8.0710047.52550315 3.85080227 5.4631345-.36940016 10.40076586-.83924217 17.5260988 2.69606757 22.975126c3.53530975 5.4490271 10.23360183 7.9236998 16.46244943 6.0820241 6.2288476-1.8416757 10.5044359-7.5609821 10.50815-14.0563881V12.4399997h-2.6666667z"/>
    <path d="M11.00000033 11.7943816l-1.88561808 1.8856181 5.88608935 5.8860893L30.2189515 4.33239066l-1.8865602-1.88467551L14.999529 15.7939103z"/>
  </g>
</symbol><symbol id="check-mark" viewBox="0 0 30 28">
  <g fill-rule="nonzero">
    <path d="M14 14.7810486l-4-4-1.88561808 1.8856181L14 18.5522847 29.2189514 3.33333333l-1.8856181-1.88561808z"/>
  </g>
</symbol><symbol id="check-square" viewBox="0 0 30 28">
  <g fill="#B6B8B7" fill-rule="nonzero">
    <path d="M14 14.7810486l-4-4-1.88561808 1.8856181L14 18.5522847 29.2189514 3.33333333l-1.8856181-1.88561808z"/>
    <path d="M24.6666667 12.6666667v10.6666666c0 .7363797-.5969537 1.3333334-1.3333334 1.3333334H4.66666667c-.73637967 0-1.33333334-.5969537-1.33333334-1.3333334V4.66666667c0-.73637967.59695367-1.33333334 1.33333334-1.33333334H20.6666667V.66666667H4.66666667c-2.209139 0-4 1.790861-4 4V23.3333333c0 2.209139 1.790861 4 4 4H23.3333333c2.209139 0 4-1.790861 4-4V12.6666667h-2.6666666z"/>
  </g>
</symbol><symbol id="chevron-down" viewBox="0 0 24 24"><path fill="currentColor" d="M7.406 7.828L12 12.422l4.594-4.594L18 9.234l-6 6-6-6z"/></symbol><symbol id="chevron-left" viewBox="0 0 24 24">
<path fill="#424242" d="M15.422 16.078l-1.406 1.406-6-6 6-6 1.406 1.406-4.594 4.594z"/>
</symbol><symbol id="chevron-right" viewBox="0 0 24 24"><path fill="#424242" d="M8.578 16.359l4.594-4.594-4.594-4.594 1.406-1.406 6 6-6 6z"/></symbol><symbol id="chevron-up" viewBox="0 0 24 24"><path fill="#424242" d="M7.406 15.422L6 14.016l6-6 6 6-1.406 1.406L12 10.828z"/></symbol><symbol id="close" viewBox="0 0 24 24"><g fill="none" stroke="currentColor" stroke-width="2" stroke-linecap="round" stroke-linejoin="round" class="feather feather-x">
  <line x1="18" y1="6" x2="6" y2="18"/>
  <line x1="6" y1="6" x2="18" y2="18"/>
</g></symbol><symbol id="close_circle" viewBox="0 0 24 24"><path fill="#424242" d="M17.016 15.609L13.407 12l3.609-3.609-1.406-1.406-3.609 3.609-3.609-3.609-1.406 1.406L10.595 12l-3.609 3.609 1.406 1.406 3.609-3.609 3.609 3.609zM12 2.016q4.125 0 7.055 2.93t2.93 7.055-2.93 7.055T12 21.986t-7.055-2.93-2.93-7.055 2.93-7.055T12 2.016z"/></symbol><symbol id="equalizer" viewBox="0 0 32 32">
    <title>equalizer</title>
    <path d="M14 4v-0.5c0-0.825-0.675-1.5-1.5-1.5h-5c-0.825 0-1.5 0.675-1.5 1.5v0.5h-6v4h6v0.5c0 0.825 0.675 1.5 1.5 1.5h5c0.825 0 1.5-0.675 1.5-1.5v-0.5h18v-4h-18zM8 8v-4h4v4h-4zM26 13.5c0-0.825-0.675-1.5-1.5-1.5h-5c-0.825 0-1.5 0.675-1.5 1.5v0.5h-18v4h18v0.5c0 0.825 0.675 1.5 1.5 1.5h5c0.825 0 1.5-0.675 1.5-1.5v-0.5h6v-4h-6v-0.5zM20 18v-4h4v4h-4zM14 23.5c0-0.825-0.675-1.5-1.5-1.5h-5c-0.825 0-1.5 0.675-1.5 1.5v0.5h-6v4h6v0.5c0 0.825 0.675 1.5 1.5 1.5h5c0.825 0 1.5-0.675 1.5-1.5v-0.5h18v-4h-18v-0.5zM8 28v-4h4v4h-4z"/>
</symbol><symbol id="facebook" viewBox="0 0 24 24">
<path fill="#424242" d="M12 1.981c-5.533 0-10.019 4.486-10.019 10.019s4.486 10.019 10.019 10.019 10.019-4.486 10.019-10.019-4.486-10.019-10.019-10.019zM14.373 8.905h-1.506c-0.178 0-0.377 0.235-0.377 0.547v1.087h1.884l-0.285 1.551h-1.599v4.656h-1.778v-4.656h-1.612v-1.551h1.612v-0.912c0-1.309 0.908-2.373 2.154-2.373h1.506v1.65z"/>
</symbol><symbol id="globe" viewBox="0 0 24 24">
<path fill="#424242" d="M17.906 17.391q2.109-2.25 2.109-5.391 0-2.484-1.383-4.5t-3.633-2.906v0.422q0 0.797-0.609 1.383t-1.406 0.586h-1.969v2.016q0 0.422-0.305 0.703t-0.727 0.281h-1.969v2.016h6q0.422 0 0.703 0.281t0.281 0.703v3h0.984q1.406 0 1.922 1.406zM11.016 19.922v-1.922q-0.797 0-1.406-0.609t-0.609-1.406v-0.984l-4.781-4.781q-0.234 0.938-0.234 1.781 0 3.047 2.039 5.297t4.992 2.625zM12 2.016q4.125 0 7.055 2.93t2.93 7.055-2.93 7.055-7.055 2.93-7.055-2.93-2.93-7.055 2.93-7.055 7.055-2.93z"/>
</symbol><symbol id="google" viewBox="0 0 24 24">
<path fill="#424242" d="M12 1.981c-5.533 0-10.019 4.486-10.019 10.019s4.486 10.019 10.019 10.019 10.019-4.486 10.019-10.019-4.486-10.019-10.019-10.019zM11.422 16.301c-0.63 0.306-1.306 0.338-1.569 0.338-0.050 0-0.078 0-0.078 0s-0.024 0-0.057 0c-0.409 0-2.446-0.094-2.446-1.948 0-1.822 2.218-1.966 2.897-1.966h0.017c-0.392-0.524-0.311-1.052-0.311-1.052-0.035 0.002-0.084 0.004-0.146 0.004-0.256 0-0.75-0.041-1.173-0.314-0.52-0.334-0.783-0.903-0.783-1.69 0-2.224 2.428-2.313 2.453-2.316h2.426v0.053c0 0.271-0.487 0.324-0.819 0.37-0.113 0.017-0.339 0.038-0.403 0.071 0.615 0.329 0.714 0.845 0.714 1.612 0 0.875-0.343 1.337-0.705 1.661-0.225 0.202-0.402 0.359-0.402 0.571 0 0.208 0.242 0.419 0.524 0.667 0.46 0.406 1.092 0.958 1.092 1.89 0 0.964-0.414 1.653-1.232 2.047zM16.697 12h-1.566v1.566h-1.044v-1.566h-1.566v-1.044h1.566v-1.566h1.044v1.566h1.566v1.044zM10.146 13.2c-0.054 0-0.109 0.002-0.164 0.006-0.464 0.035-0.891 0.208-1.2 0.49-0.307 0.277-0.464 0.628-0.442 0.982 0.047 0.742 0.844 1.176 1.811 1.107 0.951-0.069 1.586-0.618 1.54-1.36-0.043-0.698-0.651-1.225-1.546-1.225zM11.057 9.166c-0.252-0.887-0.659-1.15-1.292-1.15-0.068 0-0.137 0.010-0.203 0.028-0.275 0.078-0.492 0.307-0.614 0.647-0.124 0.344-0.131 0.704-0.025 1.112 0.193 0.731 0.713 1.262 1.237 1.262 0.069 0 0.137-0.009 0.203-0.028 0.573-0.161 0.932-1.035 0.694-1.872z"/>
</symbol><symbol id="info-circle" viewBox="0 0 512 512"><path d="M224 152c0-13.2 10.8-24 24-24h16c13.2 0 24 10.8 24 24v16c0 13.2-10.8 24-24 24h-16c-13.2 0-24-10.8-24-24v-16zM320 384H192v-32h32v-96h-32v-32h96v128h32z"/><path d="M256 0C114.615 0 0 114.615 0 256s114.615 256 256 256 256-114.615 256-256S397.385 0 256 0zm0 464c-114.875 0-208-93.125-208-208S141.125 48 256 48s208 93.125 208 208-93.125 208-208 208z"/></symbol><symbol id="linkedin" viewBox="0 0 24 24">
<path fill="#424242" d="M12 1.981c-5.533 0-10.019 4.486-10.019 10.019s4.486 10.019 10.019 10.019 10.019-4.486 10.019-10.019-4.486-10.019-10.019-10.019zM9.547 16.153h-2.029v-6.529h2.029v6.529zM8.52 8.822c-0.641 0-1.055-0.454-1.055-1.016 0-0.573 0.427-1.013 1.081-1.013s1.055 0.44 1.068 1.013c0 0.562-0.413 1.016-1.094 1.016zM16.957 16.153h-2.029v-3.618c0-0.842-0.294-1.414-1.028-1.414-0.56 0-0.893 0.387-1.040 0.76-0.054 0.132-0.068 0.32-0.068 0.507v3.764h-2.030v-4.446c0-0.815-0.026-1.497-0.053-2.083h1.763l0.093 0.907h0.041c0.267-0.426 0.922-1.054 2.016-1.054 1.335 0 2.336 0.894 2.336 2.817v3.861z"/>
</symbol><symbol id="loading-squares" viewBox="0 0 100 100"><rect x="0" y="0" width="100" height="100" fill="none" class="bk"/><rect x="15" y="15" width="20" height="20" fill="#969a9c" class="sq"><animate attributeName="fill" from="#969a9c" to="#91d0d9" repeatCount="indefinite" dur="1s" begin="0.0s" values="#91d0d9;#91d0d9;#969a9c;#969a9c" keyTimes="0;0.1;0.2;1"/></rect><rect x="40" y="15" width="20" height="20" fill="#969a9c" class="sq"><animate attributeName="fill" from="#969a9c" to="#91d0d9" repeatCount="indefinite" dur="1s" begin="0.125s" values="#91d0d9;#91d0d9;#969a9c;#969a9c" keyTimes="0;0.1;0.2;1"/></rect><rect x="65" y="15" width="20" height="20" fill="#969a9c" class="sq"><animate attributeName="fill" from="#969a9c" to="#91d0d9" repeatCount="indefinite" dur="1s" begin="0.25s" values="#91d0d9;#91d0d9;#969a9c;#969a9c" keyTimes="0;0.1;0.2;1"/></rect><rect x="15" y="40" width="20" height="20" fill="#969a9c" class="sq"><animate attributeName="fill" from="#969a9c" to="#91d0d9" repeatCount="indefinite" dur="1s" begin="0.875s" values="#91d0d9;#91d0d9;#969a9c;#969a9c" keyTimes="0;0.1;0.2;1"/></rect><rect x="65" y="40" width="20" height="20" fill="#969a9c" class="sq"><animate attributeName="fill" from="#969a9c" to="#91d0d9" repeatCount="indefinite" dur="1s" begin="0.375" values="#91d0d9;#91d0d9;#969a9c;#969a9c" keyTimes="0;0.1;0.2;1"/></rect><rect x="15" y="65" width="20" height="20" fill="#969a9c" class="sq"><animate attributeName="fill" from="#969a9c" to="#91d0d9" repeatCount="indefinite" dur="1s" begin="0.75s" values="#91d0d9;#91d0d9;#969a9c;#969a9c" keyTimes="0;0.1;0.2;1"/></rect><rect x="40" y="65" width="20" height="20" fill="#969a9c" class="sq"><animate attributeName="fill" from="#969a9c" to="#91d0d9" repeatCount="indefinite" dur="1s" begin="0.625s" values="#91d0d9;#91d0d9;#969a9c;#969a9c" keyTimes="0;0.1;0.2;1"/></rect><rect x="65" y="65" width="20" height="20" fill="#969a9c" class="sq"><animate attributeName="fill" from="#969a9c" to="#91d0d9" repeatCount="indefinite" dur="1s" begin="0.5s" values="#91d0d9;#91d0d9;#969a9c;#969a9c" keyTimes="0;0.1;0.2;1"/></rect></symbol><symbol id="logo-full" viewBox="0 0 120 24">
<path fill="#494745" d="M0 0l12.566 23.464 5.36-10.124-7.027-13.34h-10.898z"/>
<path fill="#7eba3f" d="M24.983 0h-11.107l5.538 10.511 5.568-10.511z"/>
<path fill="#494745" d="M38.323 8.486l4.526 12 4.496-12h2.501l-5.955 14.978h-2.025l-6.045-14.978h2.501z"/>
<path fill="#494745" d="M68.248 21.38v2.084h-10.273v-14.978h10.065v2.084h-7.712v4.258h6.67v1.965h-6.67v4.586h7.921z"/>
<path fill="#494745" d="M77.092 23.464v-14.978h2.352v12.893h8.040v2.084h-10.392z"/>
<path fill="#494745" d="M95.851 23.464v-14.948h2.352v14.948h-2.352z"/>
<path fill="#494745" d="M107.911 23.464v-14.978h6.521c0.685 0 1.31 0.149 1.876 0.417s1.072 0.655 1.459 1.102c0.417 0.447 0.715 0.983 0.953 1.548 0.238 0.596 0.357 1.191 0.357 1.787 0 0.506-0.060 0.983-0.208 1.459s-0.328 0.893-0.596 1.28c-0.268 0.387-0.566 0.744-0.923 1.012-0.357 0.298-0.774 0.506-1.191 0.655l3.573 5.687h-2.68l-3.275-5.211h-3.454v5.211h-2.412v0.030zM110.293 16.169h4.139c0.328 0 0.655-0.089 0.923-0.208 0.268-0.149 0.506-0.357 0.715-0.625s0.357-0.566 0.476-0.893c0.119-0.328 0.179-0.685 0.179-1.072s-0.060-0.744-0.208-1.072c-0.119-0.328-0.298-0.625-0.536-0.893-0.208-0.238-0.476-0.447-0.744-0.596-0.298-0.149-0.596-0.208-0.893-0.208h-4.020v5.568h-0.030z"/>
</symbol><symbol id="notification-circle" viewBox="0 0 512 512"><path d="M256 48c-55.559 0-107.792 21.636-147.078 60.922S48 200.441 48 256s21.636 107.792 60.922 147.078S200.441 464 256 464s107.792-21.636 147.078-60.922S464 311.559 464 256s-21.636-107.792-60.922-147.078S311.559 48 256 48zm0-48c141.385 0 256 114.615 256 256S397.385 512 256 512 0 397.385 0 256 114.615 0 256 0zm-32 352h64v64h-64zm0-256h64v192h-64z"/></symbol><symbol id="pause" viewBox="0 0 32 32"><path d="M16 0C7.163 0 0 7.163 0 16s7.163 16 16 16 16-7.163 16-16S24.837 0 16 0zm0 29C8.82 29 3 23.18 3 16S8.82 3 16 3s13 5.82 13 13-5.82 13-13 13zm-6-19h4v12h-4zm8 0h4v12h-4z"/></symbol><symbol id="play" viewBox="0 0 32 32"><path d="M16 0C7.163 0 0 7.163 0 16s7.163 16 16 16 16-7.163 16-16S24.837 0 16 0zm0 29C8.82 29 3 23.18 3 16S8.82 3 16 3s13 5.82 13 13-5.82 13-13 13zM12 9l12 7-12 7z"/></symbol><symbol id="pub-date" viewBox="0 0 24 24">
<path fill="#424242" d="M12.516 6.984v5.25l4.5 2.672-0.75 1.266-5.25-3.188v-6h1.5zM12 20.016q3.281 0 5.648-2.367t2.367-5.648-2.367-5.648-5.648-2.367-5.648 2.367-2.367 5.648 2.367 5.648 5.648 2.367zM12 2.016q4.125 0 7.055 2.93t2.93 7.055-2.93 7.055-7.055 2.93-7.055-2.93-2.93-7.055 2.93-7.055 7.055-2.93z"/>
</symbol><symbol id="remove_circle" viewBox="0 0 24 24">
<path fill="#424242" d="M17.016 12.984v-1.969h-10.031v1.969h10.031zM12 2.016q4.125 0 7.055 2.93t2.93 7.055-2.93 7.055-7.055 2.93-7.055-2.93-2.93-7.055 2.93-7.055 7.055-2.93z"/>
</symbol><symbol id="rss" viewBox="0 0 24 24">
<path fill="#424242" d="M12 2.001c-5.522 0-9.999 4.477-9.999 9.999s4.477 9.999 9.999 9.999 9.999-4.477 9.999-9.999-4.477-9.999-9.999-9.999zM8.25 17c-0.69 0-1.25-0.56-1.25-1.25s0.56-1.25 1.25-1.25 1.25 0.56 1.25 1.25-0.56 1.25-1.25 1.25zM11.688 17c0-2.584-2.103-4.687-4.687-4.687v-1.875c3.618 0 6.562 2.944 6.562 6.562h-1.875zM15.437 17c0-2.254-0.878-4.372-2.471-5.966s-3.712-2.471-5.966-2.471v-1.875c2.754 0 5.344 1.073 7.292 3.020s3.020 4.537 3.020 7.291h-1.875z"/>
</symbol><symbol id="search" viewBox="0 0 24 24"><g fill="none" stroke="currentColor" stroke-width="2" stroke-linecap="round" stroke-linejoin="round" class="feather feather-search"><circle cx="11" cy="11" r="8"/><line x1="21" y1="21" x2="16.65" y2="16.65"/></g></symbol><symbol id="social-email" viewBox="0 0 24 24">
  <path d="M12 12.713L.015 3h23.97L12 12.713zm0 2.574L0 5.562V21h24V5.562l-12 9.725z" fill="currentColor" fill-rule="evenodd"/>
</symbol><symbol id="social-facebook" viewBox="0 0 24 24">
<path d="M9 8h-3v4h3v12h5v-12h3.642l0.358-4h-4v-1.667c0-0.955 0.192-1.333 1.115-1.333h2.885v-5h-3.808c-3.596 0-5.192 1.583-5.192 4.615v3.385z" fill="currentColor" fill-rule="evenodd"/>
</symbol><symbol id="social-linkedin" viewBox="0 0 24 24">
<path d="M4.98 3.5c0 1.381-1.11 2.5-2.48 2.5s-2.48-1.119-2.48-2.5c0-1.38 1.11-2.5 2.48-2.5s2.48 1.12 2.48 2.5zM5 8h-5v16h5v-16zM12.982 8h-4.968v16h4.969v-8.399c0-4.67 6.029-5.052 6.029 0v8.399h4.988v-10.131c0-7.88-8.922-7.593-11.018-3.714v-2.155z" fill="currentColor" fill-rule="evenodd"/>
</symbol><symbol id="social-pinterest" viewBox="0 0 26 26"><path d="M24.257 6.483C25.419 8.47 26 10.641 26 13s-.581 4.534-1.743 6.525a12.942 12.942 0 0 1-4.732 4.732C17.534 25.419 15.36 26 13 26c-1.253 0-2.483-.18-3.69-.542.666-1.05 1.106-1.974 1.32-2.776.102-.383.406-1.574.914-3.571.226.44.638.82 1.236 1.142a4.012 4.012 0 0 0 1.93.483c1.365 0 2.584-.387 3.656-1.16 1.072-.773 1.901-1.836 2.488-3.19.587-1.355.88-2.878.88-4.57a6.966 6.966 0 0 0-1.007-3.623c-.671-1.129-1.645-2.048-2.92-2.76-1.275-.71-2.714-1.066-4.316-1.066-1.185 0-2.29.164-3.318.491-1.027.327-1.898.762-2.615 1.303a8.914 8.914 0 0 0-1.845 1.87 7.74 7.74 0 0 0-1.134 2.193 7.387 7.387 0 0 0-.364 2.268c0 1.174.226 2.206.677 3.098.451.891 1.111 1.518 1.98 1.879.339.135.553.022.644-.339.022-.079.067-.254.135-.525.068-.27.113-.44.135-.507.068-.26.006-.503-.186-.728-.575-.689-.863-1.54-.863-2.556 0-1.704.59-3.168 1.769-4.393 1.18-1.224 2.722-1.836 4.63-1.836 1.703 0 3.032.462 3.986 1.388.953.925 1.43 2.127 1.43 3.605 0 1.919-.386 3.55-1.16 4.892-.772 1.343-1.763 2.014-2.97 2.014-.688 0-1.241-.245-1.659-.736-.418-.49-.547-1.08-.39-1.769.091-.395.24-.922.45-1.583.208-.66.377-1.24.507-1.743.13-.502.195-.928.195-1.278 0-.564-.153-1.033-.457-1.405-.305-.372-.74-.559-1.304-.559-.7 0-1.292.322-1.777.965-.485.644-.728 1.445-.728 2.404 0 .824.141 1.512.423 2.065l-1.675 7.076c-.192.79-.266 1.788-.22 2.996-2.325-1.027-4.204-2.613-5.637-4.757C.717 18.016 0 15.63 0 13c0-2.359.581-4.534 1.743-6.525a12.942 12.942 0 0 1 4.732-4.732C8.466.581 10.64 0 13 0s4.534.581 6.525 1.743a12.922 12.922 0 0 1 4.732 4.74z" fill="currentColor" fill-rule="evenodd"/></symbol><symbol id="social-print" viewBox="0 0 24 24">
<path d="M19 1v5h-14v-5h14zM19.977 12c0.559 0 1.023-0.419 1.023-0.977s-0.466-1.023-1.023-1.023c-0.558 0-0.977 0.466-0.977 1.023s0.419 0.977 0.977 0.977zM17 21v-6h-10v6h10zM20.394 7c1.972 0 3.606 1.675 3.606 3.697v7.303h-5v5h-14v-5h-5v-7.303c0-2.022 1.633-3.697 3.606-3.697h16.788z" fill="currentColor" fill-rule="evenodd"/>
</symbol><symbol id="social-twitter" viewBox="0 0 24 24">
<path d="M24 4.557c-0.883 0.392-1.832 0.656-2.828 0.775 1.017-0.609 1.798-1.574 2.165-2.724-0.951 0.564-2.005 0.974-3.127 1.195-0.897-0.957-2.178-1.555-3.594-1.555-3.179 0-5.515 2.966-4.797 6.045-4.091-0.205-7.719-2.165-10.148-5.144-1.29 2.213-0.669 5.108 1.523 6.574-0.806-0.026-1.566-0.247-2.229-0.616-0.054 2.281 1.581 4.415 3.949 4.89-0.693 0.188-1.452 0.232-2.224 0.084 0.626 1.956 2.444 3.379 4.6 3.419-2.070 1.623-4.678 2.348-7.29 2.040 2.179 1.397 4.768 2.212 7.548 2.212 9.142 0 14.307-7.721 13.995-14.646 0.962-0.695 1.797-1.562 2.457-2.549z" fill="currentColor" fill-rule="evenodd"/>
</symbol><symbol id="social-youtube" viewBox="0 0 24 24">
<path d="M4.652 0h1.44l0.988 3.702 0.916-3.702h1.454l-1.665 5.505v3.757h-1.431v-3.757l-1.702-5.505zM11.246 2.373c-1.119 0-1.861 0.74-1.861 1.835v3.349c0 1.204 0.629 1.831 1.861 1.831 1.022 0 1.826-0.683 1.826-1.831v-3.349c0-1.069-0.797-1.835-1.826-1.835zM11.777 7.5c0 0.372-0.19 0.646-0.532 0.646-0.351 0-0.554-0.287-0.554-0.646v-3.179c0-0.374 0.172-0.651 0.529-0.651 0.39 0 0.557 0.269 0.557 0.651v3.179zM16.506 2.43v5.186c-0.155 0.194-0.5 0.512-0.747 0.512-0.271 0-0.338-0.186-0.338-0.46v-5.238h-1.27v5.71c0 0.675 0.206 1.22 0.887 1.22 0.384 0 0.918-0.2 1.468-0.853v0.754h1.27v-6.831h-1.27zM18.709 16.288c-0.448 0-0.541 0.315-0.541 0.763v0.659h1.069v-0.66c0.001-0.44-0.092-0.762-0.528-0.762zM14.006 16.328c-0.084 0.043-0.167 0.109-0.25 0.198v4.055c0.099 0.106 0.194 0.182 0.287 0.229 0.197 0.1 0.485 0.107 0.619-0.067 0.070-0.092 0.105-0.241 0.105-0.449v-3.359c0-0.22-0.043-0.386-0.129-0.5-0.147-0.193-0.42-0.214-0.632-0.107zM18.833 11.133c-2.604-0.177-11.066-0.177-13.666 0-2.814 0.192-3.146 1.892-3.167 6.367 0.021 4.467 0.35 6.175 3.167 6.367 2.6 0.177 11.062 0.177 13.666 0 2.814-0.192 3.146-1.893 3.167-6.367-0.021-4.467-0.35-6.175-3.167-6.367zM6.509 21.819h-1.363v-7.54h-1.41v-1.28h4.182v1.28h-1.41v7.54zM11.355 21.819h-1.21v-0.718c-0.223 0.265-0.455 0.467-0.696 0.605-0.652 0.374-1.547 0.365-1.547-0.955v-5.438h1.209v4.988c0 0.262 0.063 0.438 0.322 0.438 0.236 0 0.564-0.303 0.711-0.487v-4.939h1.21v6.506zM16.012 20.471c0 0.805-0.301 1.431-1.106 1.431-0.443 0-0.812-0.162-1.149-0.583v0.5h-1.221v-8.82h1.221v2.84c0.273-0.333 0.644-0.608 1.076-0.608 0.886 0 1.18 0.749 1.18 1.631v3.609zM20.483 18.719h-2.314v1.228c0 0.488 0.042 0.91 0.528 0.91 0.511 0 0.541-0.344 0.541-0.91v-0.452h1.245v0.489c0 1.253-0.538 2.013-1.813 2.013-1.155 0-1.746-0.842-1.746-2.013v-2.921c0-1.129 0.746-1.914 1.837-1.914 1.161 0 1.721 0.738 1.721 1.914v1.656z" fill="currentColor" fill-rule="evenodd"/>
</symbol><symbol id="twitter" viewBox="0 0 24 24">
<path fill="#424242" d="M12 1.981c-5.533 0-10.019 4.486-10.019 10.019s4.486 10.019 10.019 10.019 10.019-4.486 10.019-10.019-4.486-10.019-10.019-10.019zM16.076 10.188c0.004 0.085 0.005 0.171 0.005 0.255 0 2.609-1.984 5.616-5.614 5.616-1.115 0-2.152-0.325-3.025-0.887 0.153 0.019 0.311 0.026 0.471 0.026 0.925 0 1.775-0.314 2.451-0.845-0.863-0.017-1.592-0.586-1.843-1.369 0.12 0.022 0.244 0.035 0.371 0.035 0.179 0 0.355-0.024 0.52-0.069-0.903-0.182-1.583-0.979-1.583-1.935v-0.024c0.266 0.147 0.571 0.237 0.894 0.247-0.531-0.355-0.878-0.958-0.878-1.644 0-0.361 0.097-0.701 0.267-0.992 0.974 1.194 2.427 1.979 4.067 2.063-0.035-0.145-0.051-0.296-0.051-0.45 0-1.089 0.883-1.973 1.973-1.973 0.567 0 1.080 0.24 1.44 0.624 0.45-0.090 0.871-0.252 1.252-0.479-0.147 0.46-0.459 0.847-0.867 1.092 0.4-0.049 0.779-0.155 1.133-0.312-0.264 0.396-0.599 0.744-0.985 1.022z"/>
</symbol><symbol id="unfold_less" viewBox="0 0 24 24">
<path fill="#424242" d="M16.594 5.391l-4.594 4.594-4.594-4.594 1.406-1.406 3.188 3.188 3.188-3.188zM7.406 18.609l4.594-4.594 4.594 4.594-1.406 1.406-3.188-3.188-3.188 3.188z"/>
</symbol><symbol id="unfold_more" viewBox="0 0 24 24">
<path fill="#424242" d="M12 18.188l3.188-3.188 1.406 1.406-4.594 4.594-4.594-4.594 1.406-1.406zM12 5.813l-3.188 3.188-1.406-1.406 4.594-4.594 4.594 4.594-1.406 1.406z"/>
</symbol><symbol id="youtube" viewBox="0 0 24 24">
<path fill="#424242" d="M13.673 11.826l-2.344-1.094c-0.205-0.095-0.373 0.012-0.373 0.238v2.060c0 0.226 0.168 0.333 0.373 0.238l2.343-1.094c0.206-0.096 0.206-0.253 0.001-0.349zM12 1.981c-5.534 0-10.019 4.486-10.019 10.019s4.486 10.019 10.019 10.019 10.019-4.486 10.019-10.019-4.486-10.019-10.019-10.019zM12 16.070c-5.129 0-5.218-0.462-5.218-4.070s0.090-4.070 5.218-4.070 5.218 0.462 5.218 4.070-0.090 4.070-5.218 4.070z"/>
</symbol></svg>