<?xml version="1.0" encoding="UTF-8"?><!DOCTYPE svg PUBLIC "-//W3C//DTD SVG 1.1//EN" "http://www.w3.org/Graphics/SVG/1.1/DTD/svg11.dtd"><svg xmlns="http://www.w3.org/2000/svg" xmlns:xlink="http://www.w3.org/1999/xlink"><defs>
<clipPath id="clip0_431_36612">
<rect width="24" height="24" fill="white"/>
</clipPath>

<clipPath id="clip0_431_36583">
<rect width="24" height="24" fill="white"/>
</clipPath>

<clipPath id="clip0_402_14551">
<rect width="24" height="24" fill="white"/>
</clipPath>

<clipPath id="clip0_400_14518">
<rect width="24" height="24" fill="white"/>
</clipPath>

    <clipPath id="a">
      <path fill="#fff" d="M0 0h24v24H0z"/>
    </clipPath>
  
    <clipPath id="a">
      <path fill="#fff" d="M0 0h251.99v52H0z"/>
    </clipPath>
  
    <clipPath id="a">
      <path fill="#fff" d="M0 0h251.99v52H0z"/>
    </clipPath>
  
    <clipPath id="a">
      <path fill="#fff" d="M0 0h251.99v52H0z"/>
    </clipPath>
  
<clipPath id="clip0_431_36648">
<rect width="24" height="24" fill="white"/>
</clipPath>

<clipPath id="clip0_431_36632">
<rect width="24" height="24" fill="white"/>
</clipPath>

    <clipPath id="a">
      <path fill="#fff" d="M0 0h24v24H0z"/>
    </clipPath>
  
    <clipPath id="a">
      <path fill="#fff" d="M0 0h24v24H0z"/>
    </clipPath>
  
<clipPath id="clip0_433_23922">
<rect width="24" height="24" fill="white"/>
</clipPath>

<clipPath id="clip0_433_23932">
<rect width="24" height="24" fill="white"/>
</clipPath>
</defs><symbol id="add_circle" viewBox="0 0 24 24">
<path fill="currentColor" d="M17.016 12.984v-1.969h-4.031v-4.031h-1.969v4.031h-4.031v1.969h4.031v4.031h1.969v-4.031h4.031zM12 2.016q4.125 0 7.055 2.93t2.93 7.055-2.93 7.055-7.055 2.93-7.055-2.93-2.93-7.055 2.93-7.055 7.055-2.93z"/>
</symbol><symbol id="arrow-right" viewBox="0 0 14 14"><g stroke="currentColor" stroke-width="1.2" fill="none" fill-rule="evenodd"><path d="M0 7.014h12.793M6.878 1l5.976 5.976-5.976 5.976"/></g></symbol><symbol id="arrow_drop_down" viewBox="0 0 24 24">
<path d="M6.984 9.984h10.031l-5.016 5.016z"/>
</symbol><symbol id="arrow_drop_up" viewBox="0 0 24 24">
<path d="M6.984 14.016l5.016-5.016 5.016 5.016h-10.031z"/>
</symbol><symbol id="check-circle" viewBox="0 0 31 30">
  <g fill="currentColor" fill-rule="nonzero">
    <path d="M27.0000003 12.4399997v2.56c-.0030384 5.3136606-3.501247 9.9930932-8.5975769 11.4999188-5.0963298 1.5068256-10.57675059-.5179066-13.46927675-4.9762016-2.89252615-4.4582949-2.50810996-10.28811282.94478294-14.32799302 3.45289289-4.0398802 9.15172611-5.32745623 14.00607101-3.16448657l1.2179043.54266645 1.0853329-2.43580862-1.2179044-.54266645C15.0362453-1.04820089 8.0710047.52550315 3.85080227 5.4631345-.36940016 10.40076586-.83924217 17.5260988 2.69606757 22.975126c3.53530975 5.4490271 10.23360183 7.9236998 16.46244943 6.0820241 6.2288476-1.8416757 10.5044359-7.5609821 10.50815-14.0563881V12.4399997h-2.6666667z"/>
    <path d="M11.00000033 11.7943816l-1.88561808 1.8856181 5.88608935 5.8860893L30.2189515 4.33239066l-1.8865602-1.88467551L14.999529 15.7939103z"/>
  </g>
</symbol><symbol id="check-mark" viewBox="0 0 30 28">
  <g fill-rule="nonzero">
    <path d="M14 14.7810486l-4-4-1.88561808 1.8856181L14 18.5522847 29.2189514 3.33333333l-1.8856181-1.88561808z"/>
  </g>
</symbol><symbol id="check-square" viewBox="0 0 30 28">
  <g fill="currentColor" fill-rule="nonzero">
    <path d="M14 14.7810486l-4-4-1.88561808 1.8856181L14 18.5522847 29.2189514 3.33333333l-1.8856181-1.88561808z"/>
    <path d="M24.6666667 12.6666667v10.6666666c0 .7363797-.5969537 1.3333334-1.3333334 1.3333334H4.66666667c-.73637967 0-1.33333334-.5969537-1.33333334-1.3333334V4.66666667c0-.73637967.59695367-1.33333334 1.33333334-1.33333334H20.6666667V.66666667H4.66666667c-2.209139 0-4 1.790861-4 4V23.3333333c0 2.209139 1.790861 4 4 4H23.3333333c2.209139 0 4-1.790861 4-4V12.6666667h-2.6666666z"/>
  </g>
</symbol><symbol id="check_box" viewBox="0 0 24 24">
<g clip-path="url(#clip0_431_36612)">
<path d="M19 3H5C3.89 3 3 3.9 3 5V19C3 20.1 3.89 21 5 21H19C20.11 21 21 20.1 21 19V5C21 3.9 20.11 3 19 3ZM10 17L5 12L6.41 10.59L10 14.17L17.59 6.58L19 8L10 17Z" fill="currentColor"/>
</g>

</symbol><symbol id="check_box_outline_blank" viewBox="0 0 24 24">
<g clip-path="url(#clip0_431_36583)">
<path d="M19 5V19H5V5H19ZM19 3H5C3.9 3 3 3.9 3 5V19C3 20.1 3.9 21 5 21H19C20.1 21 21 20.1 21 19V5C21 3.9 20.1 3 19 3Z" fill="currentColor"/>
</g>

</symbol><symbol id="chevron-down" viewBox="0 0 24 24"><path fill="currentColor" d="M7.406 7.828L12 12.422l4.594-4.594L18 9.234l-6 6-6-6z"/></symbol><symbol id="chevron-left" viewBox="0 0 24 24">
<path fill="currentColor" d="M15.422 16.078l-1.406 1.406-6-6 6-6 1.406 1.406-4.594 4.594z"/>
</symbol><symbol id="chevron-right" viewBox="0 0 24 24"><path fill="currentColor" d="M8.578 16.359l4.594-4.594-4.594-4.594 1.406-1.406 6 6-6 6z"/></symbol><symbol id="chevron-up" viewBox="0 0 24 24"><path fill="currentColor" d="M7.406 15.422L6 14.016l6-6 6 6-1.406 1.406L12 10.828z"/></symbol><symbol id="close" viewBox="0 0 24 24"><g fill="none" stroke="currentColor" stroke-width="2" stroke-linecap="round" stroke-linejoin="round" class="feather feather-x">
  <line x1="18" y1="6" x2="6" y2="18"/>
  <line x1="6" y1="6" x2="18" y2="18"/>
</g></symbol><symbol id="close_circle" viewBox="0 0 24 24"><path fill="currentColor" d="M17.016 15.609L13.407 12l3.609-3.609-1.406-1.406-3.609 3.609-3.609-3.609-1.406 1.406L10.595 12l-3.609 3.609 1.406 1.406 3.609-3.609 3.609 3.609zM12 2.016q4.125 0 7.055 2.93t2.93 7.055-2.93 7.055T12 21.986t-7.055-2.93-2.93-7.055 2.93-7.055T12 2.016z"/></symbol><symbol id="equalizer" viewBox="0 0 32 32">
    <title>equalizer</title>
    <path d="M14 4v-0.5c0-0.825-0.675-1.5-1.5-1.5h-5c-0.825 0-1.5 0.675-1.5 1.5v0.5h-6v4h6v0.5c0 0.825 0.675 1.5 1.5 1.5h5c0.825 0 1.5-0.675 1.5-1.5v-0.5h18v-4h-18zM8 8v-4h4v4h-4zM26 13.5c0-0.825-0.675-1.5-1.5-1.5h-5c-0.825 0-1.5 0.675-1.5 1.5v0.5h-18v4h18v0.5c0 0.825 0.675 1.5 1.5 1.5h5c0.825 0 1.5-0.675 1.5-1.5v-0.5h6v-4h-6v-0.5zM20 18v-4h4v4h-4zM14 23.5c0-0.825-0.675-1.5-1.5-1.5h-5c-0.825 0-1.5 0.675-1.5 1.5v0.5h-6v4h6v0.5c0 0.825 0.675 1.5 1.5 1.5h5c0.825 0 1.5-0.675 1.5-1.5v-0.5h18v-4h-18v-0.5zM8 28v-4h4v4h-4z"/>
</symbol><symbol id="globe" viewBox="0 0 24 24">
<path fill="currentColor" d="M17.906 17.391q2.109-2.25 2.109-5.391 0-2.484-1.383-4.5t-3.633-2.906v0.422q0 0.797-0.609 1.383t-1.406 0.586h-1.969v2.016q0 0.422-0.305 0.703t-0.727 0.281h-1.969v2.016h6q0.422 0 0.703 0.281t0.281 0.703v3h0.984q1.406 0 1.922 1.406zM11.016 19.922v-1.922q-0.797 0-1.406-0.609t-0.609-1.406v-0.984l-4.781-4.781q-0.234 0.938-0.234 1.781 0 3.047 2.039 5.297t4.992 2.625zM12 2.016q4.125 0 7.055 2.93t2.93 7.055-2.93 7.055-7.055 2.93-7.055-2.93-2.93-7.055 2.93-7.055 7.055-2.93z"/>
</symbol><symbol id="google" viewBox="0 0 24 24">
<path fill="currentColor" d="M12 1.981c-5.533 0-10.019 4.486-10.019 10.019s4.486 10.019 10.019 10.019 10.019-4.486 10.019-10.019-4.486-10.019-10.019-10.019zM11.422 16.301c-0.63 0.306-1.306 0.338-1.569 0.338-0.050 0-0.078 0-0.078 0s-0.024 0-0.057 0c-0.409 0-2.446-0.094-2.446-1.948 0-1.822 2.218-1.966 2.897-1.966h0.017c-0.392-0.524-0.311-1.052-0.311-1.052-0.035 0.002-0.084 0.004-0.146 0.004-0.256 0-0.75-0.041-1.173-0.314-0.52-0.334-0.783-0.903-0.783-1.69 0-2.224 2.428-2.313 2.453-2.316h2.426v0.053c0 0.271-0.487 0.324-0.819 0.37-0.113 0.017-0.339 0.038-0.403 0.071 0.615 0.329 0.714 0.845 0.714 1.612 0 0.875-0.343 1.337-0.705 1.661-0.225 0.202-0.402 0.359-0.402 0.571 0 0.208 0.242 0.419 0.524 0.667 0.46 0.406 1.092 0.958 1.092 1.89 0 0.964-0.414 1.653-1.232 2.047zM16.697 12h-1.566v1.566h-1.044v-1.566h-1.566v-1.044h1.566v-1.566h1.044v1.566h1.566v1.044zM10.146 13.2c-0.054 0-0.109 0.002-0.164 0.006-0.464 0.035-0.891 0.208-1.2 0.49-0.307 0.277-0.464 0.628-0.442 0.982 0.047 0.742 0.844 1.176 1.811 1.107 0.951-0.069 1.586-0.618 1.54-1.36-0.043-0.698-0.651-1.225-1.546-1.225zM11.057 9.166c-0.252-0.887-0.659-1.15-1.292-1.15-0.068 0-0.137 0.010-0.203 0.028-0.275 0.078-0.492 0.307-0.614 0.647-0.124 0.344-0.131 0.704-0.025 1.112 0.193 0.731 0.713 1.262 1.237 1.262 0.069 0 0.137-0.009 0.203-0.028 0.573-0.161 0.932-1.035 0.694-1.872z"/>
</symbol><symbol id="info-circle" viewBox="0 0 512 512"><path d="M224 152c0-13.2 10.8-24 24-24h16c13.2 0 24 10.8 24 24v16c0 13.2-10.8 24-24 24h-16c-13.2 0-24-10.8-24-24v-16zM320 384H192v-32h32v-96h-32v-32h96v128h32z"/><path d="M256 0C114.615 0 0 114.615 0 256s114.615 256 256 256 256-114.615 256-256S397.385 0 256 0zm0 464c-114.875 0-208-93.125-208-208S141.125 48 256 48s208 93.125 208 208-93.125 208-208 208z"/></symbol><symbol id="keyboard_arrow_down-disabled" viewBox="0 0 24 24">
<g clip-path="url(#clip0_402_14551)">
<path d="M7.41 8.59009L12 13.1701L16.59 8.59009L18 10.0001L12 16.0001L6 10.0001L7.41 8.59009Z" fill="currentColor"/>
</g>

</symbol><symbol id="keyboard_arrow_down" viewBox="0 0 24 24">
<g clip-path="url(#clip0_400_14518)">
<path d="M7.41 8.59009L12 13.1701L16.59 8.59009L18 10.0001L12 16.0001L6 10.0001L7.41 8.59009Z" fill="currentColor"/>
</g>

</symbol><symbol id="left-arrow" viewBox="0 0 24 24">
  <g clip-path="url(#a)">
    <path fill="currentColor" d="M20 11H7.83l5.59-5.59L12 4l-8 8 8 8 1.41-1.41L7.83 13H20v-2Z"/>
  </g>
  
</symbol><symbol id="linkedin" viewBox="0 0 24 24">
  <path fill="currentColor" d="M20.57 2H3.42C2.64 2 2 2.65 2 3.44v17.12c0 .8.64 1.44 1.42 1.44h17.15c.79 0 1.43-.65 1.43-1.44V3.44c0-.8-.64-1.44-1.43-1.44ZM8.04 19.14H5.08V9.6h2.97v9.54ZM6.56 8.3a1.72 1.72 0 1 1 0-3.43 1.72 1.72 0 0 1 0 3.43Zm12.6 10.85h-2.97V14.5c0-1.1-.02-2.53-1.54-2.53-1.54 0-1.78 1.2-1.78 2.45v4.72H9.91V9.6h2.84v1.3h.04a3.12 3.12 0 0 1 2.8-1.54c3 0 3.57 1.98 3.57 4.55v5.23Z"/>
</symbol><symbol id="loading-squares" viewBox="0 0 100 100"><rect x="0" y="0" width="100" height="100" fill="none" class="bk"/><rect x="15" y="15" width="20" height="20" fill="#969a9c" class="sq"><animate attributeName="fill" from="#969a9c" to="#91d0d9" repeatCount="indefinite" dur="1s" begin="0.0s" values="#91d0d9;#91d0d9;#969a9c;#969a9c" keyTimes="0;0.1;0.2;1"/></rect><rect x="40" y="15" width="20" height="20" fill="#969a9c" class="sq"><animate attributeName="fill" from="#969a9c" to="#91d0d9" repeatCount="indefinite" dur="1s" begin="0.125s" values="#91d0d9;#91d0d9;#969a9c;#969a9c" keyTimes="0;0.1;0.2;1"/></rect><rect x="65" y="15" width="20" height="20" fill="#969a9c" class="sq"><animate attributeName="fill" from="#969a9c" to="#91d0d9" repeatCount="indefinite" dur="1s" begin="0.25s" values="#91d0d9;#91d0d9;#969a9c;#969a9c" keyTimes="0;0.1;0.2;1"/></rect><rect x="15" y="40" width="20" height="20" fill="#969a9c" class="sq"><animate attributeName="fill" from="#969a9c" to="#91d0d9" repeatCount="indefinite" dur="1s" begin="0.875s" values="#91d0d9;#91d0d9;#969a9c;#969a9c" keyTimes="0;0.1;0.2;1"/></rect><rect x="65" y="40" width="20" height="20" fill="#969a9c" class="sq"><animate attributeName="fill" from="#969a9c" to="#91d0d9" repeatCount="indefinite" dur="1s" begin="0.375" values="#91d0d9;#91d0d9;#969a9c;#969a9c" keyTimes="0;0.1;0.2;1"/></rect><rect x="15" y="65" width="20" height="20" fill="#969a9c" class="sq"><animate attributeName="fill" from="#969a9c" to="#91d0d9" repeatCount="indefinite" dur="1s" begin="0.75s" values="#91d0d9;#91d0d9;#969a9c;#969a9c" keyTimes="0;0.1;0.2;1"/></rect><rect x="40" y="65" width="20" height="20" fill="#969a9c" class="sq"><animate attributeName="fill" from="#969a9c" to="#91d0d9" repeatCount="indefinite" dur="1s" begin="0.625s" values="#91d0d9;#91d0d9;#969a9c;#969a9c" keyTimes="0;0.1;0.2;1"/></rect><rect x="65" y="65" width="20" height="20" fill="#969a9c" class="sq"><animate attributeName="fill" from="#969a9c" to="#91d0d9" repeatCount="indefinite" dur="1s" begin="0.5s" values="#91d0d9;#91d0d9;#969a9c;#969a9c" keyTimes="0;0.1;0.2;1"/></rect></symbol><symbol id="logo-full-black" viewBox="0 0 252 32">
  <path fill="#3C3839" fill-rule="evenodd" d="M28.87 3A10.23 10.23 0 0 1 30 16a10.2 10.2 0 0 1 1.83 5.83 10.13 10.13 0 0 1-15.93 8.34 10.11 10.11 0 0 1-12.94-1.15 10.23 10.23 0 0 1-1.14-13.01 10.15 10.15 0 0 1 14.1-14.17 10.1 10.1 0 0 1 12.94 1.15Zm-.92 18.83c0-1-.26-1.95-.7-2.82l-8.35 8.4a6.21 6.21 0 0 0 9.05-5.58Zm0-11.64a6.2 6.2 0 0 0-9.04-5.57L27.24 13c.44-.89.7-1.85.7-2.82ZM5.72 26.25a6.26 6.26 0 0 1-1.13-7.24l3.45 3.46v.01l.02.02h.01l4.87 4.9a6.2 6.2 0 0 1-7.22-1.15Zm0-20.5A6.24 6.24 0 0 0 4.58 13l8.36-8.4a6.18 6.18 0 0 0-7.22 1.14Zm10.2 19.12L7.1 16l8.81-8.86L24.74 16l-8.82 8.86Zm27.83-1.61 1.42-3.3H55.8l1.38 3.3c.47 1.1.7 1.98.7 2.64 0 .45-.78.67-2.34.67h-.3v1.06h9.2v-1.06l-.4-.02c-.8-.04-1.35-.2-1.63-.49-.28-.28-.76-1.18-1.44-2.68L52.29 2.4h-1.15l-8.75 20.86A18.14 18.14 0 0 1 41 26.2c-.18.2-.75.32-1.71.36l-.35.02v1.06h6.43v-1.06h-.27c-1.44 0-2.16-.23-2.16-.7 0-.44.28-1.3.82-2.61Zm11.46-4.68h-9.49L50.5 7.24l4.71 11.34Z" clip-rule="evenodd"/>
  <path fill="#3C3839" d="M74.12 27.51c-.83.35-1.63.53-2.39.53-1.93 0-3.34-.5-4.22-1.46-.9-.98-1.34-2.53-1.34-4.67v-11.2H63.5V9.33h2.67v-3.3l3.3-.83v4.13h5.07v1.38h-5.07v11.63c0 1.58.2 2.7.62 3.35.41.67 1.12 1 2.12 1 .52 0 1.16-.18 1.91-.53v1.35Zm8.73-13.19v8.94c0 1.51.13 2.42.4 2.72.26.3 1.06.5 2.4.57l.72.02v1.06h-9.92v-1.06l.32-.02c1.36-.08 2.16-.28 2.41-.58.25-.3.38-1.2.38-2.7v-9.58c0-1.5-.13-2.41-.38-2.7-.25-.29-1.05-.49-2.4-.59l-.33-.01V9.33h6.4v3.44c1.51-2.56 3.49-3.85 5.93-3.85a4 4 0 0 1 1.12.19v5h-1.85l-.01-.3a9.05 9.05 0 0 0-.33-1.87c-.1-.2-.35-.3-.77-.3-1.66 0-3.02.9-4.09 2.68Z"/>
  <path fill="#3C3839" fill-rule="evenodd" d="M97.6 23.26V9.33h-6.4v1.06l.33.01c1.35.1 2.15.3 2.4.6.26.28.38 1.19.38 2.7v9.56c0 1.52-.12 2.42-.38 2.71-.25.3-1.05.5-2.4.58l-.32.02v1.06h9.5v-1.06l-.32-.02c-1.37-.08-2.17-.27-2.42-.57-.24-.29-.36-1.2-.36-2.72ZM94.32 6.03V2.72h3.3v3.3h-3.3Z" clip-rule="evenodd"/>
  <path fill="#3C3839" d="M116.5 27.63v-3.45a8.98 8.98 0 0 1-2.9 2.89 7.04 7.04 0 0 1-3.66.97 4.6 4.6 0 0 1-3.68-1.57c-.9-1.03-1.35-2.45-1.35-4.26V13.7c0-1.51-.12-2.42-.37-2.7-.26-.3-1.06-.5-2.41-.6l-.32-.01V9.33h6.4v12.35c0 1.4.25 2.46.75 3.16.49.7 1.24 1.06 2.23 1.06.92 0 1.82-.24 2.7-.71a9.7 9.7 0 0 0 2.6-2.12V13.7c-.07-1.67-.2-2.62-.38-2.82-.18-.22-.98-.38-2.42-.48l-.3-.01V9.33h6.4v13.93c.07 1.67.2 2.61.38 2.83.18.2.98.36 2.4.46l.33.02v1.06h-6.4Zm9-.96v-4.65h1.86l.03.32c.15 1.68.26 2.63.34 2.85.07.22.36.5.87.84 1 .65 2.13.97 3.37.97 1 0 1.82-.3 2.47-.91.64-.62.96-1.4.96-2.38 0-.85-.22-1.53-.64-2.04a6.1 6.1 0 0 0-2.29-1.38l-1.7-.66c-1.82-.7-3.14-1.5-3.95-2.39a4.52 4.52 0 0 1-1.22-3.2c0-1.48.59-2.7 1.77-3.67a6.87 6.87 0 0 1 4.5-1.45c1.79 0 3.62.35 5.53 1.05v4.36h-1.85v-.3a14 14 0 0 0-.27-2.28c-.11-.42-.3-.73-.54-.94a4.16 4.16 0 0 0-2.64-.86c-.98 0-1.79.32-2.43.95a3.14 3.14 0 0 0-.96 2.36c0 .79.25 1.41.78 1.88.51.48 1.55 1.04 3.12 1.68l1.53.64c1.7.7 2.87 1.42 3.54 2.16.66.75.99 1.71.99 2.9 0 1.62-.64 2.95-1.93 3.98a7.85 7.85 0 0 1-5.04 1.54c-2.18 0-4.24-.46-6.2-1.37Zm28.69-11.27v7.86c0 1.51.12 2.42.37 2.71.24.3 1.05.5 2.41.58l.33.02v1.06h-9.73v-1.06l.31-.02c1.36-.08 2.16-.28 2.41-.58.26-.3.38-1.2.38-2.7V7.06c0-1.5-.12-2.4-.38-2.7-.25-.29-1.05-.48-2.4-.57l-.32-.03V2.72h9.73v1.05l-.33.03c-1.36.1-2.17.28-2.4.57-.26.3-.38 1.2-.38 2.7v6.89h11.79V7.08c0-1.52-.13-2.42-.38-2.71-.25-.29-1.07-.48-2.42-.57l-.31-.03V2.72h9.73v1.05l-.32.03c-1.36.1-2.17.28-2.42.57-.25.3-.37 1.2-.37 2.7v16.2c0 1.5.12 2.4.37 2.7.25.3 1.06.5 2.42.58l.32.02v1.06h-9.73v-1.06l.3-.02c1.38-.08 2.19-.27 2.44-.57.24-.29.37-1.2.37-2.72v-7.85h-11.8Z"/>
  <path fill="#3C3839" fill-rule="evenodd" d="M182.98 28.04c1.73 0 3.64-.41 5.74-1.24v-1.7a10.38 10.38 0 0 1-5.23 1.24 4.97 4.97 0 0 1-4.4-2.17c-.99-1.45-1.48-3.59-1.48-6.44h11.11v-.31c0-2.73-.58-4.83-1.75-6.3-1.17-1.47-2.83-2.2-5-2.2-2.34 0-4.27.88-5.77 2.63s-2.24 4-2.24 6.73c0 2.9.83 5.24 2.5 7.05a8.47 8.47 0 0 0 6.52 2.7Zm2.24-11.34h-7.54c0-2.05.37-3.69 1.1-4.91.73-1.23 1.72-1.84 2.96-1.84s2.13.48 2.68 1.42c.55.94.82 2.47.82 4.6l-.02.73Zm11.31 11.34c1.92 0 3.87-.98 5.83-2.94.44 1.96 1.47 2.94 3.09 2.94a6.5 6.5 0 0 0 2.13-.42l-.1-1.25c-.37.1-.67.14-.9.14-.61 0-1.06-.3-1.3-.89a8.73 8.73 0 0 1-.38-3.08v-8.15c0-3.65-1.98-5.47-5.94-5.47-1.99 0-4.14.51-6.47 1.52v3.35h2.25l.01-.32c.13-1.17.42-1.95.88-2.33a4.23 4.23 0 0 1 2.7-.94c2.18 0 3.27 1.44 3.27 4.33v2.27h-.68c-3.66 0-6.25.62-7.78 1.85a5.15 5.15 0 0 0-2.02 4.22 4.9 4.9 0 0 0 1.55 3.7 5.35 5.35 0 0 0 3.86 1.47Zm5.07-10.21v6.9c-1.3.9-2.44 1.33-3.4 1.33a3.42 3.42 0 0 1-2.55-1.04 3.6 3.6 0 0 1-1.02-2.63c0-1.42.55-2.53 1.64-3.34 1.1-.81 2.62-1.22 4.56-1.22h.77Z" clip-rule="evenodd"/>
  <path fill="#3C3839" d="M214.91 1.04v22.22c0 1.53.13 2.43.37 2.72.25.3 1.05.49 2.43.57l.31.02v1.06h-9.5v-1.06l.31-.02c1.36-.08 2.16-.28 2.41-.58.26-.3.38-1.2.38-2.7V5.4c0-1.5-.12-2.41-.38-2.7-.25-.3-1.05-.5-2.4-.59l-.32-.01V1.04h6.4Zm14.63 26.47c-.84.35-1.64.53-2.4.53-1.93 0-3.34-.5-4.22-1.46-.9-.98-1.33-2.53-1.33-4.67v-11.2h-2.68V9.33h2.68v-3.3l3.29-.83v4.13h5.07v1.38h-5.07v11.63c0 1.58.2 2.7.62 3.35.41.67 1.12 1 2.12 1 .53 0 1.16-.18 1.92-.53v1.35Zm7.77-14.74a8.86 8.86 0 0 1 2.9-2.89 7.17 7.17 0 0 1 3.67-.96c1.56 0 2.79.52 3.69 1.55.88 1.04 1.32 2.46 1.32 4.26v8.53c.08 1.67.2 2.61.39 2.83.17.2.98.36 2.41.46l.3.02v1.06h-9.5v-1.06l.3-.02c1.44-.1 2.24-.25 2.42-.46.18-.22.3-1.16.39-2.83v-8c0-1.57-.2-2.67-.62-3.28-.4-.61-1.13-.92-2.18-.92a5.7 5.7 0 0 0-2.49.7 15.2 15.2 0 0 0-3 2.12v9.38c0 1.53.12 2.43.37 2.72.24.3 1.05.49 2.42.57l.31.02v1.06h-9.5v-1.06l.32-.02c1.36-.08 2.16-.28 2.41-.58.25-.3.38-1.2.38-2.7V5.4c0-1.5-.13-2.41-.38-2.7-.25-.3-1.05-.5-2.4-.59l-.33-.01V1.04h6.4v11.73Z"/>
</symbol><symbol id="logo-full-optim-black" viewBox="0 0 252 52">
  <g fill="#3C3839" clip-path="url(#a)">
    <path d="M30 16.08a10.32 10.32 0 0 0-1.13-13.07c-3.52-3.55-9-3.94-12.94-1.16A10.02 10.02 0 0 0 2.97 3a10.24 10.24 0 0 0-1.14 13.08 10.32 10.32 0 0 0 1.15 13.1 10.06 10.06 0 0 0 12.94 1.15 10.05 10.05 0 0 0 12.95-1.16 10.2 10.2 0 0 0 2.96-7.23c0-2.13-.64-4.15-1.83-5.86ZM15.94 25 7.1 16.08l8.82-8.91 8.83 8.91L15.93 25ZM3.89 10.23a6.27 6.27 0 0 1 6.24-6.3c1 0 1.94.26 2.81.69l-8.36 8.44a6.27 6.27 0 0 1-.69-2.83ZM5.73 26.4a6.3 6.3 0 0 1-1.14-7.29l8.35 8.43a6.17 6.17 0 0 1-7.21-1.14Zm21.53-7.28a6.27 6.27 0 0 1-1.14 7.29 6.19 6.19 0 0 1-7.21 1.14l8.35-8.43ZM26.12 5.78a6.31 6.31 0 0 1 1.13 7.29L18.9 4.64a6.19 6.19 0 0 1 7.22 1.14Zm19.05 14.28-1.41 3.32a9.06 9.06 0 0 0-.83 2.62c0 .48.73.7 2.16.7h.27v1.07h-6.43v-1.06l.35-.02c.96-.04 1.53-.17 1.72-.36.18-.2.65-1.18 1.4-2.95l8.74-20.97h1.15l8.69 21.1a12.9 12.9 0 0 0 1.44 2.69c.27.28.82.45 1.63.5h.4v1.07h-9.2v-1.06h.3c1.56 0 2.34-.23 2.34-.68 0-.66-.23-1.55-.7-2.65l-1.38-3.33H45.17Zm.55-1.38h9.5L50.5 7.28l-4.78 11.4Zm28.4 8.97a6.2 6.2 0 0 1-2.39.53c-1.93 0-3.34-.5-4.23-1.47-.89-.99-1.33-2.55-1.33-4.69V10.76H63.5V9.38h2.67V6.06l3.3-.84v4.16h5.07v1.37h-5.07v11.7c0 1.58.21 2.7.62 3.36.42.67 1.12 1 2.12 1 .52 0 1.17-.19 1.92-.53v1.35l-.01.02Zm8.73-13.26v8.99c0 1.52.13 2.43.4 2.73.25.31 1.06.5 2.4.57l.72.02v1.06h-9.91V26.7l.32-.02c1.35-.08 2.16-.28 2.41-.58.25-.3.38-1.2.38-2.73v-9.61c0-1.52-.13-2.43-.38-2.72-.25-.29-1.05-.5-2.41-.6l-.32-.01V9.37h6.4v3.45c1.5-2.58 3.49-3.87 5.92-3.87.34 0 .72.07 1.13.19v5.03h-1.85l-.02-.31a9.55 9.55 0 0 0-.32-1.88c-.1-.2-.35-.3-.77-.3-1.66 0-3.02.9-4.09 2.69l-.01.02ZM97.6 9.38v14c0 1.53.12 2.45.37 2.73.24.3 1.05.49 2.42.57l.32.02v1.06h-9.5V26.7l.31-.02c1.36-.08 2.16-.28 2.4-.58.26-.3.39-1.2.39-2.73v-9.61c0-1.52-.13-2.43-.38-2.72-.25-.29-1.05-.5-2.4-.6l-.32-.01V9.37h6.4v.01Zm-3.3-3.32V2.73h3.3v3.33h-3.3Zm22.2 21.71v-3.46a8.93 8.93 0 0 1-2.9 2.9c-1.09.65-2.3.98-3.66.98-1.56 0-2.8-.53-3.68-1.57-.9-1.04-1.35-2.47-1.35-4.28v-8.57c0-1.52-.13-2.42-.38-2.71-.25-.3-1.05-.5-2.4-.6l-.32-.01V9.38h6.4V21.8c0 1.41.25 2.47.75 3.18.5.7 1.24 1.06 2.23 1.06.92 0 1.82-.24 2.7-.72a9.57 9.57 0 0 0 2.6-2.13v-9.42c-.08-1.68-.21-2.62-.39-2.82-.17-.22-.98-.39-2.42-.48l-.3-.02V9.4h6.4v13.99c.07 1.68.2 2.62.38 2.84.18.2.98.37 2.4.46l.33.02v1.06h-6.4v.01Zm9-.97v-4.66h1.86l.03.32c.15 1.7.26 2.64.33 2.86.07.23.36.5.88.85 1 .65 2.13.98 3.36.98 1 0 1.82-.3 2.47-.92.64-.62.97-1.41.97-2.4a3.1 3.1 0 0 0-.64-2.05 6.1 6.1 0 0 0-2.29-1.39l-1.7-.66a10.47 10.47 0 0 1-3.95-2.4 4.56 4.56 0 0 1-1.22-3.22c0-1.49.6-2.72 1.78-3.69a6.87 6.87 0 0 1 4.5-1.46c1.83 0 3.62.35 5.53 1.06v4.38h-1.85v-.3a14.5 14.5 0 0 0-.27-2.3 1.8 1.8 0 0 0-.54-.94 4.12 4.12 0 0 0-2.64-.86c-.97 0-1.79.31-2.43.94a3.16 3.16 0 0 0-.97 2.38c0 .79.27 1.41.79 1.89.51.48 1.55 1.04 3.12 1.68l1.53.65c1.7.7 2.87 1.42 3.54 2.16.66.76.99 1.73.99 2.92 0 1.63-.64 2.97-1.94 4a7.82 7.82 0 0 1-5.03 1.54 14.4 14.4 0 0 1-6.2-1.37v.01Zm28.7-11.32v7.9c0 1.52.12 2.43.36 2.73.25.3 1.05.49 2.41.58l.32.02v1.06h-9.72v-1.06l.32-.02c1.35-.08 2.16-.28 2.4-.58.26-.3.39-1.21.39-2.73V7.12c0-1.52-.13-2.43-.38-2.73-.25-.29-1.05-.48-2.41-.57l-.32-.03V2.73h9.72v1.06l-.31.03c-1.37.09-2.17.28-2.42.57-.25.29-.37 1.2-.37 2.73v6.91H166V7.12c0-1.52-.14-2.43-.39-2.73-.25-.29-1.07-.48-2.42-.57l-.3-.03V2.73h9.73v1.06l-.32.03c-1.36.09-2.17.28-2.42.57-.25.29-.38 1.2-.38 2.73v16.26c0 1.52.13 2.43.38 2.73.24.3 1.05.49 2.42.58l.32.02v1.06h-9.73v-1.06l.3-.02c1.38-.08 2.19-.28 2.43-.57.24-.3.37-1.2.37-2.73v-7.9H154.2Zm34.52 11.46c-2.1.83-4.01 1.25-5.74 1.25a8.4 8.4 0 0 1-6.5-2.73c-1.67-1.82-2.51-4.18-2.51-7.08 0-2.75.75-5.01 2.24-6.77a7.24 7.24 0 0 1 5.77-2.64c2.17 0 3.84.74 5 2.21 1.17 1.48 1.75 3.59 1.75 6.33v.32h-11.11c0 2.86.5 5 1.48 6.47a4.95 4.95 0 0 0 4.4 2.18c2.04 0 3.79-.42 5.22-1.24v1.7ZM177.7 16.79h7.54l.01-.75c0-2.13-.27-3.67-.82-4.62-.55-.95-1.44-1.42-2.68-1.42-1.25 0-2.23.62-2.96 1.85a9.68 9.68 0 0 0-1.1 4.94Zm24.66 8.43c-1.96 1.97-3.92 2.96-5.83 2.96-1.54 0-2.83-.5-3.85-1.49a4.92 4.92 0 0 1-1.55-3.72 5.2 5.2 0 0 1 2.02-4.24c1.53-1.24 4.12-1.86 7.78-1.86h.69v-2.29c0-2.9-1.1-4.35-3.28-4.35a4.2 4.2 0 0 0-2.7.95c-.46.38-.75 1.16-.88 2.34v.32h-2.26v-3.36a16.24 16.24 0 0 1 6.47-1.53c3.96 0 5.93 1.84 5.93 5.5v8.2c0 1.46.13 2.49.38 3.1.25.59.7.88 1.31.88.22 0 .52-.05.9-.14l.1 1.26c-.8.28-1.51.42-2.13.42-1.63 0-2.65-.99-3.09-2.96v.01Zm-.75-.36v-6.94h-.77c-1.94 0-3.46.4-4.56 1.22a3.94 3.94 0 0 0-1.64 3.36c0 1.06.34 1.94 1.02 2.64.68.7 1.53 1.05 2.56 1.05.96 0 2.1-.44 3.4-1.34h-.01Zm13.3-23.82v22.34c0 1.53.13 2.45.37 2.73.24.3 1.05.49 2.42.57l.31.02v1.06h-9.5V26.7l.32-.02c1.36-.08 2.16-.28 2.41-.58.26-.3.38-1.2.38-2.73V5.44c0-1.52-.12-2.43-.38-2.73-.25-.3-1.05-.5-2.41-.59l-.32-.01V1.04h6.4Zm14.63 26.61c-.84.35-1.64.53-2.4.53-1.93 0-3.33-.5-4.23-1.47-.89-.99-1.32-2.55-1.32-4.69V10.76h-2.68V9.38h2.68V6.06l3.28-.84v4.16h5.07v1.37h-5.07v11.7c0 1.58.21 2.7.63 3.36.41.67 1.11 1 2.11 1a4.9 4.9 0 0 0 1.92-.53v1.37Zm7.76-14.82a8.83 8.83 0 0 1 2.9-2.9 7.17 7.17 0 0 1 3.68-.96c1.56 0 2.79.52 3.69 1.55.88 1.05 1.32 2.47 1.32 4.3v8.56c.07 1.68.2 2.62.38 2.84.18.2.99.37 2.42.46l.3.02v1.06h-9.5V26.7l.3-.02c1.43-.1 2.24-.25 2.41-.46.18-.22.31-1.16.4-2.84v-8.04c0-1.58-.22-2.69-.62-3.3-.41-.62-1.14-.92-2.19-.92a5.6 5.6 0 0 0-2.49.7c-.92.47-1.92 1.18-3 2.12v9.44c0 1.53.13 2.45.36 2.73.25.3 1.05.49 2.42.57l.32.02v1.06h-9.5V26.7l.32-.02c1.35-.08 2.15-.28 2.41-.58.26-.3.38-1.2.38-2.73V5.44c0-1.52-.12-2.43-.38-2.73-.25-.3-1.05-.5-2.4-.59l-.33-.01V1.04h6.4v11.8ZM38.38 49.19v-8.9h3.44c1.8 0 2.92 1.11 2.92 2.7s-1.17 2.7-2.93 2.7h-2.05v3.5h-1.38Zm1.37-7.75v3.11h1.9c1.06 0 1.7-.64 1.7-1.56s-.64-1.55-1.7-1.55h-1.9Zm5.89 6.13c0-1.1.58-1.73 2.31-2.03l1.86-.34v-.27c0-.81-.53-1.4-1.4-1.4-.86 0-1.28.5-1.5 1.23l-1.16-.26c.25-1.1 1.16-2.05 2.74-2.05 1.7 0 2.62 1.02 2.62 2.47v4.28h-1.27v-.83c-.56.57-1.35.97-2.18.97-1.24 0-2.03-.75-2.03-1.76l.01-.01Zm2.34.74c.74 0 1.34-.35 1.83-.89V46.1l-1.27.25c-1.27.26-1.65.52-1.65 1.1 0 .53.42.87 1.09.87Zm4.95-5.75h1.28l.02 1.07a2.48 2.48 0 0 1 2.46-1.2l.05 1.23c-1.1-.14-1.95.19-2.51 1.12v4.42h-1.3v-6.64Zm9.37 6.4c-.4.2-.94.34-1.56.34-1.23 0-2.03-.61-2.03-1.95v-3.7h-1.25v-1.1h1.25V40.7H60v1.87h2.07v1.1H60v3.45c0 .74.43 1.03 1.02 1.03.34 0 .61-.05.97-.22l.3 1.05v-.01Zm6.59-6.52c1.86 0 3.27 1.43 3.27 3.46 0 2.03-1.4 3.44-3.27 3.44s-3.27-1.45-3.27-3.44c0-1.98 1.42-3.46 3.27-3.46Zm0 5.76c1.17 0 2-.94 2-2.3 0-1.36-.83-2.32-2-2.32s-1.98.94-1.98 2.32c0 1.39.83 2.3 1.98 2.3Zm8.46-4.55h-2v5.54h-1.3v-5.54h-1.24v-1.1h1.24v-.86c0-1.33.81-2.12 2.11-2.12.64 0 1.16.18 1.5.41l-.48.97a1.74 1.74 0 0 0-.9-.25c-.59 0-.94.33-.94.95v.9h2v1.1Zm12.23 1.1c0 2.68-1.95 4.58-4.36 4.58s-4.36-1.9-4.36-4.58c0-2.69 1.95-4.59 4.36-4.59s4.36 1.9 4.36 4.59Zm-1.4 0c0-1.95-1.27-3.34-2.96-3.34-1.7 0-2.97 1.4-2.97 3.34 0 1.93 1.29 3.33 2.97 3.33 1.68 0 2.97-1.4 2.97-3.33Zm3-2.19h1.27v.72a2.6 2.6 0 0 1 1.96-.83c1.75 0 3.07 1.45 3.07 3.44 0 2-1.35 3.43-3.12 3.44-.74 0-1.39-.25-1.88-.74V52h-1.3v-9.44Zm1.3 1.83v2.96a2.1 2.1 0 0 0 1.68.82c1.2 0 2.03-.95 2.03-2.28 0-1.34-.84-2.31-2.03-2.31-.67 0-1.24.28-1.68.81Zm10.51 4.57c-.4.2-.95.34-1.56.34-1.24 0-2.03-.61-2.03-1.95v-3.7h-1.25v-1.1h1.25V40.7h1.3v1.87h2.07v1.1h-2.08v3.45c0 .74.43 1.03 1.02 1.03.33 0 .61-.05.97-.22l.3 1.05v-.01Zm.95-2.05v-4.35h1.3v4.08c0 1 .59 1.54 1.42 1.54.54 0 1.14-.21 1.67-.74v-4.9h1.31v6.64h-1.27l-.02-.69c-.53.54-1.26.84-2.05.84-1.46 0-2.36-1.02-2.36-2.43v.01Zm7.55-4.35h1.28l.02.75c.5-.54 1.18-.87 2-.87.93 0 1.63.43 2 1.1a2.89 2.89 0 0 1 2.3-1.1c1.44 0 2.32 1 2.32 2.4v4.36h-1.3v-4.05c0-1.02-.56-1.55-1.37-1.55-.64 0-1.2.32-1.67.84.02.13.03.27.03.4v4.37h-1.3v-4.05c0-1.02-.58-1.55-1.39-1.55-.6 0-1.16.29-1.63.79v4.81h-1.3v-6.65Zm11.37-1.4a1.47 1.47 0 1 1 2.94 0 1.47 1.47 0 1 1-2.94-.01Zm2.61 0c0-.7-.49-1.2-1.14-1.2-.64 0-1.12.5-1.12 1.2s.49 1.18 1.13 1.18c.63 0 1.13-.49 1.13-1.18Zm-1.66-.71h.63c.26 0 .43.15.43.42 0 .16-.09.3-.23.38l.34.6h-.36l-.3-.53h-.2v.53h-.32v-1.4Zm.32.25v.37h.22c.15 0 .2-.08.2-.18 0-.1-.05-.19-.18-.19h-.24Z"/>
  </g>
  
</symbol><symbol id="logo-full-optim-white" viewBox="0 0 252 52">
  <g fill="#fff" clip-path="url(#a)">
    <path d="M30 16.08a10.32 10.32 0 0 0-1.13-13.07c-3.52-3.55-9-3.94-12.94-1.16A10.02 10.02 0 0 0 2.97 3a10.24 10.24 0 0 0-1.14 13.08 10.32 10.32 0 0 0 1.15 13.1 10.06 10.06 0 0 0 12.94 1.15 10.05 10.05 0 0 0 12.95-1.16 10.2 10.2 0 0 0 2.96-7.23c0-2.13-.64-4.15-1.83-5.86ZM15.94 25 7.1 16.08l8.82-8.91 8.83 8.91L15.93 25ZM3.89 10.23a6.27 6.27 0 0 1 6.24-6.3c1 0 1.94.26 2.81.69l-8.36 8.44a6.27 6.27 0 0 1-.69-2.83ZM5.73 26.4a6.3 6.3 0 0 1-1.14-7.29l8.35 8.43a6.17 6.17 0 0 1-7.21-1.14Zm21.53-7.28a6.27 6.27 0 0 1-1.14 7.29 6.19 6.19 0 0 1-7.21 1.14l8.35-8.43ZM26.12 5.78a6.31 6.31 0 0 1 1.13 7.29L18.9 4.64a6.19 6.19 0 0 1 7.22 1.14Zm19.05 14.28-1.41 3.32a9.06 9.06 0 0 0-.83 2.62c0 .48.73.7 2.16.7h.27v1.07h-6.43v-1.06l.35-.02c.96-.04 1.53-.17 1.72-.36.18-.2.65-1.18 1.4-2.95l8.74-20.97h1.15l8.69 21.1a12.9 12.9 0 0 0 1.44 2.69c.27.28.82.45 1.63.5h.4v1.07h-9.2v-1.06h.3c1.56 0 2.34-.23 2.34-.68 0-.66-.23-1.55-.7-2.65l-1.38-3.33H45.17Zm.55-1.38h9.5L50.5 7.28l-4.78 11.4Zm28.4 8.97a6.2 6.2 0 0 1-2.39.53c-1.93 0-3.34-.5-4.23-1.47-.89-.99-1.33-2.55-1.33-4.69V10.76H63.5V9.38h2.67V6.06l3.3-.84v4.16h5.07v1.37h-5.07v11.7c0 1.58.21 2.7.62 3.36.42.67 1.12 1 2.12 1 .52 0 1.17-.19 1.92-.53v1.35l-.01.02Zm8.73-13.26v8.99c0 1.52.13 2.43.4 2.73.25.31 1.06.5 2.4.57l.72.02v1.06h-9.91V26.7l.32-.02c1.35-.08 2.16-.28 2.41-.58.25-.3.38-1.2.38-2.73v-9.61c0-1.52-.13-2.43-.38-2.72-.25-.29-1.05-.5-2.41-.6l-.32-.01V9.37h6.4v3.45c1.5-2.58 3.49-3.87 5.92-3.87.34 0 .72.07 1.13.19v5.03h-1.85l-.02-.31a9.55 9.55 0 0 0-.32-1.88c-.1-.2-.35-.3-.77-.3-1.66 0-3.02.9-4.09 2.69l-.01.02ZM97.6 9.38v14c0 1.53.12 2.45.37 2.73.24.3 1.05.49 2.42.57l.32.02v1.06h-9.5V26.7l.31-.02c1.36-.08 2.16-.28 2.4-.58.26-.3.39-1.2.39-2.73v-9.61c0-1.52-.13-2.43-.38-2.72-.25-.29-1.05-.5-2.4-.6l-.32-.01V9.37h6.4v.01Zm-3.3-3.32V2.73h3.3v3.33h-3.3Zm22.2 21.71v-3.46a8.93 8.93 0 0 1-2.9 2.9c-1.09.65-2.3.98-3.66.98-1.56 0-2.8-.53-3.68-1.57-.9-1.04-1.35-2.47-1.35-4.28v-8.57c0-1.52-.13-2.42-.38-2.71-.25-.3-1.05-.5-2.4-.6l-.32-.01V9.38h6.4V21.8c0 1.41.25 2.47.75 3.18.5.7 1.24 1.06 2.23 1.06.92 0 1.82-.24 2.7-.72a9.57 9.57 0 0 0 2.6-2.13v-9.42c-.08-1.68-.21-2.62-.39-2.82-.17-.22-.98-.39-2.42-.48l-.3-.02V9.4h6.4v13.99c.07 1.68.2 2.62.38 2.84.18.2.98.37 2.4.46l.33.02v1.06h-6.4v.01Zm9-.97v-4.66h1.86l.03.32c.15 1.7.26 2.64.33 2.86.07.23.36.5.88.85 1 .65 2.13.98 3.36.98 1 0 1.82-.3 2.47-.92.64-.62.97-1.41.97-2.4a3.1 3.1 0 0 0-.64-2.05 6.1 6.1 0 0 0-2.29-1.39l-1.7-.66a10.47 10.47 0 0 1-3.95-2.4 4.56 4.56 0 0 1-1.22-3.22c0-1.49.6-2.72 1.78-3.69a6.87 6.87 0 0 1 4.5-1.46c1.83 0 3.62.35 5.53 1.06v4.38h-1.85v-.3a14.5 14.5 0 0 0-.27-2.3 1.8 1.8 0 0 0-.54-.94 4.12 4.12 0 0 0-2.64-.86c-.97 0-1.79.31-2.43.94a3.16 3.16 0 0 0-.97 2.38c0 .79.27 1.41.79 1.89.51.48 1.55 1.04 3.12 1.68l1.53.65c1.7.7 2.87 1.42 3.54 2.16.66.76.99 1.73.99 2.92 0 1.63-.64 2.97-1.94 4a7.82 7.82 0 0 1-5.03 1.54 14.4 14.4 0 0 1-6.2-1.37v.01Zm28.7-11.32v7.9c0 1.52.12 2.43.36 2.73.25.3 1.05.49 2.41.58l.32.02v1.06h-9.72v-1.06l.32-.02c1.35-.08 2.16-.28 2.4-.58.26-.3.39-1.21.39-2.73V7.12c0-1.52-.13-2.43-.38-2.73-.25-.29-1.05-.48-2.41-.57l-.32-.03V2.73h9.72v1.06l-.31.03c-1.37.09-2.17.28-2.42.57-.25.29-.37 1.2-.37 2.73v6.91H166V7.12c0-1.52-.14-2.43-.39-2.73-.25-.29-1.07-.48-2.42-.57l-.3-.03V2.73h9.73v1.06l-.32.03c-1.36.09-2.17.28-2.42.57-.25.29-.38 1.2-.38 2.73v16.26c0 1.52.13 2.43.38 2.73.24.3 1.05.49 2.42.58l.32.02v1.06h-9.73v-1.06l.3-.02c1.38-.08 2.19-.28 2.43-.57.24-.3.37-1.2.37-2.73v-7.9H154.2Zm34.52 11.46c-2.1.83-4.01 1.25-5.74 1.25a8.4 8.4 0 0 1-6.5-2.73c-1.67-1.82-2.51-4.18-2.51-7.08 0-2.75.75-5.01 2.24-6.77a7.24 7.24 0 0 1 5.77-2.64c2.17 0 3.84.74 5 2.21 1.17 1.48 1.75 3.59 1.75 6.33v.32h-11.11c0 2.86.5 5 1.48 6.47a4.95 4.95 0 0 0 4.4 2.18c2.04 0 3.79-.42 5.22-1.24v1.7ZM177.7 16.79h7.54l.01-.75c0-2.13-.27-3.67-.82-4.62-.55-.95-1.44-1.42-2.68-1.42-1.25 0-2.23.62-2.96 1.85a9.68 9.68 0 0 0-1.1 4.94Zm24.66 8.43c-1.96 1.97-3.92 2.96-5.83 2.96-1.54 0-2.83-.5-3.85-1.49a4.92 4.92 0 0 1-1.55-3.72 5.2 5.2 0 0 1 2.02-4.24c1.53-1.24 4.12-1.86 7.78-1.86h.69v-2.29c0-2.9-1.1-4.35-3.28-4.35a4.2 4.2 0 0 0-2.7.95c-.46.38-.75 1.16-.88 2.34v.32h-2.26v-3.36a16.24 16.24 0 0 1 6.47-1.53c3.96 0 5.93 1.84 5.93 5.5v8.2c0 1.46.13 2.49.38 3.1.25.59.7.88 1.31.88.22 0 .52-.05.9-.14l.1 1.26c-.8.28-1.51.42-2.13.42-1.63 0-2.65-.99-3.09-2.96v.01Zm-.75-.36v-6.94h-.77c-1.94 0-3.46.4-4.56 1.22a3.94 3.94 0 0 0-1.64 3.36c0 1.06.34 1.94 1.02 2.64.68.7 1.53 1.05 2.56 1.05.96 0 2.1-.44 3.4-1.34h-.01Zm13.3-23.82v22.34c0 1.53.13 2.45.37 2.73.24.3 1.05.49 2.42.57l.31.02v1.06h-9.5V26.7l.32-.02c1.36-.08 2.16-.28 2.41-.58.26-.3.38-1.2.38-2.73V5.44c0-1.52-.12-2.43-.38-2.73-.25-.3-1.05-.5-2.41-.59l-.32-.01V1.04h6.4Zm14.63 26.61c-.84.35-1.64.53-2.4.53-1.93 0-3.33-.5-4.23-1.47-.89-.99-1.32-2.55-1.32-4.69V10.76h-2.68V9.38h2.68V6.06l3.28-.84v4.16h5.07v1.37h-5.07v11.7c0 1.58.21 2.7.63 3.36.41.67 1.11 1 2.11 1a4.9 4.9 0 0 0 1.92-.53v1.37Zm7.76-14.82a8.83 8.83 0 0 1 2.9-2.9 7.17 7.17 0 0 1 3.68-.96c1.56 0 2.79.52 3.69 1.55.88 1.05 1.32 2.47 1.32 4.3v8.56c.07 1.68.2 2.62.38 2.84.18.2.99.37 2.42.46l.3.02v1.06h-9.5V26.7l.3-.02c1.43-.1 2.24-.25 2.41-.46.18-.22.31-1.16.4-2.84v-8.04c0-1.58-.22-2.69-.62-3.3-.41-.62-1.14-.92-2.19-.92a5.6 5.6 0 0 0-2.49.7c-.92.47-1.92 1.18-3 2.12v9.44c0 1.53.13 2.45.36 2.73.25.3 1.05.49 2.42.57l.32.02v1.06h-9.5V26.7l.32-.02c1.35-.08 2.15-.28 2.41-.58.26-.3.38-1.2.38-2.73V5.44c0-1.52-.12-2.43-.38-2.73-.25-.3-1.05-.5-2.4-.59l-.33-.01V1.04h6.4v11.8ZM38.38 49.19v-8.9h3.44c1.8 0 2.92 1.11 2.92 2.7s-1.17 2.7-2.93 2.7h-2.05v3.5h-1.38Zm1.37-7.75v3.11h1.9c1.06 0 1.7-.64 1.7-1.56s-.64-1.55-1.7-1.55h-1.9Zm5.89 6.13c0-1.1.58-1.73 2.31-2.03l1.86-.34v-.27c0-.81-.53-1.4-1.4-1.4-.86 0-1.28.5-1.5 1.23l-1.16-.26c.25-1.1 1.16-2.05 2.74-2.05 1.7 0 2.62 1.02 2.62 2.47v4.28h-1.27v-.83c-.56.57-1.35.97-2.18.97-1.24 0-2.03-.75-2.03-1.76l.01-.01Zm2.34.74c.74 0 1.34-.35 1.83-.89V46.1l-1.27.25c-1.27.26-1.65.52-1.65 1.1 0 .53.42.87 1.09.87Zm4.95-5.75h1.28l.02 1.07a2.48 2.48 0 0 1 2.46-1.2l.05 1.23c-1.1-.14-1.95.19-2.51 1.12v4.42h-1.3v-6.64Zm9.37 6.4c-.4.2-.94.34-1.56.34-1.23 0-2.03-.61-2.03-1.95v-3.7h-1.25v-1.1h1.25V40.7H60v1.87h2.07v1.1H60v3.45c0 .74.43 1.03 1.02 1.03.34 0 .61-.05.97-.22l.3 1.05v-.01Zm6.59-6.52c1.86 0 3.27 1.43 3.27 3.46 0 2.03-1.4 3.44-3.27 3.44s-3.27-1.45-3.27-3.44c0-1.98 1.42-3.46 3.27-3.46Zm0 5.76c1.17 0 2-.94 2-2.3 0-1.36-.83-2.32-2-2.32s-1.98.94-1.98 2.32c0 1.39.83 2.3 1.98 2.3Zm8.46-4.55h-2v5.54h-1.3v-5.54h-1.24v-1.1h1.24v-.86c0-1.33.81-2.12 2.11-2.12.64 0 1.16.18 1.5.41l-.48.97a1.74 1.74 0 0 0-.9-.25c-.59 0-.94.33-.94.95v.9h2v1.1Zm12.23 1.1c0 2.68-1.95 4.58-4.36 4.58s-4.36-1.9-4.36-4.58c0-2.69 1.95-4.59 4.36-4.59s4.36 1.9 4.36 4.59Zm-1.4 0c0-1.95-1.27-3.34-2.96-3.34-1.7 0-2.97 1.4-2.97 3.34 0 1.93 1.29 3.33 2.97 3.33 1.68 0 2.97-1.4 2.97-3.33Zm3-2.19h1.27v.72a2.6 2.6 0 0 1 1.96-.83c1.75 0 3.07 1.45 3.07 3.44 0 2-1.35 3.43-3.12 3.44-.74 0-1.39-.25-1.88-.74V52h-1.3v-9.44Zm1.3 1.83v2.96a2.1 2.1 0 0 0 1.68.82c1.2 0 2.03-.95 2.03-2.28 0-1.34-.84-2.31-2.03-2.31-.67 0-1.24.28-1.68.81Zm10.51 4.57c-.4.2-.95.34-1.56.34-1.24 0-2.03-.61-2.03-1.95v-3.7h-1.25v-1.1h1.25V40.7h1.3v1.87h2.07v1.1h-2.08v3.45c0 .74.43 1.03 1.02 1.03.33 0 .61-.05.97-.22l.3 1.05v-.01Zm.95-2.05v-4.35h1.3v4.08c0 1 .59 1.54 1.42 1.54.54 0 1.14-.21 1.67-.74v-4.9h1.31v6.64h-1.27l-.02-.69c-.53.54-1.26.84-2.05.84-1.46 0-2.36-1.02-2.36-2.43v.01Zm7.55-4.35h1.28l.02.75c.5-.54 1.18-.87 2-.87.93 0 1.63.43 2 1.1a2.89 2.89 0 0 1 2.3-1.1c1.44 0 2.32 1 2.32 2.4v4.36h-1.3v-4.05c0-1.02-.56-1.55-1.37-1.55-.64 0-1.2.32-1.67.84.02.13.03.27.03.4v4.37h-1.3v-4.05c0-1.02-.58-1.55-1.39-1.55-.6 0-1.16.29-1.63.79v4.81h-1.3v-6.65Zm11.37-1.4a1.47 1.47 0 1 1 2.94 0 1.47 1.47 0 1 1-2.94-.01Zm2.61 0c0-.7-.49-1.2-1.14-1.2-.64 0-1.12.5-1.12 1.2s.49 1.18 1.13 1.18c.63 0 1.13-.49 1.13-1.18Zm-1.66-.71h.63c.26 0 .43.15.43.42 0 .16-.09.3-.23.38l.34.6h-.36l-.3-.53h-.2v.53h-.32v-1.4Zm.32.25v.37h.22c.15 0 .2-.08.2-.18 0-.1-.05-.19-.18-.19h-.24Z"/>
  </g>
  
</symbol><symbol id="logo-full-optim" viewBox="0 0 252 52">
  <g clip-path="url(#a)">
    <path fill="#0083BE" d="M30 16.08a10.32 10.32 0 0 0-1.13-13.07c-3.52-3.55-9-3.94-12.94-1.16A10.02 10.02 0 0 0 2.97 3a10.24 10.24 0 0 0-1.14 13.08 10.32 10.32 0 0 0 1.15 13.1 10.06 10.06 0 0 0 12.94 1.15 10.05 10.05 0 0 0 12.95-1.16 10.2 10.2 0 0 0 2.96-7.23c0-2.13-.64-4.15-1.83-5.86ZM15.94 25 7.1 16.08l8.82-8.91 8.83 8.91L15.93 25ZM3.89 10.23a6.27 6.27 0 0 1 6.24-6.3c1 0 1.94.26 2.81.69l-8.36 8.44a6.27 6.27 0 0 1-.69-2.83ZM5.73 26.4a6.3 6.3 0 0 1-1.14-7.29l8.35 8.43a6.17 6.17 0 0 1-7.21-1.14Zm21.53-7.28a6.27 6.27 0 0 1-1.14 7.29 6.19 6.19 0 0 1-7.21 1.14l8.35-8.43ZM26.12 5.78a6.31 6.31 0 0 1 1.13 7.29L18.9 4.64a6.19 6.19 0 0 1 7.22 1.14Z"/>
    <path fill="#1E1E1E" d="m45.17 20.06-1.41 3.32a9.06 9.06 0 0 0-.83 2.62c0 .48.73.7 2.16.7h.27v1.07h-6.43v-1.06l.35-.02c.96-.04 1.53-.17 1.72-.36.18-.2.65-1.18 1.4-2.95l8.74-20.97h1.15l8.69 21.1a12.9 12.9 0 0 0 1.44 2.69c.27.28.82.45 1.63.5h.4v1.07h-9.2v-1.06h.3c1.56 0 2.34-.23 2.34-.68 0-.66-.23-1.55-.7-2.65l-1.38-3.33H45.17Zm.55-1.38h9.5L50.5 7.28l-4.78 11.4Zm28.4 8.97a6.2 6.2 0 0 1-2.39.53c-1.93 0-3.34-.5-4.23-1.47-.89-.99-1.33-2.55-1.33-4.69V10.76H63.5V9.38h2.67V6.06l3.3-.84v4.16h5.07v1.37h-5.07v11.7c0 1.58.21 2.7.62 3.36.42.67 1.12 1 2.12 1 .52 0 1.17-.19 1.92-.53v1.35l-.01.02Zm8.73-13.26v8.99c0 1.52.13 2.43.4 2.73.25.31 1.06.5 2.4.57l.72.02v1.06h-9.91V26.7l.32-.02c1.35-.08 2.16-.28 2.41-.58.25-.3.38-1.2.38-2.73v-9.61c0-1.52-.13-2.43-.38-2.72-.25-.29-1.05-.5-2.41-.6l-.32-.01V9.37h6.4v3.45c1.5-2.58 3.49-3.87 5.92-3.87.34 0 .72.07 1.13.19v5.03h-1.85l-.02-.31a9.55 9.55 0 0 0-.32-1.88c-.1-.2-.35-.3-.77-.3-1.66 0-3.02.9-4.09 2.69l-.01.02ZM97.6 9.38v14c0 1.53.12 2.45.37 2.73.24.3 1.05.49 2.42.57l.32.02v1.06h-9.5V26.7l.31-.02c1.36-.08 2.16-.28 2.4-.58.26-.3.39-1.2.39-2.73v-9.61c0-1.52-.13-2.43-.38-2.72-.25-.29-1.05-.5-2.4-.6l-.32-.01V9.37h6.4v.01Zm-3.3-3.32V2.73h3.3v3.33h-3.3Zm22.2 21.71v-3.46a8.93 8.93 0 0 1-2.9 2.9c-1.09.65-2.3.98-3.66.98-1.56 0-2.8-.53-3.68-1.57-.9-1.04-1.35-2.47-1.35-4.28v-8.57c0-1.52-.13-2.42-.38-2.71-.25-.3-1.05-.5-2.4-.6l-.32-.01V9.38h6.4V21.8c0 1.41.25 2.47.75 3.18.5.7 1.24 1.06 2.23 1.06.92 0 1.82-.24 2.7-.72a9.57 9.57 0 0 0 2.6-2.13v-9.42c-.08-1.68-.21-2.62-.39-2.82-.17-.22-.98-.39-2.42-.48l-.3-.02V9.4h6.4v13.99c.07 1.68.2 2.62.38 2.84.18.2.98.37 2.4.46l.33.02v1.06h-6.4v.01Zm9-.97v-4.66h1.86l.03.32c.15 1.7.26 2.64.33 2.86.07.23.36.5.88.85 1 .65 2.13.98 3.36.98 1 0 1.82-.3 2.47-.92.64-.62.97-1.41.97-2.4a3.1 3.1 0 0 0-.64-2.05 6.1 6.1 0 0 0-2.29-1.39l-1.7-.66a10.47 10.47 0 0 1-3.95-2.4 4.56 4.56 0 0 1-1.22-3.22c0-1.49.6-2.72 1.78-3.69a6.87 6.87 0 0 1 4.5-1.46c1.83 0 3.62.35 5.53 1.06v4.38h-1.85v-.3a14.5 14.5 0 0 0-.27-2.3 1.8 1.8 0 0 0-.54-.94 4.12 4.12 0 0 0-2.64-.86c-.97 0-1.79.31-2.43.94a3.16 3.16 0 0 0-.97 2.38c0 .79.27 1.41.79 1.89.51.48 1.55 1.04 3.12 1.68l1.53.65c1.7.7 2.87 1.42 3.54 2.16.66.76.99 1.73.99 2.92 0 1.63-.64 2.97-1.94 4a7.82 7.82 0 0 1-5.03 1.54 14.4 14.4 0 0 1-6.2-1.37v.01Zm28.7-11.32v7.9c0 1.52.12 2.43.36 2.73.25.3 1.05.49 2.41.58l.32.02v1.06h-9.72v-1.06l.32-.02c1.35-.08 2.16-.28 2.4-.58.26-.3.39-1.21.39-2.73V7.12c0-1.52-.13-2.43-.38-2.73-.25-.29-1.05-.48-2.41-.57l-.32-.03V2.73h9.72v1.06l-.31.03c-1.37.09-2.17.28-2.42.57-.25.29-.37 1.2-.37 2.73v6.91H166V7.12c0-1.52-.14-2.43-.39-2.73-.25-.29-1.07-.48-2.42-.57l-.3-.03V2.73h9.73v1.06l-.32.03c-1.36.09-2.17.28-2.42.57-.25.29-.38 1.2-.38 2.73v16.26c0 1.52.13 2.43.38 2.73.24.3 1.05.49 2.42.58l.32.02v1.06h-9.73v-1.06l.3-.02c1.38-.08 2.19-.28 2.43-.57.24-.3.37-1.2.37-2.73v-7.9H154.2Zm34.52 11.46c-2.1.83-4.01 1.25-5.74 1.25a8.4 8.4 0 0 1-6.5-2.73c-1.67-1.82-2.51-4.18-2.51-7.08 0-2.75.75-5.01 2.24-6.77a7.24 7.24 0 0 1 5.77-2.64c2.17 0 3.84.74 5 2.21 1.17 1.48 1.75 3.59 1.75 6.33v.32h-11.11c0 2.86.5 5 1.48 6.47a4.95 4.95 0 0 0 4.4 2.18c2.04 0 3.79-.42 5.22-1.24v1.7ZM177.7 16.79h7.54l.01-.75c0-2.13-.27-3.67-.82-4.62-.55-.95-1.44-1.42-2.68-1.42-1.25 0-2.23.62-2.96 1.85a9.68 9.68 0 0 0-1.1 4.94Zm24.66 8.43c-1.96 1.97-3.92 2.96-5.83 2.96-1.54 0-2.83-.5-3.85-1.49a4.92 4.92 0 0 1-1.55-3.72 5.2 5.2 0 0 1 2.02-4.24c1.53-1.24 4.12-1.86 7.78-1.86h.69v-2.29c0-2.9-1.1-4.35-3.28-4.35a4.2 4.2 0 0 0-2.7.95c-.46.38-.75 1.16-.88 2.34v.32h-2.26v-3.36a16.24 16.24 0 0 1 6.47-1.53c3.96 0 5.93 1.84 5.93 5.5v8.2c0 1.46.13 2.49.38 3.1.25.59.7.88 1.31.88.22 0 .52-.05.9-.14l.1 1.26c-.8.28-1.51.42-2.13.42-1.63 0-2.65-.99-3.09-2.96v.01Zm-.75-.36v-6.94h-.77c-1.94 0-3.46.4-4.56 1.22a3.94 3.94 0 0 0-1.64 3.36c0 1.06.34 1.94 1.02 2.64.68.7 1.53 1.05 2.56 1.05.96 0 2.1-.44 3.4-1.34h-.01Zm13.3-23.82v22.34c0 1.53.13 2.45.37 2.73.24.3 1.05.49 2.42.57l.31.02v1.06h-9.5V26.7l.32-.02c1.36-.08 2.16-.28 2.41-.58.26-.3.38-1.2.38-2.73V5.44c0-1.52-.12-2.43-.38-2.73-.25-.3-1.05-.5-2.41-.59l-.32-.01V1.04h6.4Zm14.63 26.61c-.84.35-1.64.53-2.4.53-1.93 0-3.33-.5-4.23-1.47-.89-.99-1.32-2.55-1.32-4.69V10.76h-2.68V9.38h2.68V6.06l3.28-.84v4.16h5.07v1.37h-5.07v11.7c0 1.58.21 2.7.63 3.36.41.67 1.11 1 2.11 1a4.9 4.9 0 0 0 1.92-.53v1.37Zm7.76-14.82a8.83 8.83 0 0 1 2.9-2.9 7.17 7.17 0 0 1 3.68-.96c1.56 0 2.79.52 3.69 1.55.88 1.05 1.32 2.47 1.32 4.3v8.56c.07 1.68.2 2.62.38 2.84.18.2.99.37 2.42.46l.3.02v1.06h-9.5V26.7l.3-.02c1.43-.1 2.24-.25 2.41-.46.18-.22.31-1.16.4-2.84v-8.04c0-1.58-.22-2.69-.62-3.3-.41-.62-1.14-.92-2.19-.92a5.6 5.6 0 0 0-2.49.7c-.92.47-1.92 1.18-3 2.12v9.44c0 1.53.13 2.45.36 2.73.25.3 1.05.49 2.42.57l.32.02v1.06h-9.5V26.7l.32-.02c1.35-.08 2.15-.28 2.41-.58.26-.3.38-1.2.38-2.73V5.44c0-1.52-.12-2.43-.38-2.73-.25-.3-1.05-.5-2.4-.59l-.33-.01V1.04h6.4v11.8Z"/>
    <path fill="#5A5A5A" d="M38.38 49.19v-8.9h3.44c1.8 0 2.92 1.11 2.92 2.7s-1.17 2.7-2.93 2.7h-2.05v3.5h-1.38Zm1.37-7.75v3.11h1.9c1.06 0 1.7-.64 1.7-1.56s-.64-1.55-1.7-1.55h-1.9Zm5.89 6.13c0-1.1.58-1.73 2.31-2.03l1.86-.34v-.27c0-.81-.53-1.4-1.4-1.4-.86 0-1.28.5-1.5 1.23l-1.16-.26c.25-1.1 1.16-2.05 2.74-2.05 1.7 0 2.62 1.02 2.62 2.47v4.28h-1.27v-.83c-.56.57-1.35.97-2.18.97-1.24 0-2.03-.75-2.03-1.76l.01-.01Zm2.34.74c.74 0 1.34-.35 1.83-.89V46.1l-1.27.25c-1.27.26-1.65.52-1.65 1.1 0 .53.42.87 1.09.87Zm4.95-5.75h1.28l.02 1.07a2.48 2.48 0 0 1 2.46-1.2l.05 1.23c-1.1-.14-1.95.19-2.51 1.12v4.42h-1.3v-6.64Zm9.37 6.4c-.4.2-.94.34-1.56.34-1.23 0-2.03-.61-2.03-1.95v-3.7h-1.25v-1.1h1.25V40.7H60v1.87h2.07v1.1H60v3.45c0 .74.43 1.03 1.02 1.03.34 0 .61-.05.97-.22l.3 1.05v-.01Zm6.59-6.52c1.86 0 3.27 1.43 3.27 3.46 0 2.03-1.4 3.44-3.27 3.44s-3.27-1.45-3.27-3.44c0-1.98 1.42-3.46 3.27-3.46Zm0 5.76c1.17 0 2-.94 2-2.3 0-1.36-.83-2.32-2-2.32s-1.98.94-1.98 2.32c0 1.39.83 2.3 1.98 2.3Zm8.46-4.55h-2v5.54h-1.3v-5.54h-1.24v-1.1h1.24v-.86c0-1.33.81-2.12 2.11-2.12.64 0 1.16.18 1.5.41l-.48.97a1.74 1.74 0 0 0-.9-.25c-.59 0-.94.33-.94.95v.9h2v1.1Zm12.23 1.1c0 2.68-1.95 4.58-4.36 4.58s-4.36-1.9-4.36-4.58c0-2.69 1.95-4.59 4.36-4.59s4.36 1.9 4.36 4.59Zm-1.4 0c0-1.95-1.27-3.34-2.96-3.34-1.7 0-2.97 1.4-2.97 3.34 0 1.93 1.29 3.33 2.97 3.33 1.68 0 2.97-1.4 2.97-3.33Zm3-2.19h1.27v.72a2.6 2.6 0 0 1 1.96-.83c1.75 0 3.07 1.45 3.07 3.44 0 2-1.35 3.43-3.12 3.44-.74 0-1.39-.25-1.88-.74V52h-1.3v-9.44Zm1.3 1.83v2.96a2.1 2.1 0 0 0 1.68.82c1.2 0 2.03-.95 2.03-2.28 0-1.34-.84-2.31-2.03-2.31-.67 0-1.24.28-1.68.81Zm10.51 4.57c-.4.2-.95.34-1.56.34-1.24 0-2.03-.61-2.03-1.95v-3.7h-1.25v-1.1h1.25V40.7h1.3v1.87h2.07v1.1h-2.08v3.45c0 .74.43 1.03 1.02 1.03.33 0 .61-.05.97-.22l.3 1.05v-.01Zm.95-2.05v-4.35h1.3v4.08c0 1 .59 1.54 1.42 1.54.54 0 1.14-.21 1.67-.74v-4.9h1.31v6.64h-1.27l-.02-.69c-.53.54-1.26.84-2.05.84-1.46 0-2.36-1.02-2.36-2.43v.01Zm7.55-4.35h1.28l.02.75c.5-.54 1.18-.87 2-.87.93 0 1.63.43 2 1.1a2.89 2.89 0 0 1 2.3-1.1c1.44 0 2.32 1 2.32 2.4v4.36h-1.3v-4.05c0-1.02-.56-1.55-1.37-1.55-.64 0-1.2.32-1.67.84.02.13.03.27.03.4v4.37h-1.3v-4.05c0-1.02-.58-1.55-1.39-1.55-.6 0-1.16.29-1.63.79v4.81h-1.3v-6.65Zm11.37-1.4a1.47 1.47 0 1 1 2.94 0 1.47 1.47 0 1 1-2.94-.01Zm2.61 0c0-.7-.49-1.2-1.14-1.2-.64 0-1.12.5-1.12 1.2s.49 1.18 1.13 1.18c.63 0 1.13-.49 1.13-1.18Zm-1.66-.71h.63c.26 0 .43.15.43.42 0 .16-.09.3-.23.38l.34.6h-.36l-.3-.53h-.2v.53h-.32v-1.4Zm.32.25v.37h.22c.15 0 .2-.08.2-.18 0-.1-.05-.19-.18-.19h-.24Z"/>
  </g>
  
</symbol><symbol id="logo-full-white" viewBox="0 0 252 32">
  <path fill="#fff" fill-rule="evenodd" d="M28.87 3A10.23 10.23 0 0 1 30 16a10.2 10.2 0 0 1 1.83 5.83 10.13 10.13 0 0 1-15.93 8.34 10.11 10.11 0 0 1-12.94-1.15 10.23 10.23 0 0 1-1.14-13.01 10.15 10.15 0 0 1 14.1-14.17 10.1 10.1 0 0 1 12.94 1.15Zm-.92 18.83c0-1-.26-1.95-.7-2.82l-8.35 8.4a6.21 6.21 0 0 0 9.05-5.58Zm0-11.64a6.2 6.2 0 0 0-9.04-5.57L27.24 13c.44-.89.7-1.85.7-2.82ZM5.72 26.25a6.26 6.26 0 0 1-1.13-7.24l3.45 3.46v.01l.02.02h.01l4.87 4.9a6.2 6.2 0 0 1-7.22-1.15Zm0-20.5A6.24 6.24 0 0 0 4.58 13l8.36-8.4a6.18 6.18 0 0 0-7.22 1.14Zm10.2 19.12L7.1 16l8.81-8.86L24.74 16l-8.82 8.86Zm27.83-1.61 1.42-3.3H55.8l1.38 3.3c.47 1.1.7 1.98.7 2.64 0 .45-.78.67-2.34.67h-.3v1.06h9.2v-1.06l-.4-.02c-.8-.04-1.35-.2-1.63-.49-.28-.28-.76-1.18-1.44-2.68L52.29 2.4h-1.15l-8.75 20.86A18.14 18.14 0 0 1 41 26.2c-.18.2-.75.32-1.71.36l-.35.02v1.06h6.43v-1.06h-.27c-1.44 0-2.16-.23-2.16-.7 0-.44.28-1.3.82-2.61Zm11.46-4.68h-9.49L50.5 7.24l4.71 11.34Z" clip-rule="evenodd"/>
  <path fill="#fff" d="M74.12 27.51c-.83.35-1.63.53-2.39.53-1.93 0-3.34-.5-4.22-1.46-.9-.98-1.34-2.53-1.34-4.67v-11.2H63.5V9.33h2.67v-3.3l3.3-.83v4.13h5.07v1.38h-5.07v11.63c0 1.58.2 2.7.62 3.35.41.67 1.12 1 2.12 1 .52 0 1.16-.18 1.91-.53v1.35Zm8.73-13.19v8.94c0 1.51.13 2.42.4 2.72.26.3 1.06.5 2.4.57l.72.02v1.06h-9.92v-1.06l.32-.02c1.36-.08 2.16-.28 2.41-.58.25-.3.38-1.2.38-2.7v-9.58c0-1.5-.13-2.41-.38-2.7-.25-.29-1.05-.49-2.4-.59l-.33-.01V9.33h6.4v3.44c1.51-2.56 3.49-3.85 5.93-3.85a4 4 0 0 1 1.12.19v5h-1.85l-.01-.3a9.05 9.05 0 0 0-.33-1.87c-.1-.2-.35-.3-.77-.3-1.66 0-3.02.9-4.09 2.68Z"/>
  <path fill="#fff" fill-rule="evenodd" d="M97.6 23.26V9.33h-6.4v1.06l.33.01c1.35.1 2.15.3 2.4.6.26.28.38 1.19.38 2.7v9.56c0 1.52-.12 2.42-.38 2.71-.25.3-1.05.5-2.4.58l-.32.02v1.06h9.5v-1.06l-.32-.02c-1.37-.08-2.17-.27-2.42-.57-.24-.29-.36-1.2-.36-2.72ZM94.32 6.03V2.72h3.3v3.3h-3.3Z" clip-rule="evenodd"/>
  <path fill="#fff" d="M116.5 27.63v-3.45a8.98 8.98 0 0 1-2.9 2.89 7.04 7.04 0 0 1-3.66.97 4.6 4.6 0 0 1-3.68-1.57c-.9-1.03-1.35-2.45-1.35-4.26V13.7c0-1.51-.12-2.42-.37-2.7-.26-.3-1.06-.5-2.41-.6l-.32-.01V9.33h6.4v12.35c0 1.4.25 2.46.75 3.16.49.7 1.24 1.06 2.23 1.06.92 0 1.82-.24 2.7-.71a9.7 9.7 0 0 0 2.6-2.12V13.7c-.07-1.67-.2-2.62-.38-2.82-.18-.22-.98-.38-2.42-.48l-.3-.01V9.33h6.4v13.93c.07 1.67.2 2.61.38 2.83.18.2.98.36 2.4.46l.33.02v1.06h-6.4Zm9-.96v-4.65h1.86l.03.32c.15 1.68.26 2.63.34 2.85.07.22.36.5.87.84 1 .65 2.13.97 3.37.97 1 0 1.82-.3 2.47-.91.64-.62.96-1.4.96-2.38 0-.85-.22-1.53-.64-2.04a6.1 6.1 0 0 0-2.29-1.38l-1.7-.66c-1.82-.7-3.14-1.5-3.95-2.39a4.52 4.52 0 0 1-1.22-3.2c0-1.48.59-2.7 1.77-3.67a6.87 6.87 0 0 1 4.5-1.45c1.79 0 3.62.35 5.53 1.05v4.36h-1.85v-.3a14 14 0 0 0-.27-2.28c-.11-.42-.3-.73-.54-.94a4.16 4.16 0 0 0-2.64-.86c-.98 0-1.79.32-2.43.95a3.14 3.14 0 0 0-.96 2.36c0 .79.25 1.41.78 1.88.51.48 1.55 1.04 3.12 1.68l1.53.64c1.7.7 2.87 1.42 3.54 2.16.66.75.99 1.71.99 2.9 0 1.62-.64 2.95-1.93 3.98a7.85 7.85 0 0 1-5.04 1.54c-2.18 0-4.24-.46-6.2-1.37Zm28.69-11.27v7.86c0 1.51.12 2.42.37 2.71.24.3 1.05.5 2.41.58l.33.02v1.06h-9.73v-1.06l.31-.02c1.36-.08 2.16-.28 2.41-.58.26-.3.38-1.2.38-2.7V7.06c0-1.5-.12-2.4-.38-2.7-.25-.29-1.05-.48-2.4-.57l-.32-.03V2.72h9.73v1.05l-.33.03c-1.36.1-2.17.28-2.4.57-.26.3-.38 1.2-.38 2.7v6.89h11.79V7.08c0-1.52-.13-2.42-.38-2.71-.25-.29-1.07-.48-2.42-.57l-.31-.03V2.72h9.73v1.05l-.32.03c-1.36.1-2.17.28-2.42.57-.25.3-.37 1.2-.37 2.7v16.2c0 1.5.12 2.4.37 2.7.25.3 1.06.5 2.42.58l.32.02v1.06h-9.73v-1.06l.3-.02c1.38-.08 2.19-.27 2.44-.57.24-.29.37-1.2.37-2.72v-7.85h-11.8Z"/>
  <path fill="#fff" fill-rule="evenodd" d="M182.98 28.04c1.73 0 3.64-.41 5.74-1.24v-1.7a10.38 10.38 0 0 1-5.23 1.24 4.97 4.97 0 0 1-4.4-2.17c-.99-1.45-1.48-3.59-1.48-6.44h11.11v-.31c0-2.73-.58-4.83-1.75-6.3-1.17-1.47-2.83-2.2-5-2.2-2.34 0-4.27.88-5.77 2.63s-2.24 4-2.24 6.73c0 2.9.83 5.24 2.5 7.05a8.47 8.47 0 0 0 6.52 2.7Zm2.24-11.34h-7.54c0-2.05.37-3.69 1.1-4.91.73-1.23 1.72-1.84 2.96-1.84s2.13.48 2.68 1.42c.55.94.82 2.47.82 4.6l-.02.73Zm11.31 11.34c1.92 0 3.87-.98 5.83-2.94.44 1.96 1.47 2.94 3.09 2.94a6.5 6.5 0 0 0 2.13-.42l-.1-1.25c-.37.1-.67.14-.9.14-.61 0-1.06-.3-1.3-.89a8.73 8.73 0 0 1-.38-3.08v-8.15c0-3.65-1.98-5.47-5.94-5.47-1.99 0-4.14.51-6.47 1.52v3.35h2.25l.01-.32c.13-1.17.42-1.95.88-2.33a4.23 4.23 0 0 1 2.7-.94c2.18 0 3.27 1.44 3.27 4.33v2.27h-.68c-3.66 0-6.25.62-7.78 1.85a5.15 5.15 0 0 0-2.02 4.22 4.9 4.9 0 0 0 1.55 3.7 5.35 5.35 0 0 0 3.86 1.47Zm5.07-10.21v6.9c-1.3.9-2.44 1.33-3.4 1.33a3.42 3.42 0 0 1-2.55-1.04 3.6 3.6 0 0 1-1.02-2.63c0-1.42.55-2.53 1.64-3.34 1.1-.81 2.62-1.22 4.56-1.22h.77Z" clip-rule="evenodd"/>
  <path fill="#fff" d="M214.91 1.04v22.22c0 1.53.13 2.43.37 2.72.25.3 1.05.49 2.43.57l.31.02v1.06h-9.5v-1.06l.31-.02c1.36-.08 2.16-.28 2.41-.58.26-.3.38-1.2.38-2.7V5.4c0-1.5-.12-2.41-.38-2.7-.25-.3-1.05-.5-2.4-.59l-.32-.01V1.04h6.4Zm14.63 26.47c-.84.35-1.64.53-2.4.53-1.93 0-3.34-.5-4.22-1.46-.9-.98-1.33-2.53-1.33-4.67v-11.2h-2.68V9.33h2.68v-3.3l3.29-.83v4.13h5.07v1.38h-5.07v11.63c0 1.58.2 2.7.62 3.35.41.67 1.12 1 2.12 1 .53 0 1.16-.18 1.92-.53v1.35Zm7.77-14.74a8.86 8.86 0 0 1 2.9-2.89 7.17 7.17 0 0 1 3.67-.96c1.56 0 2.79.52 3.69 1.55.88 1.04 1.32 2.46 1.32 4.26v8.53c.08 1.67.2 2.61.39 2.83.17.2.98.36 2.41.46l.3.02v1.06h-9.5v-1.06l.3-.02c1.44-.1 2.24-.25 2.42-.46.18-.22.3-1.16.39-2.83v-8c0-1.57-.2-2.67-.62-3.28-.4-.61-1.13-.92-2.18-.92a5.7 5.7 0 0 0-2.49.7 15.2 15.2 0 0 0-3 2.12v9.38c0 1.53.12 2.43.37 2.72.24.3 1.05.49 2.42.57l.31.02v1.06h-9.5v-1.06l.32-.02c1.36-.08 2.16-.28 2.41-.58.25-.3.38-1.2.38-2.7V5.4c0-1.5-.13-2.41-.38-2.7-.25-.3-1.05-.5-2.4-.59l-.33-.01V1.04h6.4v11.73Z"/>
</symbol><symbol id="logo-full" viewBox="0 0 252 32">
  <path fill="#008CCB" fill-rule="evenodd" d="M28.87 3A10.23 10.23 0 0 1 30 16a10.2 10.2 0 0 1 1.83 5.83 10.13 10.13 0 0 1-15.93 8.34 10.11 10.11 0 0 1-12.94-1.15 10.23 10.23 0 0 1-1.14-13.01 10.15 10.15 0 0 1 14.1-14.17 10.1 10.1 0 0 1 12.94 1.15Zm-.92 18.83c0-1-.26-1.95-.7-2.82l-8.35 8.4a6.21 6.21 0 0 0 9.05-5.58Zm0-11.64a6.2 6.2 0 0 0-9.04-5.57L27.24 13c.44-.89.7-1.85.7-2.82ZM5.72 26.25a6.26 6.26 0 0 1-1.13-7.24l3.45 3.46v.01l.02.02h.01l4.87 4.9a6.2 6.2 0 0 1-7.22-1.15Zm0-20.5A6.24 6.24 0 0 0 4.58 13l8.36-8.4a6.18 6.18 0 0 0-7.22 1.14Zm10.2 19.12L7.1 16l8.81-8.86L24.74 16l-8.82 8.86Z" clip-rule="evenodd"/>
  <path fill="#3C3839" fill-rule="evenodd" d="m43.75 23.26 1.42-3.3H55.8l1.38 3.3c.47 1.1.7 1.98.7 2.64 0 .45-.78.67-2.34.67h-.3v1.06h9.2v-1.06l-.4-.02c-.8-.04-1.35-.2-1.63-.49-.28-.28-.76-1.18-1.44-2.68L52.29 2.4h-1.15l-8.75 20.86A18.14 18.14 0 0 1 41 26.2c-.18.2-.75.32-1.71.36l-.35.02v1.06h6.43v-1.06h-.27c-1.44 0-2.16-.23-2.16-.7 0-.44.28-1.3.82-2.61Zm11.46-4.68h-9.49L50.5 7.24l4.71 11.34Z" clip-rule="evenodd"/>
  <path fill="#3C3839" d="M74.12 27.51c-.83.35-1.63.53-2.39.53-1.93 0-3.34-.5-4.22-1.46-.9-.98-1.34-2.53-1.34-4.67v-11.2H63.5V9.33h2.67v-3.3l3.3-.83v4.13h5.07v1.38h-5.07v11.63c0 1.58.2 2.7.62 3.35.41.67 1.12 1 2.12 1 .52 0 1.16-.18 1.91-.53v1.35Zm8.73-13.19v8.94c0 1.51.13 2.42.4 2.72.26.3 1.06.5 2.4.57l.72.02v1.06h-9.92v-1.06l.32-.02c1.36-.08 2.16-.28 2.41-.58.25-.3.38-1.2.38-2.7v-9.58c0-1.5-.13-2.41-.38-2.7-.25-.29-1.05-.49-2.4-.59l-.33-.01V9.33h6.4v3.44c1.51-2.56 3.49-3.85 5.93-3.85a4 4 0 0 1 1.12.19v5h-1.85l-.01-.3a9.05 9.05 0 0 0-.33-1.87c-.1-.2-.35-.3-.77-.3-1.66 0-3.02.9-4.09 2.68Z"/>
  <path fill="#3C3839" fill-rule="evenodd" d="M97.6 23.26V9.33h-6.4v1.06l.33.01c1.35.1 2.15.3 2.4.6.26.28.38 1.19.38 2.7v9.56c0 1.52-.12 2.42-.38 2.71-.25.3-1.05.5-2.4.58l-.32.02v1.06h9.5v-1.06l-.32-.02c-1.37-.08-2.17-.27-2.42-.57-.24-.29-.36-1.2-.36-2.72ZM94.32 6.03V2.72h3.3v3.3h-3.3Z" clip-rule="evenodd"/>
  <path fill="#3C3839" d="M116.5 27.63v-3.45a8.98 8.98 0 0 1-2.9 2.89 7.04 7.04 0 0 1-3.66.97 4.6 4.6 0 0 1-3.68-1.57c-.9-1.03-1.35-2.45-1.35-4.26V13.7c0-1.51-.12-2.42-.37-2.7-.26-.3-1.06-.5-2.41-.6l-.32-.01V9.33h6.4v12.35c0 1.4.25 2.46.75 3.16.49.7 1.24 1.06 2.23 1.06.92 0 1.82-.24 2.7-.71a9.7 9.7 0 0 0 2.6-2.12V13.7c-.07-1.67-.2-2.62-.38-2.82-.18-.22-.98-.38-2.42-.48l-.3-.01V9.33h6.4v13.93c.07 1.67.2 2.61.38 2.83.18.2.98.36 2.4.46l.33.02v1.06h-6.4Zm9-.96v-4.65h1.86l.03.32c.15 1.68.26 2.63.34 2.85.07.22.36.5.87.84 1 .65 2.13.97 3.37.97 1 0 1.82-.3 2.47-.91.64-.62.96-1.4.96-2.38 0-.85-.22-1.53-.64-2.04a6.1 6.1 0 0 0-2.29-1.38l-1.7-.66c-1.82-.7-3.14-1.5-3.95-2.39a4.52 4.52 0 0 1-1.22-3.2c0-1.48.59-2.7 1.77-3.67a6.87 6.87 0 0 1 4.5-1.45c1.79 0 3.62.35 5.53 1.05v4.36h-1.85v-.3a14 14 0 0 0-.27-2.28c-.11-.42-.3-.73-.54-.94a4.16 4.16 0 0 0-2.64-.86c-.98 0-1.79.32-2.43.95a3.14 3.14 0 0 0-.96 2.36c0 .79.25 1.41.78 1.88.51.48 1.55 1.04 3.12 1.68l1.53.64c1.7.7 2.87 1.42 3.54 2.16.66.75.99 1.71.99 2.9 0 1.62-.64 2.95-1.93 3.98a7.85 7.85 0 0 1-5.04 1.54c-2.18 0-4.24-.46-6.2-1.37Zm28.69-11.27v7.86c0 1.51.12 2.42.37 2.71.24.3 1.05.5 2.41.58l.33.02v1.06h-9.73v-1.06l.31-.02c1.36-.08 2.16-.28 2.41-.58.26-.3.38-1.2.38-2.7V7.06c0-1.5-.12-2.4-.38-2.7-.25-.29-1.05-.48-2.4-.57l-.32-.03V2.72h9.73v1.05l-.33.03c-1.36.1-2.17.28-2.4.57-.26.3-.38 1.2-.38 2.7v6.89h11.79V7.08c0-1.52-.13-2.42-.38-2.71-.25-.29-1.07-.48-2.42-.57l-.31-.03V2.72h9.73v1.05l-.32.03c-1.36.1-2.17.28-2.42.57-.25.3-.37 1.2-.37 2.7v16.2c0 1.5.12 2.4.37 2.7.25.3 1.06.5 2.42.58l.32.02v1.06h-9.73v-1.06l.3-.02c1.38-.08 2.19-.27 2.44-.57.24-.29.37-1.2.37-2.72v-7.85h-11.8Z"/>
  <path fill="#3C3839" fill-rule="evenodd" d="M182.98 28.04c1.73 0 3.64-.41 5.74-1.24v-1.7a10.38 10.38 0 0 1-5.23 1.24 4.97 4.97 0 0 1-4.4-2.17c-.99-1.45-1.48-3.59-1.48-6.44h11.11v-.31c0-2.73-.58-4.83-1.75-6.3-1.17-1.47-2.83-2.2-5-2.2-2.34 0-4.27.88-5.77 2.63s-2.24 4-2.24 6.73c0 2.9.83 5.24 2.5 7.05a8.47 8.47 0 0 0 6.52 2.7Zm2.24-11.34h-7.54c0-2.05.37-3.69 1.1-4.91.73-1.23 1.72-1.84 2.96-1.84s2.13.48 2.68 1.42c.55.94.82 2.47.82 4.6l-.02.73Zm11.31 11.34c1.92 0 3.87-.98 5.83-2.94.44 1.96 1.47 2.94 3.09 2.94a6.5 6.5 0 0 0 2.13-.42l-.1-1.25c-.37.1-.67.14-.9.14-.61 0-1.06-.3-1.3-.89a8.73 8.73 0 0 1-.38-3.08v-8.15c0-3.65-1.98-5.47-5.94-5.47-1.99 0-4.14.51-6.47 1.52v3.35h2.25l.01-.32c.13-1.17.42-1.95.88-2.33a4.23 4.23 0 0 1 2.7-.94c2.18 0 3.27 1.44 3.27 4.33v2.27h-.68c-3.66 0-6.25.62-7.78 1.85a5.15 5.15 0 0 0-2.02 4.22 4.9 4.9 0 0 0 1.55 3.7 5.35 5.35 0 0 0 3.86 1.47Zm5.07-10.21v6.9c-1.3.9-2.44 1.33-3.4 1.33a3.42 3.42 0 0 1-2.55-1.04 3.6 3.6 0 0 1-1.02-2.63c0-1.42.55-2.53 1.64-3.34 1.1-.81 2.62-1.22 4.56-1.22h.77Z" clip-rule="evenodd"/>
  <path fill="#3C3839" d="M214.91 1.04v22.22c0 1.53.13 2.43.37 2.72.25.3 1.05.49 2.43.57l.31.02v1.06h-9.5v-1.06l.31-.02c1.36-.08 2.16-.28 2.41-.58.26-.3.38-1.2.38-2.7V5.4c0-1.5-.12-2.41-.38-2.7-.25-.3-1.05-.5-2.4-.59l-.32-.01V1.04h6.4Zm14.63 26.47c-.84.35-1.64.53-2.4.53-1.93 0-3.34-.5-4.22-1.46-.9-.98-1.33-2.53-1.33-4.67v-11.2h-2.68V9.33h2.68v-3.3l3.29-.83v4.13h5.07v1.38h-5.07v11.63c0 1.58.2 2.7.62 3.35.41.67 1.12 1 2.12 1 .53 0 1.16-.18 1.92-.53v1.35Zm7.77-14.74a8.86 8.86 0 0 1 2.9-2.89 7.17 7.17 0 0 1 3.67-.96c1.56 0 2.79.52 3.69 1.55.88 1.04 1.32 2.46 1.32 4.26v8.53c.08 1.67.2 2.61.39 2.83.17.2.98.36 2.41.46l.3.02v1.06h-9.5v-1.06l.3-.02c1.44-.1 2.24-.25 2.42-.46.18-.22.3-1.16.39-2.83v-8c0-1.57-.2-2.67-.62-3.28-.4-.61-1.13-.92-2.18-.92a5.7 5.7 0 0 0-2.49.7 15.2 15.2 0 0 0-3 2.12v9.38c0 1.53.12 2.43.37 2.72.24.3 1.05.49 2.42.57l.31.02v1.06h-9.5v-1.06l.32-.02c1.36-.08 2.16-.28 2.41-.58.25-.3.38-1.2.38-2.7V5.4c0-1.5-.13-2.41-.38-2.7-.25-.3-1.05-.5-2.4-.59l-.33-.01V1.04h6.4v11.73Z"/>
</symbol><symbol id="logo-icon-black" viewBox="0 0 25 25">
  <path fill="#3C3839" fill-rule="evenodd" d="M21.79 3.24a7.67 7.67 0 0 1 .85 9.76 7.6 7.6 0 0 1-10.57 10.62 7.58 7.58 0 0 1-9.7-.86A7.67 7.67 0 0 1 1.5 13a7.6 7.6 0 0 1 .85-9.76 7.54 7.54 0 0 1 9.72-.87 7.58 7.58 0 0 1 9.7.87Zm-.7 14.13a4.7 4.7 0 0 0-.51-2.12l-6.27 6.3a4.66 4.66 0 0 0 6.79-4.18Zm0-8.73a4.66 4.66 0 0 0-6.78-4.18l6.26 6.3c.34-.67.52-1.4.52-2.12ZM4.42 20.69a4.7 4.7 0 0 1-.85-5.44l2.6 2.6.01.02 3.66 3.67a4.65 4.65 0 0 1-5.42-.85Zm0-15.38a4.68 4.68 0 0 0-.85 5.43l6.27-6.3a4.63 4.63 0 0 0-5.41.86Zm7.66 14.34L5.46 13l6.61-6.65L18.69 13l-6.61 6.65Z" clip-rule="evenodd"/>
</symbol><symbol id="logo-icon-blue" viewBox="0 0 25 25">
  <path fill="#008CCB" fill-rule="evenodd" d="M21.79 3.24a7.67 7.67 0 0 1 .85 9.76 7.6 7.6 0 0 1-10.57 10.62 7.58 7.58 0 0 1-9.7-.86A7.67 7.67 0 0 1 1.5 13a7.6 7.6 0 0 1 .85-9.76 7.54 7.54 0 0 1 9.72-.87 7.58 7.58 0 0 1 9.7.87Zm-.7 14.13a4.7 4.7 0 0 0-.51-2.12l-6.27 6.3a4.66 4.66 0 0 0 6.79-4.18Zm0-8.73a4.66 4.66 0 0 0-6.78-4.18l6.26 6.3c.34-.67.52-1.4.52-2.12ZM4.42 20.69a4.7 4.7 0 0 1-.85-5.44l2.6 2.6.01.02 3.66 3.67a4.65 4.65 0 0 1-5.42-.85Zm0-15.38a4.68 4.68 0 0 0-.85 5.43l6.27-6.3a4.63 4.63 0 0 0-5.41.86Zm7.66 14.34L5.46 13l6.61-6.65L18.69 13l-6.61 6.65Z" clip-rule="evenodd"/>
</symbol><symbol id="logo-icon-white" viewBox="0 0 25 25">
  <path fill="#fff" fill-rule="evenodd" d="M21.79 3.24a7.67 7.67 0 0 1 .85 9.76 7.6 7.6 0 0 1-10.57 10.62 7.58 7.58 0 0 1-9.7-.86A7.67 7.67 0 0 1 1.5 13a7.6 7.6 0 0 1 .85-9.76 7.54 7.54 0 0 1 9.72-.87 7.58 7.58 0 0 1 9.7.87Zm-.7 14.13a4.7 4.7 0 0 0-.51-2.12l-6.27 6.3a4.66 4.66 0 0 0 6.79-4.18Zm0-8.73a4.66 4.66 0 0 0-6.78-4.18l6.26 6.3c.34-.67.52-1.4.52-2.12ZM4.42 20.69a4.7 4.7 0 0 1-.85-5.44l2.6 2.6.01.02 3.66 3.67a4.65 4.65 0 0 1-5.42-.85Zm0-15.38a4.68 4.68 0 0 0-.85 5.43l6.27-6.3a4.63 4.63 0 0 0-5.41.86Zm7.66 14.34L5.46 13l6.61-6.65L18.69 13l-6.61 6.65Z" clip-rule="evenodd"/>
</symbol><symbol id="notification-circle" viewBox="0 0 512 512"><path d="M256 48c-55.559 0-107.792 21.636-147.078 60.922S48 200.441 48 256s21.636 107.792 60.922 147.078S200.441 464 256 464s107.792-21.636 147.078-60.922S464 311.559 464 256s-21.636-107.792-60.922-147.078S311.559 48 256 48zm0-48c141.385 0 256 114.615 256 256S397.385 512 256 512 0 397.385 0 256 114.615 0 256 0zm-32 352h64v64h-64zm0-256h64v192h-64z"/></symbol><symbol id="pause" viewBox="0 0 32 32"><path d="M16 0C7.163 0 0 7.163 0 16s7.163 16 16 16 16-7.163 16-16S24.837 0 16 0zm0 29C8.82 29 3 23.18 3 16S8.82 3 16 3s13 5.82 13 13-5.82 13-13 13zm-6-19h4v12h-4zm8 0h4v12h-4z"/></symbol><symbol id="play" viewBox="0 0 32 32"><path d="M16 0C7.163 0 0 7.163 0 16s7.163 16 16 16 16-7.163 16-16S24.837 0 16 0zm0 29C8.82 29 3 23.18 3 16S8.82 3 16 3s13 5.82 13 13-5.82 13-13 13zM12 9l12 7-12 7z"/></symbol><symbol id="pub-date" viewBox="0 0 24 24">
<path fill="currentColor" d="M12.516 6.984v5.25l4.5 2.672-0.75 1.266-5.25-3.188v-6h1.5zM12 20.016q3.281 0 5.648-2.367t2.367-5.648-2.367-5.648-5.648-2.367-5.648 2.367-2.367 5.648 2.367 5.648 5.648 2.367zM12 2.016q4.125 0 7.055 2.93t2.93 7.055-2.93 7.055-7.055 2.93-7.055-2.93-2.93-7.055 2.93-7.055 7.055-2.93z"/>
</symbol><symbol id="radio_button_checked" viewBox="0 0 24 24">
<g clip-path="url(#clip0_431_36648)">
<path d="M12 2C6.48 2 2 6.48 2 12C2 17.52 6.48 22 12 22C17.52 22 22 17.52 22 12C22 6.48 17.52 2 12 2ZM12 20C7.58 20 4 16.42 4 12C4 7.58 7.58 4 12 4C16.42 4 20 7.58 20 12C20 16.42 16.42 20 12 20Z" fill="currentColor"/>
<path d="M12 17C14.7614 17 17 14.7614 17 12C17 9.23858 14.7614 7 12 7C9.23858 7 7 9.23858 7 12C7 14.7614 9.23858 17 12 17Z" fill="currentColor"/>
</g>

</symbol><symbol id="radio_button_unchecked" viewBox="0 0 24 24">
<g clip-path="url(#clip0_431_36632)">
<path d="M12 2C6.48 2 2 6.48 2 12C2 17.52 6.48 22 12 22C17.52 22 22 17.52 22 12C22 6.48 17.52 2 12 2ZM12 20C7.58 20 4 16.42 4 12C4 7.58 7.58 4 12 4C16.42 4 20 7.58 20 12C20 16.42 16.42 20 12 20Z" fill="currentColor"/>
</g>

</symbol><symbol id="remove_circle" viewBox="0 0 24 24">
<path fill="currentColor" d="M17.016 12.984v-1.969h-10.031v1.969h10.031zM12 2.016q4.125 0 7.055 2.93t2.93 7.055-2.93 7.055-7.055 2.93-7.055-2.93-2.93-7.055 2.93-7.055 7.055-2.93z"/>
</symbol><symbol id="right-arrow" viewBox="0 0 24 24">
  <g clip-path="url(#a)">
    <path fill="currentColor" d="m12 4-1.41 1.41L16.17 11H4v2h12.17l-5.58 5.59L12 20l8-8-8-8Z"/>
  </g>
  
</symbol><symbol id="rss" viewBox="0 0 24 24">
<path fill="currentColor" d="M12 2.001c-5.522 0-9.999 4.477-9.999 9.999s4.477 9.999 9.999 9.999 9.999-4.477 9.999-9.999-4.477-9.999-9.999-9.999zM8.25 17c-0.69 0-1.25-0.56-1.25-1.25s0.56-1.25 1.25-1.25 1.25 0.56 1.25 1.25-0.56 1.25-1.25 1.25zM11.688 17c0-2.584-2.103-4.687-4.687-4.687v-1.875c3.618 0 6.562 2.944 6.562 6.562h-1.875zM15.437 17c0-2.254-0.878-4.372-2.471-5.966s-3.712-2.471-5.966-2.471v-1.875c2.754 0 5.344 1.073 7.292 3.020s3.020 4.537 3.020 7.291h-1.875z"/>
</symbol><symbol id="search-field" viewBox="0 0 24 24">
  <g clip-path="url(#a)">
    <path fill="currentColor" d="M15.5 14h-.79l-.28-.27a6.5 6.5 0 1 0-.7.7l.27.28v.79l5 4.99L20.49 19l-4.99-5Zm-6 0a4.5 4.5 0 1 1-.01-8.99A4.5 4.5 0 0 1 9.5 14Z"/>
  </g>
  
</symbol><symbol id="search" viewBox="0 0 24 24"><g fill="none" stroke="currentColor" stroke-width="2" stroke-linecap="round" stroke-linejoin="round" class="feather feather-search"><circle cx="11" cy="11" r="8"/><line x1="21" y1="21" x2="16.65" y2="16.65"/></g></symbol><symbol id="social-email" viewBox="0 0 24 24">
  <path fill="currentColor" d="M22 6a2 2 0 0 0-2-2H4a2 2 0 0 0-2 2v12c0 1.1.9 2 2 2h16a2 2 0 0 0 2-2V6Zm-2 0-8 5-8-5h16Zm0 12H4V8l8 5 8-5v10Z"/>
</symbol><symbol id="social-facebook" viewBox="0 0 24 24">
  <path fill="currentColor" d="m16.65 13.25.56-3.62h-3.47V7.28c0-.99.48-1.95 2.04-1.95h1.58V2.24S15.92 2 14.56 2c-2.87 0-4.74 1.73-4.74 4.87v2.76H6.64v3.62h3.18V22h3.92v-8.75h2.91Z"/>
</symbol><symbol id="social-instagram" viewBox="0 0 24 24">
  <path fill="currentColor" d="M12 6.87a5.12 5.12 0 1 0 0 10.24 5.12 5.12 0 0 0 0-10.24Zm0 8.46a3.34 3.34 0 1 1 .01-6.68 3.34 3.34 0 0 1 0 6.68Zm6.53-8.67a1.2 1.2 0 1 1-2.39 0 1.2 1.2 0 0 1 2.4 0Zm3.4 1.22c-.08-1.6-.44-3.02-1.62-4.2-1.16-1.16-2.58-1.53-4.19-1.6-1.65-.1-6.6-.1-8.24 0-1.6.07-3.02.43-4.2 1.6-1.17 1.17-1.53 2.6-1.61 4.2-.1 1.64-.1 6.6 0 8.24.08 1.6.44 3.02 1.62 4.2 1.17 1.16 2.58 1.53 4.19 1.6 1.65.1 6.6.1 8.24 0 1.6-.07 3.03-.43 4.2-1.6 1.16-1.18 1.53-2.6 1.61-4.2.1-1.65.1-6.6 0-8.24ZM19.8 17.89a3.37 3.37 0 0 1-1.9 1.9c-1.32.53-4.44.4-5.9.4-1.45 0-4.58.12-5.9-.4a3.37 3.37 0 0 1-1.9-1.9c-.51-1.31-.4-4.44-.4-5.89 0-1.45-.11-4.58.4-5.9a3.37 3.37 0 0 1 1.9-1.9c1.32-.52 4.45-.4 5.9-.4 1.46 0 4.58-.11 5.9.4a3.37 3.37 0 0 1 1.9 1.9c.52 1.32.4 4.45.4 5.9 0 1.45.12 4.58-.4 5.9Z"/>
</symbol><symbol id="social-linkedin" viewBox="0 0 24 24">
  <path fill="currentColor" d="M20.57 2H3.42C2.64 2 2 2.65 2 3.44v17.12c0 .8.64 1.44 1.42 1.44h17.15c.79 0 1.43-.65 1.43-1.44V3.44c0-.8-.64-1.44-1.43-1.44ZM8.04 19.14H5.08V9.6h2.97v9.54ZM6.56 8.3a1.72 1.72 0 1 1 0-3.43 1.72 1.72 0 0 1 0 3.43Zm12.6 10.85h-2.97V14.5c0-1.1-.02-2.53-1.54-2.53-1.54 0-1.78 1.2-1.78 2.45v4.72H9.91V9.6h2.84v1.3h.04a3.12 3.12 0 0 1 2.8-1.54c3 0 3.57 1.98 3.57 4.55v5.23Z"/>
</symbol><symbol id="social-pinterest" viewBox="0 0 24 24"><path d="M24.257 6.483C25.419 8.47 26 10.641 26 13s-.581 4.534-1.743 6.525a12.942 12.942 0 0 1-4.732 4.732C17.534 25.419 15.36 26 13 26c-1.253 0-2.483-.18-3.69-.542.666-1.05 1.106-1.974 1.32-2.776.102-.383.406-1.574.914-3.571.226.44.638.82 1.236 1.142a4.012 4.012 0 0 0 1.93.483c1.365 0 2.584-.387 3.656-1.16 1.072-.773 1.901-1.836 2.488-3.19.587-1.355.88-2.878.88-4.57a6.966 6.966 0 0 0-1.007-3.623c-.671-1.129-1.645-2.048-2.92-2.76-1.275-.71-2.714-1.066-4.316-1.066-1.185 0-2.29.164-3.318.491-1.027.327-1.898.762-2.615 1.303a8.914 8.914 0 0 0-1.845 1.87 7.74 7.74 0 0 0-1.134 2.193 7.387 7.387 0 0 0-.364 2.268c0 1.174.226 2.206.677 3.098.451.891 1.111 1.518 1.98 1.879.339.135.553.022.644-.339.022-.079.067-.254.135-.525.068-.27.113-.44.135-.507.068-.26.006-.503-.186-.728-.575-.689-.863-1.54-.863-2.556 0-1.704.59-3.168 1.769-4.393 1.18-1.224 2.722-1.836 4.63-1.836 1.703 0 3.032.462 3.986 1.388.953.925 1.43 2.127 1.43 3.605 0 1.919-.386 3.55-1.16 4.892-.772 1.343-1.763 2.014-2.97 2.014-.688 0-1.241-.245-1.659-.736-.418-.49-.547-1.08-.39-1.769.091-.395.24-.922.45-1.583.208-.66.377-1.24.507-1.743.13-.502.195-.928.195-1.278 0-.564-.153-1.033-.457-1.405-.305-.372-.74-.559-1.304-.559-.7 0-1.292.322-1.777.965-.485.644-.728 1.445-.728 2.404 0 .824.141 1.512.423 2.065l-1.675 7.076c-.192.79-.266 1.788-.22 2.996-2.325-1.027-4.204-2.613-5.637-4.757C.717 18.016 0 15.63 0 13c0-2.359.581-4.534 1.743-6.525a12.942 12.942 0 0 1 4.732-4.732C8.466.581 10.64 0 13 0s4.534.581 6.525 1.743a12.922 12.922 0 0 1 4.732 4.74z" fill="currentColor" fill-rule="evenodd"/></symbol><symbol id="social-print" viewBox="0 0 24 24">
<path d="M19 1v5h-14v-5h14zM19.977 12c0.559 0 1.023-0.419 1.023-0.977s-0.466-1.023-1.023-1.023c-0.558 0-0.977 0.466-0.977 1.023s0.419 0.977 0.977 0.977zM17 21v-6h-10v6h10zM20.394 7c1.972 0 3.606 1.675 3.606 3.697v7.303h-5v5h-14v-5h-5v-7.303c0-2.022 1.633-3.697 3.606-3.697h16.788z" fill="currentColor" fill-rule="evenodd"/>
</symbol><symbol id="social-share" viewBox="0 0 24 24">
  <path fill="currentColor" d="M18 16.08c-.76 0-1.44.3-1.96.77L8.91 12.7c.05-.23.09-.46.09-.7 0-.24-.04-.47-.09-.7l7.05-4.11A2.99 2.99 0 0 0 21 5a3 3 0 1 0-5.91.7L8.04 9.81A2.99 2.99 0 0 0 3 12a3 3 0 0 0 5.04 2.19l7.12 4.16A2.92 2.92 0 1 0 18 16.08Z"/>
</symbol><symbol id="social-sms" viewBox="0 0 24 24">
  <path fill="currentColor" d="M20 2H4a2 2 0 0 0-2 2v18l4-4h14a2 2 0 0 0 2-2V4a2 2 0 0 0-2-2Zm0 14H5.17L4 17.17V4h16v12ZM7 9h2v2H7V9Zm8 0h2v2h-2V9Zm-4 0h2v2h-2V9Z"/>
</symbol><symbol id="social-twitter" viewBox="0 0 24 24">
  <path fill="currentColor" d="M19.94 7.93c.02.17.02.35.02.53 0 5.42-4.13 11.66-11.67 11.66-2.32 0-4.48-.67-6.29-1.84a8.49 8.49 0 0 0 6.08-1.7 4.1 4.1 0 0 1-3.83-2.84 4.33 4.33 0 0 0 1.85-.08 4.1 4.1 0 0 1-3.3-4.02v-.05c.55.3 1.18.5 1.85.52A4.1 4.1 0 0 1 3.4 4.63a11.65 11.65 0 0 0 8.45 4.29 4.1 4.1 0 0 1 7-3.74 8.07 8.07 0 0 0 2.6-1 4.14 4.14 0 0 1-1.81 2.26A8.22 8.22 0 0 0 22 5.81a8.81 8.81 0 0 1-2.06 2.12Z"/>
</symbol><symbol id="social-youtube" viewBox="0 0 24 24">
  <path fill="currentColor" d="M21.58 7.17a2.51 2.51 0 0 0-1.77-1.78C18.25 4.97 12 4.97 12 4.97s-6.25 0-7.81.42a2.5 2.5 0 0 0-1.77 1.78C2 8.74 2 12 2 12s0 3.28.42 4.85c.23.87.9 1.52 1.77 1.75 1.56.42 7.81.42 7.81.42s6.25 0 7.81-.42a2.48 2.48 0 0 0 1.77-1.75C22 15.29 22 12 22 12s0-3.27-.42-4.84ZM9.95 14.99V9.04l5.23 2.97L9.95 15Z"/>
</symbol><symbol id="toggle_off" viewBox="0 0 24 24">
<g clip-path="url(#clip0_433_23922)">
<path d="M17 7H7C4.24 7 2 9.24 2 12C2 14.76 4.24 17 7 17H17C19.76 17 22 14.76 22 12C22 9.24 19.76 7 17 7ZM7 15C5.34 15 4 13.66 4 12C4 10.34 5.34 9 7 9C8.66 9 10 10.34 10 12C10 13.66 8.66 15 7 15Z" fill="currentColor"/>
</g>

</symbol><symbol id="toggle_on" viewBox="0 0 24 24">
<g clip-path="url(#clip0_433_23932)">
<path d="M17 7H7C4.24 7 2 9.24 2 12C2 14.76 4.24 17 7 17H17C19.76 17 22 14.76 22 12C22 9.24 19.76 7 17 7ZM17 15C15.34 15 14 13.66 14 12C14 10.34 15.34 9 17 9C18.66 9 20 10.34 20 12C20 13.66 18.66 15 17 15Z" fill="currentColor"/>
</g>

</symbol><symbol id="unfold_less" viewBox="0 0 24 24">
<path fill="currentColor" d="M16.594 5.391l-4.594 4.594-4.594-4.594 1.406-1.406 3.188 3.188 3.188-3.188zM7.406 18.609l4.594-4.594 4.594 4.594-1.406 1.406-3.188-3.188-3.188 3.188z"/>
</symbol><symbol id="unfold_more" viewBox="0 0 24 24">
<path fill="currentColor" d="M12 18.188l3.188-3.188 1.406 1.406-4.594 4.594-4.594-4.594 1.406-1.406zM12 5.813l-3.188 3.188-1.406-1.406 4.594-4.594 4.594 4.594-1.406 1.406z"/>
</symbol></svg>